{"glyphs":{"0":{"ha":608,"x_min":0,"x_max":0,"o":"m 250 -15 b 574 268 432 -15 535 50 l 653 717 b 397 1018 689 921 588 1018 b 71 743 215 1018 106 935 l -8 296 b 250 -15 -47 75 67 -15 z m 274 233 b 268 288 258 233 260 238 l 346 725 b 369 779 354 775 354 779 b 376 725 385 779 385 775 l 299 288 b 274 233 290 238 289 233 z "},"1":{"ha":438,"x_min":0,"x_max":0,"o":"m 360 0 l 404 256 l 331 256 l 461 1000 l 218 1000 b 93 847 203 910 174 850 l 51 610 l 119 610 l 57 256 l -19 256 l -64 0 z "},"2":{"ha":601,"x_min":0,"x_max":0,"o":"m 521 0 l 565 258 l 282 258 b 396 350 288 283 308 303 b 635 647 489 401 606 472 l 651 747 b 392 1021 688 939 590 1021 b 74 764 214 1021 107 947 l 47 610 l 321 610 l 347 757 b 367 790 353 788 356 790 b 375 753 379 790 381 785 l 358 660 b 203 521 347 597 338 596 b -18 242 56 443 7 381 l -60 0 z "},"3":{"ha":607,"x_min":0,"x_max":0,"o":"m 251 -15 b 565 226 443 -15 533 50 l 586 342 b 513 528 608 463 571 510 b 647 690 583 543 629 585 l 660 758 b 400 1021 693 938 590 1021 b 69 758 210 1021 104 950 b 51 658 69 758 54 675 l 331 658 l 347 754 b 365 779 351 774 354 779 b 379 760 379 779 381 771 l 361 654 b 333 631 358 639 351 631 l 235 631 l 194 406 l 292 406 b 313 385 311 406 315 397 l 290 253 b 269 233 288 240 285 233 b 260 260 257 233 258 244 l 281 376 l 1 376 b -22 238 -1 360 -22 238 b 251 -15 -53 75 53 -15 z "},"4":{"ha":638,"x_min":0,"x_max":0,"o":"m 301 464 l 397 693 l 321 467 l 307 388 l 253 388 z m 586 153 l 628 388 l 561 388 l 668 1000 l 419 1000 l 4 388 l -37 153 l 265 153 l 239 0 l 493 0 l 519 153 z "},"5":{"ha":599,"x_min":0,"x_max":0,"o":"m 242 -15 b 563 254 419 -15 524 36 l 601 475 b 471 699 631 643 583 699 b 289 568 386 699 335 660 b 338 728 303 613 321 672 l 456 728 b 665 915 593 728 642 785 l 679 1000 l 147 1000 l 13 494 l 282 443 l 290 463 b 315 488 300 482 307 488 b 325 461 326 488 329 481 l 292 274 b 269 224 283 226 281 224 b 264 274 257 224 256 226 l 288 407 l 8 407 l -14 281 b 242 -15 -53 60 50 -15 z "},"6":{"ha":614,"x_min":0,"x_max":0,"o":"m 569 218 l 604 411 b 472 590 626 536 569 590 b 306 496 389 590 339 561 l 346 725 b 369 779 354 775 354 779 b 379 750 382 779 382 771 l 356 615 l 640 615 l 657 714 b 397 1018 693 918 592 1018 b 71 743 206 1018 104 926 l -11 278 b 250 -15 -47 69 68 -15 b 569 218 429 -15 539 50 z m 276 233 b 268 288 261 233 260 238 l 288 396 b 311 417 294 410 303 417 b 322 397 318 417 325 413 l 300 268 b 276 233 294 242 290 233 z "},"7":{"ha":529,"x_min":0,"x_max":0,"o":"m 276 0 b 583 743 369 336 453 500 l 628 1000 l 110 1000 l 54 685 l 264 685 b -51 0 158 531 38 294 z "},"8":{"ha":606,"x_min":0,"x_max":0,"o":"m 246 -19 b 558 194 457 -19 535 63 l 588 356 b 540 515 600 433 583 485 b 638 649 593 535 625 576 l 661 790 b 403 1021 686 939 606 1021 b 83 815 207 1021 106 942 l 60 682 b 110 524 47 607 64 554 b 7 386 54 500 19 456 l -22 225 b 246 -19 -53 61 38 -19 z m 325 617 l 354 782 b 372 804 356 794 363 804 b 385 782 386 804 388 797 l 356 615 b 335 590 353 601 350 590 b 325 617 319 590 322 600 z m 268 208 b 257 231 258 208 254 214 l 286 401 b 306 428 290 418 294 428 l 307 428 b 318 404 319 428 321 421 l 288 229 b 268 208 285 214 279 208 z "},"9":{"ha":614,"x_min":0,"x_max":0,"o":"m 333 564 b 322 583 326 564 319 568 l 349 738 b 372 774 354 764 358 774 b 381 722 388 774 389 768 l 356 583 b 333 564 350 571 342 564 z m 247 -14 b 578 263 460 -14 544 79 l 660 728 b 399 1021 696 936 581 1021 b 79 790 219 1021 110 958 l 43 588 b 182 389 18 444 90 389 b 342 499 271 389 313 425 l 303 281 b 279 226 294 231 294 226 b 269 256 267 226 267 235 l 289 365 l 4 365 l -8 292 b 247 -14 -44 88 53 -14 z "}," ":{"ha":258,"x_min":0,"x_max":0,"o":""}," ":{"ha":258,"x_min":0,"x_max":0,"o":""},"A":{"ha":604,"x_min":0,"x_max":0,"o":"m 300 431 l 343 635 l 317 431 l 307 296 l 264 296 z m 285 0 l 547 0 l 575 1000 l 229 1000 l -85 0 l 183 0 l 204 76 l 290 76 z "},"B":{"ha":579,"x_min":0,"x_max":0,"o":"m 283 0 b 540 226 465 0 511 60 l 561 344 b 494 517 579 444 565 494 b 614 665 574 536 599 581 l 633 778 b 399 1000 663 943 596 1000 l 118 1000 l -57 0 z m 347 803 b 368 775 368 803 372 799 l 344 646 b 321 615 340 619 333 615 l 311 615 l 343 803 z m 278 406 b 300 375 300 406 306 404 l 278 250 b 246 214 274 221 268 214 l 240 214 l 274 406 z "},"C":{"ha":606,"x_min":0,"x_max":0,"o":"m 249 -15 b 571 268 435 -15 532 50 l 606 464 l 328 464 l 297 288 b 274 233 289 238 288 233 b 268 288 258 233 260 238 l 346 725 b 369 779 354 775 356 779 b 375 725 383 779 383 775 l 346 564 l 624 564 l 650 714 b 397 1018 686 922 588 1018 b 71 743 215 1018 106 935 l -8 296 b 249 -15 -47 75 65 -15 z "},"D":{"ha":610,"x_min":0,"x_max":0,"o":"m -57 0 l 228 0 b 574 267 438 0 538 57 l 650 701 b 407 1000 686 910 582 1000 l 118 1000 z m 350 769 b 372 729 374 769 378 764 l 294 286 b 256 238 286 242 281 238 l 349 769 z "},"E":{"ha":493,"x_min":0,"x_max":0,"o":"m 458 268 l 260 268 l 278 375 l 476 375 l 522 638 l 324 638 l 342 739 l 540 739 l 586 1000 l 118 1000 l -57 0 l 411 0 z "},"F":{"ha":461,"x_min":0,"x_max":0,"o":"m 446 364 l 493 633 l 322 633 l 340 731 l 510 731 l 557 1000 l 118 1000 l -57 0 l 211 0 l 275 364 z "},"G":{"ha":615,"x_min":0,"x_max":0,"o":"m 307 0 l 531 0 l 635 596 l 343 596 l 296 329 l 336 329 l 329 290 b 288 224 319 236 310 224 b 268 290 264 224 258 236 l 346 725 b 369 779 354 775 356 779 b 375 724 383 779 383 774 l 361 646 l 643 646 l 656 713 b 397 1018 692 925 604 1018 b 71 743 215 1018 106 935 l -12 274 b 139 -15 -50 65 -3 -15 b 319 140 243 -15 290 38 z "},"H":{"ha":599,"x_min":0,"x_max":0,"o":"m 242 0 l 514 0 l 689 1000 l 417 1000 l 353 632 l 325 632 l 389 1000 l 118 1000 l -57 0 l 214 0 l 279 374 l 307 374 z "},"I":{"ha":313,"x_min":0,"x_max":0,"o":"m -56 0 l 226 0 l 401 1000 l 119 1000 z "},"J":{"ha":617,"x_min":0,"x_max":0,"o":"m 264 -15 b 585 297 474 -15 542 71 l 708 1000 l 425 1000 l 301 292 b 276 233 293 242 292 233 b 271 285 261 233 263 239 l 314 529 l 32 529 l -11 301 b 264 -15 -50 81 61 -15 z "},"K":{"ha":644,"x_min":0,"x_max":0,"o":"m 279 278 l 300 0 l 592 0 l 532 514 l 761 1000 l 465 1000 l 375 797 l 296 604 l 358 815 l 390 1000 l 119 1000 l -56 0 l 215 0 l 279 365 l 288 392 z "},"L":{"ha":454,"x_min":0,"x_max":0,"o":"m 374 0 l 422 279 l 275 279 l 401 1000 l 118 1000 l -57 0 z "},"M":{"ha":911,"x_min":0,"x_max":0,"o":"m 254 175 l 315 782 l 268 0 l 504 0 l 729 772 l 581 176 l 550 0 l 826 0 l 1001 1000 l 596 1000 l 510 657 l 432 260 l 496 657 l 528 1000 l 118 1000 l -57 0 l 224 0 z "},"N":{"ha":665,"x_min":0,"x_max":0,"o":"m 247 225 l 267 647 l 272 0 l 581 0 l 756 1000 l 497 1000 l 464 804 l 442 321 l 439 1000 l 118 1000 l -57 0 l 208 0 z "},"O":{"ha":608,"x_min":0,"x_max":0,"o":"m 250 -15 b 574 268 432 -15 535 50 l 653 717 b 397 1018 689 921 588 1018 b 71 743 215 1018 106 935 l -8 296 b 250 -15 -47 75 67 -15 z m 274 233 b 268 288 258 233 260 238 l 346 725 b 369 779 354 775 354 779 b 376 725 385 779 385 775 l 299 288 b 274 233 290 238 289 233 z "},"P":{"ha":596,"x_min":0,"x_max":0,"o":"m 369 739 l 322 465 b 285 424 317 436 304 425 l 346 776 b 369 739 369 776 374 760 z m 256 189 b 588 428 464 189 557 258 l 639 721 b 400 1000 668 883 610 1000 l 118 1000 l -57 0 l 210 0 l 243 189 z "},"Q":{"ha":608,"x_min":0,"x_max":0,"o":"m 525 -114 l 465 44 b 574 268 518 88 554 158 l 653 717 b 397 1018 689 921 588 1018 b 71 743 215 1018 106 935 l -8 296 b 206 -14 -44 93 49 0 l 225 -112 z m 274 233 b 268 288 258 233 260 238 l 346 725 b 369 779 354 775 354 779 b 376 725 385 779 385 775 l 299 288 b 274 233 290 238 289 233 z "},"R":{"ha":586,"x_min":0,"x_max":0,"o":"m 351 775 b 374 742 374 775 378 768 l 347 597 b 311 563 343 574 336 564 l 349 775 z m 293 297 l 254 75 b 260 0 247 35 244 7 l 522 0 b 515 76 507 15 507 31 l 554 293 b 485 458 571 390 565 438 b 615 624 565 474 596 515 l 640 765 b 414 1000 671 942 599 1000 l 118 1000 l -57 0 l 213 0 l 272 340 b 293 297 293 339 299 332 z "},"S":{"ha":600,"x_min":0,"x_max":0,"o":"m 242 -15 b 561 231 425 -15 526 38 l 576 318 b 432 599 599 442 569 513 b 340 696 338 657 333 661 l 353 767 b 372 800 358 797 361 800 b 379 763 385 800 385 794 l 360 653 l 631 653 l 647 743 b 394 1018 683 939 593 1018 b 72 765 213 1018 106 949 l 65 726 b 200 442 40 586 65 526 b 300 315 307 376 310 371 l 288 251 b 267 218 283 221 276 218 b 258 247 257 218 254 222 l 282 379 l 1 379 l -21 256 b 242 -15 -57 51 58 -15 z "},"T":{"ha":506,"x_min":0,"x_max":0,"o":"m 556 740 l 601 1000 l 113 1000 l 67 740 l 172 740 l 42 0 l 322 0 l 453 740 z "},"U":{"ha":604,"x_min":0,"x_max":0,"o":"m 246 -15 b 568 278 436 -15 529 60 l 696 1000 l 419 1000 l 296 299 b 274 247 288 249 286 247 b 268 299 261 247 260 250 l 392 1000 l 117 1000 l -7 296 b 246 -15 -46 75 63 -15 z "},"V":{"ha":613,"x_min":0,"x_max":0,"o":"m 415 0 l 731 1000 l 451 1000 l 369 706 l 282 256 l 351 706 l 372 1000 l 90 1000 l 56 0 z "},"W":{"ha":939,"x_min":0,"x_max":0,"o":"m 457 371 l 522 693 l 472 371 l 438 0 l 790 0 l 1056 1000 l 776 1000 l 692 638 l 624 231 l 679 639 l 711 1000 l 438 1000 l 343 639 l 251 210 l 328 638 l 378 1000 l 92 1000 l 1 0 l 358 0 z "},"X":{"ha":622,"x_min":0,"x_max":0,"o":"m 267 189 l 310 388 l 289 189 l 300 0 l 574 0 l 514 532 l 738 1000 l 464 1000 l 397 829 l 361 674 l 375 831 l 367 1000 l 94 1000 l 154 535 l -92 0 l 197 0 z "},"Y":{"ha":590,"x_min":0,"x_max":0,"o":"m 364 0 l 417 299 l 717 1000 l 440 1000 l 367 793 l 326 578 l 351 793 l 354 1000 l 81 1000 l 129 269 l 82 0 z "},"Z":{"ha":482,"x_min":0,"x_max":0,"o":"m 400 0 l 444 260 l 278 260 l 532 754 l 575 1000 l 115 1000 l 69 739 l 239 739 l -19 242 l -61 0 z "},"Á":{"ha":604,"x_min":0,"x_max":0,"o":"m 300 431 l 343 635 l 317 431 l 307 296 l 264 296 z m 285 0 l 547 0 l 575 1000 l 229 1000 l -85 0 l 183 0 l 204 76 l 290 76 z m 308 1017 l 493 1017 l 683 1225 l 443 1225 z "},"Ă":{"ha":604,"x_min":0,"x_max":0,"o":"m 300 431 l 343 635 l 317 431 l 307 296 l 264 296 z m 285 0 l 547 0 l 575 1000 l 229 1000 l -85 0 l 183 0 l 204 76 l 290 76 z m 419 1015 b 631 1218 557 1015 604 1072 l 468 1218 b 438 1171 460 1175 457 1171 b 422 1218 415 1171 414 1174 l 260 1218 b 419 1015 233 1075 290 1015 z "},"Â":{"ha":604,"x_min":0,"x_max":0,"o":"m 300 431 l 343 635 l 317 431 l 307 296 l 264 296 z m 285 0 l 547 0 l 575 1000 l 229 1000 l -85 0 l 183 0 l 204 76 l 290 76 z m 435 1017 l 606 1017 l 532 1238 l 371 1238 l 218 1017 l 383 1017 l 422 1083 z "},"Ä":{"ha":604,"x_min":0,"x_max":0,"o":"m 300 431 l 343 635 l 317 431 l 307 296 l 264 296 z m 285 0 l 547 0 l 575 1000 l 229 1000 l -85 0 l 183 0 l 204 76 l 290 76 z m 299 1015 b 417 1115 376 1015 403 1038 b 336 1226 432 1201 408 1226 b 221 1115 264 1226 236 1201 b 299 1015 207 1043 221 1015 z m 515 1015 b 633 1115 592 1015 619 1038 b 553 1226 649 1201 622 1226 b 438 1115 476 1226 453 1201 b 515 1015 424 1039 442 1015 z "},"À":{"ha":604,"x_min":0,"x_max":0,"o":"m 300 431 l 343 635 l 317 431 l 307 296 l 264 296 z m 285 0 l 547 0 l 575 1000 l 229 1000 l -85 0 l 183 0 l 204 76 l 290 76 z m 343 1017 l 510 1017 l 478 1225 l 238 1225 z "},"Ā":{"ha":604,"x_min":0,"x_max":0,"o":"m 300 431 l 343 635 l 317 431 l 307 296 l 264 296 z m 285 0 l 547 0 l 575 1000 l 229 1000 l -85 0 l 183 0 l 204 76 l 290 76 z m 268 1017 l 549 1017 l 581 1197 l 300 1197 z "},"Ʌ":{"ha":604,"x_min":0,"x_max":0,"o":"m 285 340 l 354 700 l 300 340 l 272 0 l 547 0 l 575 1000 l 229 1000 l -85 0 l 196 0 z "},"Ą":{"ha":604,"x_min":0,"x_max":0,"o":"m 300 431 l 343 635 l 317 431 l 307 296 l 264 296 z m 617 -97 l 421 -97 b 394 -142 417 -133 406 -142 b 385 -128 388 -142 383 -139 b 547 0 388 -118 390 -101 l 575 1000 l 229 1000 l -85 0 l 183 0 l 204 76 l 290 76 l 285 0 l 294 0 b 200 -142 228 -51 207 -94 b 358 -296 182 -243 232 -296 b 617 -97 490 -296 579 -233 z "},"Å":{"ha":604,"x_min":0,"x_max":0,"o":"m 300 431 l 343 635 l 317 431 l 307 296 l 264 296 z m 285 0 l 547 0 l 575 1000 l 229 1000 l -85 0 l 183 0 l 204 76 l 290 76 z m 417 1015 b 608 1156 529 1015 592 1063 b 454 1319 625 1253 567 1319 b 261 1174 353 1319 279 1276 b 417 1015 243 1078 307 1015 z m 432 1149 b 413 1167 414 1149 411 1156 b 439 1186 414 1176 421 1186 b 457 1167 457 1186 458 1176 b 432 1149 456 1157 450 1149 z "},"Ǻ":{"ha":604,"x_min":0,"x_max":0,"o":"m 347 1183 l 532 1183 l 722 1392 l 482 1392 z m 406 1000 b 386 1018 388 1000 385 1007 b 413 1038 388 1028 394 1038 b 431 1018 431 1038 432 1028 b 406 1000 429 1008 424 1000 z m 300 431 l 343 635 l 317 431 l 307 296 l 264 296 z m 204 76 l 290 76 l 285 0 l 547 0 l 575 976 b 582 1007 578 986 581 996 b 428 1171 599 1104 540 1171 b 235 1025 326 1171 253 1128 b 232 1000 233 1017 232 1008 l 229 1000 l -85 0 l 183 0 z "},"Ã":{"ha":604,"x_min":0,"x_max":0,"o":"m 300 431 l 343 635 l 317 431 l 307 296 l 264 296 z m 285 0 l 547 0 l 575 1000 l 229 1000 l -85 0 l 183 0 l 204 76 l 290 76 z m 506 1013 b 674 1254 596 1013 639 1056 l 524 1254 b 492 1218 519 1232 513 1218 b 358 1260 458 1218 425 1260 b 189 1017 263 1260 221 1208 l 335 1017 b 369 1060 339 1043 347 1060 b 506 1013 408 1060 440 1013 z "},"Æ":{"ha":808,"x_min":0,"x_max":0,"o":"m 325 407 l 386 672 l 346 397 l 340 281 l 285 281 z m 329 0 l 726 0 l 774 268 l 615 268 l 621 376 l 792 376 l 838 636 l 638 636 l 643 739 l 856 739 l 901 1000 l 261 1000 l -92 0 l 194 0 l 218 74 l 332 74 z "},"Ǽ":{"ha":808,"x_min":0,"x_max":0,"o":"m 325 407 l 386 672 l 346 397 l 340 281 l 285 281 z m 329 0 l 726 0 l 774 268 l 615 268 l 621 376 l 792 376 l 838 636 l 638 636 l 643 739 l 856 739 l 901 1000 l 261 1000 l -92 0 l 194 0 l 218 74 l 332 74 z m 374 1017 l 558 1017 l 749 1225 l 508 1225 z "},"Ć":{"ha":606,"x_min":0,"x_max":0,"o":"m 249 -15 b 571 268 435 -15 532 50 l 606 464 l 328 464 l 297 288 b 274 233 289 238 288 233 b 268 288 258 233 260 238 l 346 725 b 369 779 354 775 356 779 b 375 725 383 779 383 775 l 346 564 l 624 564 l 650 714 b 397 1018 686 922 588 1018 b 71 743 215 1018 106 935 l -8 296 b 249 -15 -47 75 65 -15 z m 314 1035 l 499 1035 l 689 1243 l 449 1243 z "},"Č":{"ha":606,"x_min":0,"x_max":0,"o":"m 249 -15 b 571 268 435 -15 532 50 l 606 464 l 328 464 l 297 288 b 274 233 289 238 288 233 b 268 288 258 233 260 238 l 346 725 b 369 779 354 775 356 779 b 375 725 383 779 383 775 l 346 564 l 624 564 l 650 714 b 397 1018 686 922 588 1018 b 71 743 215 1018 106 935 l -8 296 b 249 -15 -47 75 65 -15 z m 493 1035 l 649 1256 l 482 1256 l 442 1188 l 431 1256 l 257 1256 l 332 1035 z "},"Ç":{"ha":606,"x_min":0,"x_max":0,"o":"m 167 -315 b 403 -162 296 -315 386 -258 b 292 -33 419 -68 374 -40 l 296 -14 b 571 268 451 -3 535 69 l 606 464 l 328 464 l 297 288 b 274 233 289 238 288 233 b 268 288 258 233 260 238 l 346 725 b 369 779 354 775 356 779 b 375 725 383 779 383 775 l 346 564 l 624 564 l 650 714 b 397 1018 686 922 588 1018 b 71 743 215 1018 106 935 l -8 296 b 140 -3 -39 122 24 29 l 117 -135 l 207 -135 b 232 -156 224 -135 235 -140 b 197 -176 229 -167 219 -176 b 164 -149 178 -176 168 -168 l -25 -149 b 167 -315 -29 -271 49 -315 z "},"Ĉ":{"ha":606,"x_min":0,"x_max":0,"o":"m 249 -15 b 571 268 435 -15 532 50 l 606 464 l 328 464 l 297 288 b 274 233 289 238 288 233 b 268 288 258 233 260 238 l 346 725 b 369 779 354 775 356 779 b 375 725 383 779 383 775 l 346 564 l 624 564 l 650 714 b 397 1018 686 922 588 1018 b 71 743 215 1018 106 935 l -8 296 b 249 -15 -47 75 65 -15 z m 440 1031 l 611 1031 l 538 1251 l 376 1251 l 224 1031 l 389 1031 l 428 1097 z "},"Ċ":{"ha":606,"x_min":0,"x_max":0,"o":"m 249 -15 b 571 268 435 -15 532 50 l 606 464 l 328 464 l 297 288 b 274 233 289 238 288 233 b 268 288 258 233 260 238 l 346 725 b 369 779 354 775 356 779 b 375 725 383 779 383 775 l 346 564 l 624 564 l 650 714 b 397 1018 686 922 588 1018 b 71 743 215 1018 106 935 l -8 296 b 249 -15 -47 75 65 -15 z m 411 1033 b 561 1157 510 1033 542 1050 b 456 1283 581 1258 547 1283 b 308 1157 358 1283 328 1267 b 411 1033 292 1068 318 1033 z "},"Ď":{"ha":610,"x_min":0,"x_max":0,"o":"m -57 0 l 228 0 b 574 267 438 0 538 57 l 650 701 b 407 1000 686 910 582 1000 l 118 1000 z m 350 769 b 372 729 374 769 378 764 l 294 286 b 256 238 286 242 281 238 l 349 769 z m 479 1017 l 635 1238 l 468 1238 l 428 1169 l 417 1238 l 243 1238 l 318 1017 z "},"Đ":{"ha":617,"x_min":0,"x_max":0,"o":"m 235 0 b 581 267 444 0 544 57 l 657 701 b 414 1000 693 910 589 1000 l 125 1000 l 60 631 l 40 631 l -1 394 l 19 394 l -50 0 z m 315 394 l 357 631 l 331 631 l 356 769 l 367 769 b 389 729 390 769 394 764 l 311 286 b 272 238 303 242 297 238 l 263 238 l 290 394 z "},"Ð":{"ha":617,"x_min":0,"x_max":0,"o":"m 235 0 b 581 267 444 0 544 57 l 657 701 b 414 1000 693 910 589 1000 l 125 1000 l 60 631 l 40 631 l -1 394 l 19 394 l -50 0 z m 315 394 l 357 631 l 331 631 l 356 769 l 367 769 b 389 729 390 769 394 764 l 311 286 b 272 238 303 242 297 238 l 263 238 l 290 394 z "},"É":{"ha":493,"x_min":0,"x_max":0,"o":"m 458 268 l 260 268 l 278 375 l 476 375 l 522 638 l 324 638 l 342 739 l 540 739 l 586 1000 l 118 1000 l -57 0 l 411 0 z m 263 1017 l 447 1017 l 638 1225 l 397 1225 z "},"Ĕ":{"ha":493,"x_min":0,"x_max":0,"o":"m 458 268 l 260 268 l 278 375 l 476 375 l 522 638 l 324 638 l 342 739 l 540 739 l 586 1000 l 118 1000 l -57 0 l 411 0 z m 374 1015 b 585 1218 511 1015 558 1072 l 422 1218 b 392 1171 414 1175 411 1171 b 376 1218 369 1171 368 1174 l 214 1218 b 374 1015 188 1075 244 1015 z "},"Ě":{"ha":493,"x_min":0,"x_max":0,"o":"m 458 268 l 260 268 l 278 375 l 476 375 l 522 638 l 324 638 l 342 739 l 540 739 l 586 1000 l 118 1000 l -57 0 l 411 0 z m 442 1017 l 597 1238 l 431 1238 l 390 1169 l 379 1238 l 206 1238 l 281 1017 z "},"Ê":{"ha":493,"x_min":0,"x_max":0,"o":"m 458 268 l 260 268 l 278 375 l 476 375 l 522 638 l 324 638 l 342 739 l 540 739 l 586 1000 l 118 1000 l -57 0 l 411 0 z m 389 1017 l 560 1017 l 486 1238 l 325 1238 l 172 1017 l 338 1017 l 376 1083 z "},"Ë":{"ha":493,"x_min":0,"x_max":0,"o":"m 458 268 l 260 268 l 278 375 l 476 375 l 522 638 l 324 638 l 342 739 l 540 739 l 586 1000 l 118 1000 l -57 0 l 411 0 z m 253 1015 b 371 1115 331 1015 357 1038 b 290 1226 386 1201 363 1226 b 175 1115 218 1226 190 1201 b 253 1015 161 1043 175 1015 z m 469 1015 b 588 1115 546 1015 574 1038 b 507 1226 603 1201 576 1226 b 392 1115 431 1226 407 1201 b 469 1015 378 1039 396 1015 z "},"Ė":{"ha":493,"x_min":0,"x_max":0,"o":"m 458 268 l 260 268 l 278 375 l 476 375 l 522 638 l 324 638 l 342 739 l 540 739 l 586 1000 l 118 1000 l -57 0 l 411 0 z m 360 1015 b 510 1139 458 1015 490 1032 b 404 1265 529 1240 496 1265 b 257 1139 307 1265 276 1249 b 360 1015 240 1050 267 1015 z "},"È":{"ha":493,"x_min":0,"x_max":0,"o":"m 458 268 l 260 268 l 278 375 l 476 375 l 522 638 l 324 638 l 342 739 l 540 739 l 586 1000 l 118 1000 l -57 0 l 411 0 z m 297 1017 l 464 1017 l 432 1225 l 192 1225 z "},"Ē":{"ha":493,"x_min":0,"x_max":0,"o":"m 458 268 l 260 268 l 278 375 l 476 375 l 522 638 l 324 638 l 342 739 l 540 739 l 586 1000 l 118 1000 l -57 0 l 411 0 z m 222 1017 l 503 1017 l 535 1197 l 254 1197 z "},"Ę":{"ha":493,"x_min":0,"x_max":0,"o":"m 481 -97 l 285 -97 b 258 -142 281 -133 269 -142 b 249 -128 251 -142 247 -139 b 411 0 251 -118 254 -101 l 458 268 l 260 268 l 278 375 l 476 375 l 522 638 l 324 638 l 342 739 l 540 739 l 586 1000 l 118 1000 l -57 0 l 158 0 b 64 -142 92 -51 71 -94 b 222 -296 46 -243 96 -296 b 481 -97 354 -296 443 -233 z "},"Ğ":{"ha":615,"x_min":0,"x_max":0,"o":"m 307 0 l 531 0 l 635 596 l 343 596 l 296 329 l 336 329 l 329 290 b 288 224 319 236 310 224 b 268 290 264 224 258 236 l 346 725 b 369 779 354 775 356 779 b 375 724 383 779 383 774 l 361 646 l 643 646 l 656 713 b 397 1018 692 925 604 1018 b 71 743 215 1018 106 935 l -12 274 b 139 -15 -50 65 -3 -15 b 319 140 243 -15 290 38 z m 425 1032 b 636 1235 563 1032 610 1089 l 474 1235 b 443 1188 465 1192 463 1188 b 428 1235 421 1188 419 1190 l 265 1235 b 425 1032 239 1092 296 1032 z "},"Ĝ":{"ha":615,"x_min":0,"x_max":0,"o":"m 307 0 l 531 0 l 635 596 l 343 596 l 296 329 l 336 329 l 329 290 b 288 224 319 236 310 224 b 268 290 264 224 258 236 l 346 725 b 369 779 354 775 356 779 b 375 724 383 779 383 774 l 361 646 l 643 646 l 656 713 b 397 1018 692 925 604 1018 b 71 743 215 1018 106 935 l -12 274 b 139 -15 -50 65 -3 -15 b 319 140 243 -15 290 38 z m 440 1031 l 611 1031 l 538 1251 l 376 1251 l 224 1031 l 389 1031 l 428 1097 z "},"Ģ":{"ha":615,"x_min":0,"x_max":0,"o":"m 307 0 l 531 0 l 635 596 l 343 596 l 296 329 l 336 329 l 329 290 b 288 224 319 236 310 224 b 268 290 264 224 258 236 l 346 725 b 369 779 354 775 356 779 b 375 724 383 779 383 774 l 361 646 l 643 646 l 656 713 b 397 1018 692 925 604 1018 b 71 743 215 1018 106 935 l -12 274 b 139 -15 -50 65 -3 -15 b 319 140 243 -15 290 38 z m 75 -303 b 385 -142 272 -303 361 -272 b 260 -17 403 -33 372 -17 b 97 -110 144 -17 110 -35 b 208 -199 83 -189 111 -199 b 257 -194 225 -199 242 -197 b 88 -232 239 -228 185 -232 z "},"Ġ":{"ha":615,"x_min":0,"x_max":0,"o":"m 307 0 l 531 0 l 635 596 l 343 596 l 296 329 l 336 329 l 329 290 b 288 224 319 236 310 224 b 268 290 264 224 258 236 l 346 725 b 369 779 354 775 356 779 b 375 724 383 779 383 774 l 361 646 l 643 646 l 656 713 b 397 1018 692 925 604 1018 b 71 743 215 1018 106 935 l -12 274 b 139 -15 -50 65 -3 -15 b 319 140 243 -15 290 38 z m 411 1032 b 561 1156 510 1032 542 1049 b 456 1282 581 1257 547 1282 b 308 1156 358 1282 328 1265 b 411 1032 292 1067 318 1032 z "},"Ħ":{"ha":613,"x_min":0,"x_max":0,"o":"m 354 590 l 321 590 l 342 707 l 375 707 z m 251 0 l 521 0 l 644 707 l 667 707 l 700 897 l 678 897 l 696 1000 l 426 1000 l 408 897 l 375 897 l 393 1000 l 125 1000 l 107 897 l 85 897 l 51 707 l 74 707 l -50 0 l 218 0 l 283 374 l 317 374 z "},"Ĥ":{"ha":599,"x_min":0,"x_max":0,"o":"m 242 0 l 514 0 l 689 1000 l 417 1000 l 353 632 l 325 632 l 389 1000 l 118 1000 l -57 0 l 214 0 l 279 374 l 307 374 z m 431 1017 l 601 1017 l 528 1238 l 367 1238 l 214 1017 l 379 1017 l 418 1083 z "},"Í":{"ha":313,"x_min":0,"x_max":0,"o":"m -56 0 l 226 0 l 401 1000 l 119 1000 z m 163 1017 l 347 1017 l 538 1225 l 297 1225 z "},"Ĭ":{"ha":313,"x_min":0,"x_max":0,"o":"m -56 0 l 226 0 l 401 1000 l 119 1000 z m 275 1015 b 486 1218 413 1015 460 1072 l 324 1218 b 293 1171 315 1175 313 1171 b 278 1218 271 1171 269 1174 l 115 1218 b 275 1015 89 1075 146 1015 z "},"Î":{"ha":313,"x_min":0,"x_max":0,"o":"m -56 0 l 226 0 l 401 1000 l 119 1000 z m 290 1017 l 461 1017 l 388 1238 l 226 1238 l 74 1017 l 239 1017 l 278 1083 z "},"Ï":{"ha":313,"x_min":0,"x_max":0,"o":"m -56 0 l 226 0 l 401 1000 l 119 1000 z m 154 1015 b 272 1115 232 1015 258 1038 b 192 1226 288 1201 264 1226 b 76 1115 119 1226 92 1201 b 154 1015 63 1043 76 1015 z m 371 1015 b 489 1115 447 1015 475 1038 b 408 1226 504 1201 478 1226 b 293 1115 332 1226 308 1201 b 371 1015 279 1039 297 1015 z "},"İ":{"ha":313,"x_min":0,"x_max":0,"o":"m -56 0 l 226 0 l 401 1000 l 119 1000 z m 261 1015 b 411 1139 360 1015 392 1032 b 306 1265 431 1240 397 1265 b 158 1139 208 1265 178 1249 b 261 1015 142 1050 168 1015 z "},"Ì":{"ha":313,"x_min":0,"x_max":0,"o":"m -56 0 l 226 0 l 401 1000 l 119 1000 z m 199 1017 l 365 1017 l 333 1225 l 93 1225 z "},"Ī":{"ha":313,"x_min":0,"x_max":0,"o":"m -56 0 l 226 0 l 401 1000 l 119 1000 z m 124 1017 l 404 1017 l 436 1197 l 156 1197 z "},"Į":{"ha":313,"x_min":0,"x_max":0,"o":"m 296 -97 l 100 -97 b 74 -142 96 -133 85 -142 b 64 -128 67 -142 63 -139 b 226 0 67 -118 69 -101 l 401 1000 l 119 1000 l -56 0 l -26 0 b -121 -142 -93 -51 -114 -94 b 38 -296 -139 -243 -89 -296 b 296 -97 169 -296 258 -233 z "},"Ĩ":{"ha":313,"x_min":0,"x_max":0,"o":"m -56 0 l 226 0 l 401 1000 l 119 1000 z m 361 1013 b 529 1254 451 1013 494 1056 l 379 1254 b 347 1218 375 1232 368 1218 b 214 1260 314 1218 281 1260 b 44 1017 118 1260 76 1208 l 190 1017 b 225 1060 194 1043 203 1060 b 361 1013 264 1060 296 1013 z "},"Ĵ":{"ha":617,"x_min":0,"x_max":0,"o":"m 264 -15 b 585 297 474 -15 542 71 l 708 1000 l 425 1000 l 301 292 b 276 233 293 242 292 233 b 271 285 261 233 263 239 l 314 529 l 32 529 l -11 301 b 264 -15 -50 81 61 -15 z m 594 1017 l 765 1017 l 692 1238 l 531 1238 l 378 1017 l 543 1017 l 582 1083 z "},"Ķ":{"ha":644,"x_min":0,"x_max":0,"o":"m 279 278 l 300 0 l 592 0 l 532 514 l 761 1000 l 465 1000 l 375 797 l 296 604 l 358 815 l 390 1000 l 119 1000 l -56 0 l 215 0 l 279 365 l 288 392 z m 68 -299 b 378 -137 265 -299 354 -268 b 253 -12 396 -29 365 -12 b 90 -106 138 -12 103 -31 b 201 -194 76 -185 104 -194 b 250 -190 218 -194 235 -193 b 81 -228 232 -224 178 -228 z "},"Ĺ":{"ha":454,"x_min":0,"x_max":0,"o":"m 374 0 l 422 279 l 275 279 l 401 1000 l 118 1000 l -57 0 z m 161 1017 l 346 1017 l 536 1225 l 296 1225 z "},"Ľ":{"ha":454,"x_min":0,"x_max":0,"o":"m 374 0 l 422 279 l 275 279 l 401 1000 l 118 1000 l -57 0 z m 361 769 l 432 769 l 572 1000 l 444 1000 z "},"Ļ":{"ha":454,"x_min":0,"x_max":0,"o":"m 374 0 l 422 279 l 275 279 l 401 1000 l 118 1000 l -57 0 z m -15 -301 b 294 -140 182 -301 271 -271 b 169 -15 313 -32 282 -15 b 7 -108 54 -15 19 -33 b 118 -197 -7 -187 21 -197 b 167 -193 135 -197 151 -196 b -3 -231 149 -226 94 -231 z "},"Ŀ":{"ha":600,"x_min":0,"x_max":0,"o":"m 521 0 l 569 279 l 275 279 l 401 1000 l 118 1000 l -57 0 z m 454 406 b 618 542 563 406 597 424 b 503 679 639 661 610 679 b 340 542 396 679 361 661 b 454 406 319 421 342 406 z "},"Ł":{"ha":458,"x_min":0,"x_max":0,"o":"m 378 0 l 426 279 l 279 279 l 308 444 l 367 460 l 401 660 l 343 644 l 406 1000 l 122 1000 l 47 569 l 28 564 l -7 365 l 13 369 l -53 0 z "},"Ń":{"ha":665,"x_min":0,"x_max":0,"o":"m 247 225 l 267 647 l 272 0 l 581 0 l 756 1000 l 497 1000 l 464 804 l 442 321 l 439 1000 l 118 1000 l -57 0 l 208 0 z m 331 1017 l 515 1017 l 706 1225 l 465 1225 z "},"Ň":{"ha":665,"x_min":0,"x_max":0,"o":"m 247 225 l 267 647 l 272 0 l 581 0 l 756 1000 l 497 1000 l 464 804 l 442 321 l 439 1000 l 118 1000 l -57 0 l 208 0 z m 510 1017 l 665 1238 l 499 1238 l 458 1169 l 447 1238 l 274 1238 l 349 1017 z "},"Ņ":{"ha":665,"x_min":0,"x_max":0,"o":"m 247 225 l 267 647 l 272 0 l 581 0 l 756 1000 l 497 1000 l 464 804 l 442 321 l 439 1000 l 118 1000 l -57 0 l 208 0 z m 83 -300 b 393 -139 281 -300 369 -269 b 268 -14 411 -31 381 -14 b 106 -107 153 -14 118 -32 b 217 -196 92 -186 119 -196 b 265 -192 233 -196 250 -194 b 96 -229 247 -225 193 -229 z "},"Ñ":{"ha":665,"x_min":0,"x_max":0,"o":"m 247 225 l 267 647 l 272 0 l 581 0 l 756 1000 l 497 1000 l 464 804 l 442 321 l 439 1000 l 118 1000 l -57 0 l 208 0 z m 331 1017 l 515 1017 l 706 1225 l 465 1225 z "},"Ŋ":{"ha":665,"x_min":0,"x_max":0,"o":"m 297 -275 b 572 -50 501 -275 540 -237 l 756 1000 l 497 1000 l 464 804 l 442 321 l 439 1000 l 118 1000 l -57 0 l 208 0 l 247 225 l 267 644 l 271 -21 b 246 -26 267 -25 258 -26 l 178 -26 l 133 -275 z "},"Ó":{"ha":608,"x_min":0,"x_max":0,"o":"m 250 -15 b 574 268 432 -15 535 50 l 653 717 b 397 1018 689 921 588 1018 b 71 743 215 1018 106 935 l -8 296 b 250 -15 -47 75 67 -15 z m 274 233 b 268 288 258 233 260 238 l 346 725 b 369 779 354 775 354 779 b 376 725 385 779 385 775 l 299 288 b 274 233 290 238 289 233 z m 513 1022 b 681 1264 603 1022 646 1065 l 531 1264 b 499 1228 526 1242 519 1228 b 365 1269 465 1228 432 1269 b 196 1026 269 1269 228 1218 l 342 1026 b 376 1069 346 1053 354 1069 b 513 1022 415 1069 447 1022 z "},"Ŏ":{"ha":608,"x_min":0,"x_max":0,"o":"m 250 -15 b 574 268 432 -15 535 50 l 653 717 b 397 1018 689 921 588 1018 b 71 743 215 1018 106 935 l -8 296 b 250 -15 -47 75 67 -15 z m 274 233 b 268 288 258 233 260 238 l 346 725 b 369 779 354 775 354 779 b 376 725 385 779 385 775 l 299 288 b 274 233 290 238 289 233 z m 422 1033 b 633 1236 560 1033 607 1090 l 471 1236 b 440 1189 463 1193 460 1189 b 425 1236 418 1189 417 1192 l 263 1236 b 422 1033 236 1093 293 1033 z "},"Ô":{"ha":608,"x_min":0,"x_max":0,"o":"m 250 -15 b 574 268 432 -15 535 50 l 653 717 b 397 1018 689 921 588 1018 b 71 743 215 1018 106 935 l -8 296 b 250 -15 -47 75 67 -15 z m 274 233 b 268 288 258 233 260 238 l 346 725 b 369 779 354 775 354 779 b 376 725 385 779 385 775 l 299 288 b 274 233 290 238 289 233 z m 438 1033 l 608 1033 l 535 1254 l 374 1254 l 221 1033 l 386 1033 l 425 1100 z "},"Ö":{"ha":608,"x_min":0,"x_max":0,"o":"m 250 -15 b 574 268 432 -15 535 50 l 653 717 b 397 1018 689 921 588 1018 b 71 743 215 1018 106 935 l -8 296 b 250 -15 -47 75 67 -15 z m 274 233 b 268 288 258 233 260 238 l 346 725 b 369 779 354 775 354 779 b 376 725 385 779 385 775 l 299 288 b 274 233 290 238 289 233 z m 300 1024 b 418 1124 378 1024 404 1046 b 338 1235 433 1210 410 1235 b 222 1124 265 1235 238 1210 b 300 1024 208 1051 222 1024 z m 517 1024 b 635 1124 593 1024 621 1046 b 554 1235 650 1210 624 1235 b 439 1124 478 1235 454 1210 b 517 1024 425 1047 443 1024 z "},"Ò":{"ha":608,"x_min":0,"x_max":0,"o":"m 250 -15 b 574 268 432 -15 535 50 l 653 717 b 397 1018 689 921 588 1018 b 71 743 215 1018 106 935 l -8 296 b 250 -15 -47 75 67 -15 z m 274 233 b 268 288 258 233 260 238 l 346 725 b 369 779 354 775 354 779 b 376 725 385 779 385 775 l 299 288 b 274 233 290 238 289 233 z m 346 1035 l 513 1035 l 481 1243 l 240 1243 z "},"Ő":{"ha":608,"x_min":0,"x_max":0,"o":"m 250 -15 b 574 268 432 -15 535 50 l 653 717 b 397 1018 689 921 588 1018 b 71 743 215 1018 106 935 l -8 296 b 250 -15 -47 75 67 -15 z m 274 233 b 268 288 258 233 260 238 l 346 725 b 369 779 354 775 354 779 b 376 725 385 779 385 775 l 299 288 b 274 233 290 238 289 233 z m 254 1032 l 381 1032 l 494 1240 l 315 1240 z m 429 1032 l 560 1032 l 703 1240 l 515 1240 z "},"Ō":{"ha":608,"x_min":0,"x_max":0,"o":"m 250 -15 b 574 268 432 -15 535 50 l 653 717 b 397 1018 689 921 588 1018 b 71 743 215 1018 106 935 l -8 296 b 250 -15 -47 75 67 -15 z m 274 233 b 268 288 258 233 260 238 l 346 725 b 369 779 354 775 354 779 b 376 725 385 779 385 775 l 299 288 b 274 233 290 238 289 233 z m 271 1035 l 551 1035 l 583 1215 l 303 1215 z "},"Ø":{"ha":608,"x_min":0,"x_max":0,"o":"m 240 -156 l 297 -14 b 574 268 450 -3 538 69 l 653 717 b 622 929 669 810 657 881 l 707 1126 l 432 1126 l 389 1018 b 71 743 213 1015 106 932 l -8 296 b 49 47 -29 178 -6 96 l -39 -156 z m 274 233 b 268 288 258 233 260 238 l 346 725 b 369 779 354 775 354 779 b 376 725 385 779 385 775 l 299 288 b 274 233 290 238 289 233 z "},"Ǿ":{"ha":608,"x_min":0,"x_max":0,"o":"m 240 -156 l 297 -14 b 574 268 450 -3 538 69 l 653 717 b 622 929 669 810 657 881 l 707 1126 l 432 1126 l 389 1018 b 71 743 213 1015 106 932 l -8 296 b 49 47 -29 178 -6 96 l -39 -156 z m 274 233 b 268 288 258 233 260 238 l 346 725 b 369 779 354 775 354 779 b 376 725 385 779 385 775 l 299 288 b 274 233 290 238 289 233 z m 360 1139 l 544 1139 l 735 1347 l 494 1347 z "},"Õ":{"ha":608,"x_min":0,"x_max":0,"o":"m 250 -15 b 574 268 432 -15 535 50 l 653 717 b 397 1018 689 921 588 1018 b 71 743 215 1018 106 935 l -8 296 b 250 -15 -47 75 67 -15 z m 274 233 b 268 288 258 233 260 238 l 346 725 b 369 779 354 775 354 779 b 376 725 385 779 385 775 l 299 288 b 274 233 290 238 289 233 z m 511 1022 b 679 1264 601 1022 644 1065 l 529 1264 b 497 1228 525 1242 518 1228 b 364 1269 464 1228 431 1269 b 194 1026 268 1269 226 1218 l 340 1026 b 375 1069 344 1053 353 1069 b 511 1022 414 1069 446 1022 z "},"Œ":{"ha":800,"x_min":0,"x_max":0,"o":"m 279 233 b 274 288 264 233 265 238 l 351 725 b 375 779 360 775 360 779 b 382 725 390 779 390 775 l 304 288 b 279 233 296 238 294 233 z m 250 0 l 718 0 l 765 268 l 567 268 l 585 375 l 783 375 l 829 638 l 632 638 l 650 739 l 847 739 l 893 1000 l 425 1000 l 415 943 b 301 1018 406 1001 371 1018 b 67 721 168 1018 103 929 b -10 286 67 719 -10 286 b 124 -14 -47 78 -25 -14 b 261 65 193 -14 233 13 z "},"Ŕ":{"ha":586,"x_min":0,"x_max":0,"o":"m 351 775 b 374 742 374 775 378 768 l 347 597 b 311 563 343 574 336 564 l 349 775 z m 293 297 l 254 75 b 260 0 247 35 244 7 l 522 0 b 515 76 507 15 507 31 l 554 293 b 485 458 571 390 565 438 b 615 624 565 474 596 515 l 640 765 b 414 1000 671 942 599 1000 l 118 1000 l -57 0 l 213 0 l 272 340 b 293 297 293 339 299 332 z m 313 1017 l 497 1017 l 688 1225 l 447 1225 z "},"Ř":{"ha":586,"x_min":0,"x_max":0,"o":"m 351 775 b 374 742 374 775 378 768 l 347 597 b 311 563 343 574 336 564 l 349 775 z m 293 297 l 254 75 b 260 0 247 35 244 7 l 522 0 b 515 76 507 15 507 31 l 554 293 b 485 458 571 390 565 438 b 615 624 565 474 596 515 l 640 765 b 414 1000 671 942 599 1000 l 118 1000 l -57 0 l 213 0 l 272 340 b 293 297 293 339 299 332 z m 492 1017 l 647 1238 l 481 1238 l 440 1169 l 429 1238 l 256 1238 l 331 1017 z "},"Ŗ":{"ha":586,"x_min":0,"x_max":0,"o":"m 351 775 b 374 742 374 775 378 768 l 347 597 b 311 563 343 574 336 564 l 349 775 z m 293 297 l 254 75 b 260 0 247 35 244 7 l 522 0 b 515 76 507 15 507 31 l 554 293 b 485 458 571 390 565 438 b 615 624 565 474 596 515 l 640 765 b 414 1000 671 942 599 1000 l 118 1000 l -57 0 l 213 0 l 272 340 b 293 297 293 339 299 332 z m 51 -301 b 361 -140 249 -301 338 -271 b 236 -15 379 -32 349 -15 b 74 -108 121 -15 86 -33 b 185 -197 60 -187 88 -197 b 233 -193 201 -197 218 -196 b 64 -231 215 -226 161 -231 z "},"Ś":{"ha":600,"x_min":0,"x_max":0,"o":"m 242 -15 b 561 231 425 -15 526 38 l 576 318 b 432 599 599 442 569 513 b 340 696 338 657 333 661 l 353 767 b 372 800 358 797 361 800 b 379 763 385 800 385 794 l 360 653 l 631 653 l 647 743 b 394 1018 683 939 593 1018 b 72 765 213 1018 106 949 l 65 726 b 200 442 40 586 65 526 b 300 315 307 376 310 371 l 288 251 b 267 218 283 221 276 218 b 258 247 257 218 254 222 l 282 379 l 1 379 l -21 256 b 242 -15 -57 51 58 -15 z m 314 1036 l 499 1036 l 689 1244 l 449 1244 z "},"Š":{"ha":600,"x_min":0,"x_max":0,"o":"m 242 -15 b 561 231 425 -15 526 38 l 576 318 b 432 599 599 442 569 513 b 340 696 338 657 333 661 l 353 767 b 372 800 358 797 361 800 b 379 763 385 800 385 794 l 360 653 l 631 653 l 647 743 b 394 1018 683 939 593 1018 b 72 765 213 1018 106 949 l 65 726 b 200 442 40 586 65 526 b 300 315 307 376 310 371 l 288 251 b 267 218 283 221 276 218 b 258 247 257 218 254 222 l 282 379 l 1 379 l -21 256 b 242 -15 -57 51 58 -15 z m 493 1036 l 649 1257 l 482 1257 l 442 1189 l 431 1257 l 257 1257 l 332 1036 z "},"Ş":{"ha":600,"x_min":0,"x_max":0,"o":"m 165 -315 b 401 -162 294 -315 385 -258 b 290 -33 418 -68 372 -40 l 294 -14 b 561 231 444 -3 529 57 l 576 318 b 432 599 599 442 569 513 b 340 696 338 657 333 661 l 353 767 b 372 800 358 797 361 800 b 379 763 385 800 385 794 l 360 653 l 631 653 l 647 743 b 394 1018 683 939 593 1018 b 72 765 213 1018 106 949 l 65 726 b 200 442 40 586 65 526 b 300 315 307 376 310 371 l 288 251 b 267 218 283 221 276 218 b 258 247 257 218 254 222 l 282 379 l 1 379 l -21 256 b 139 -7 -50 93 18 18 l 115 -135 l 206 -135 b 231 -156 222 -135 233 -140 b 196 -176 228 -167 218 -176 b 163 -149 176 -176 167 -168 l -26 -149 b 165 -315 -31 -271 47 -315 z "},"Ŝ":{"ha":600,"x_min":0,"x_max":0,"o":"m 242 -15 b 561 231 425 -15 526 38 l 576 318 b 432 599 599 442 569 513 b 340 696 338 657 333 661 l 353 767 b 372 800 358 797 361 800 b 379 763 385 800 385 794 l 360 653 l 631 653 l 647 743 b 394 1018 683 939 593 1018 b 72 765 213 1018 106 949 l 65 726 b 200 442 40 586 65 526 b 300 315 307 376 310 371 l 288 251 b 267 218 283 221 276 218 b 258 247 257 218 254 222 l 282 379 l 1 379 l -21 256 b 242 -15 -57 51 58 -15 z m 440 1033 l 611 1033 l 538 1254 l 376 1254 l 224 1033 l 389 1033 l 428 1100 z "},"Ș":{"ha":600,"x_min":0,"x_max":0,"o":"m 242 -15 b 561 231 425 -15 526 38 l 576 318 b 432 599 599 442 569 513 b 340 696 338 657 333 661 l 353 767 b 372 800 358 797 361 800 b 379 763 385 800 385 794 l 360 653 l 631 653 l 647 743 b 394 1018 683 939 593 1018 b 72 765 213 1018 106 949 l 65 726 b 200 442 40 586 65 526 b 300 315 307 376 310 371 l 288 251 b 267 218 283 221 276 218 b 258 247 257 218 254 222 l 282 379 l 1 379 l -21 256 b 242 -15 -57 51 58 -15 z m 38 -318 b 347 -157 235 -318 324 -287 b 222 -32 365 -49 335 -32 b 60 -125 107 -32 72 -50 b 171 -214 46 -204 74 -214 b 219 -210 188 -214 204 -212 b 50 -247 201 -243 147 -247 z "},"Ŧ":{"ha":506,"x_min":0,"x_max":0,"o":"m 451 335 l 496 585 l 425 585 l 453 740 l 556 740 l 601 1000 l 113 1000 l 67 740 l 172 740 l 144 585 l 71 585 l 26 335 l 100 335 l 42 0 l 322 0 l 381 335 z "},"Ť":{"ha":506,"x_min":0,"x_max":0,"o":"m 556 740 l 601 1000 l 113 1000 l 67 740 l 172 740 l 42 0 l 322 0 l 453 740 z m 446 1017 l 601 1238 l 435 1238 l 394 1169 l 383 1238 l 210 1238 l 285 1017 z "},"Ţ":{"ha":506,"x_min":0,"x_max":0,"o":"m 556 740 l 601 1000 l 113 1000 l 67 740 l 172 740 l 42 0 l 322 0 l 453 740 z m -7 -301 b 303 -140 190 -301 279 -271 b 178 -15 321 -32 290 -15 b 15 -108 63 -15 28 -33 b 126 -197 1 -187 29 -197 b 175 -193 143 -197 160 -196 b 6 -231 157 -226 103 -231 z "},"Ú":{"ha":604,"x_min":0,"x_max":0,"o":"m 246 -15 b 568 278 436 -15 529 60 l 696 1000 l 419 1000 l 296 299 b 274 247 288 249 286 247 b 268 299 261 247 260 250 l 392 1000 l 117 1000 l -7 296 b 246 -15 -46 75 63 -15 z m 308 1017 l 493 1017 l 683 1225 l 443 1225 z "},"Ŭ":{"ha":604,"x_min":0,"x_max":0,"o":"m 246 -15 b 568 278 436 -15 529 60 l 696 1000 l 419 1000 l 296 299 b 274 247 288 249 286 247 b 268 299 261 247 260 250 l 392 1000 l 117 1000 l -7 296 b 246 -15 -46 75 63 -15 z m 419 1015 b 631 1218 557 1015 604 1072 l 468 1218 b 438 1171 460 1175 457 1171 b 422 1218 415 1171 414 1174 l 260 1218 b 419 1015 233 1075 290 1015 z "},"Û":{"ha":604,"x_min":0,"x_max":0,"o":"m 246 -15 b 568 278 436 -15 529 60 l 696 1000 l 419 1000 l 296 299 b 274 247 288 249 286 247 b 268 299 261 247 260 250 l 392 1000 l 117 1000 l -7 296 b 246 -15 -46 75 63 -15 z m 435 1017 l 606 1017 l 532 1238 l 371 1238 l 218 1017 l 383 1017 l 422 1083 z "},"Ü":{"ha":604,"x_min":0,"x_max":0,"o":"m 246 -15 b 568 278 436 -15 529 60 l 696 1000 l 419 1000 l 296 299 b 274 247 288 249 286 247 b 268 299 261 247 260 250 l 392 1000 l 117 1000 l -7 296 b 246 -15 -46 75 63 -15 z m 299 1015 b 417 1115 376 1015 403 1038 b 336 1226 432 1201 408 1226 b 221 1115 264 1226 236 1201 b 299 1015 207 1043 221 1015 z m 515 1015 b 633 1115 592 1015 619 1038 b 553 1226 649 1201 622 1226 b 438 1115 476 1226 453 1201 b 515 1015 424 1039 442 1015 z "},"Ù":{"ha":604,"x_min":0,"x_max":0,"o":"m 246 -15 b 568 278 436 -15 529 60 l 696 1000 l 419 1000 l 296 299 b 274 247 288 249 286 247 b 268 299 261 247 260 250 l 392 1000 l 117 1000 l -7 296 b 246 -15 -46 75 63 -15 z m 343 1017 l 510 1017 l 478 1225 l 238 1225 z "},"Ű":{"ha":604,"x_min":0,"x_max":0,"o":"m 246 -15 b 568 278 436 -15 529 60 l 696 1000 l 419 1000 l 296 299 b 274 247 288 249 286 247 b 268 299 261 247 260 250 l 392 1000 l 117 1000 l -7 296 b 246 -15 -46 75 63 -15 z m 251 1017 l 378 1017 l 492 1225 l 313 1225 z m 426 1017 l 557 1017 l 700 1225 l 513 1225 z "},"Ū":{"ha":604,"x_min":0,"x_max":0,"o":"m 246 -15 b 568 278 436 -15 529 60 l 696 1000 l 419 1000 l 296 299 b 274 247 288 249 286 247 b 268 299 261 247 260 250 l 392 1000 l 117 1000 l -7 296 b 246 -15 -46 75 63 -15 z m 268 1017 l 549 1017 l 581 1197 l 300 1197 z "},"Ų":{"ha":604,"x_min":0,"x_max":0,"o":"m 213 -274 b 471 -75 344 -274 433 -211 l 275 -75 b 249 -119 271 -111 260 -119 b 239 -106 242 -119 238 -117 b 364 -1 242 -97 244 -82 b 568 278 476 28 539 111 l 696 1000 l 419 1000 l 296 299 b 274 247 288 249 286 247 b 268 299 261 247 260 250 l 392 1000 l 117 1000 l -7 296 b 125 1 -36 129 18 38 b 54 -119 76 -42 60 -79 b 213 -274 36 -221 86 -274 z "},"Ů":{"ha":604,"x_min":0,"x_max":0,"o":"m 246 -15 b 568 278 436 -15 529 60 l 696 1000 l 419 1000 l 296 299 b 274 247 288 249 286 247 b 268 299 261 247 260 250 l 392 1000 l 117 1000 l -7 296 b 246 -15 -46 75 63 -15 z m 419 1015 b 611 1156 532 1015 594 1063 b 457 1319 628 1253 569 1319 b 264 1174 356 1319 282 1276 b 419 1015 246 1078 310 1015 z m 435 1149 b 415 1167 417 1149 414 1156 b 442 1186 417 1176 424 1186 b 460 1167 460 1186 461 1176 b 435 1149 458 1157 453 1149 z "},"Ũ":{"ha":604,"x_min":0,"x_max":0,"o":"m 246 -15 b 568 278 436 -15 529 60 l 696 1000 l 419 1000 l 296 299 b 274 247 288 249 286 247 b 268 299 261 247 260 250 l 392 1000 l 117 1000 l -7 296 b 246 -15 -46 75 63 -15 z m 506 1013 b 674 1254 596 1013 639 1056 l 524 1254 b 492 1218 519 1232 513 1218 b 358 1260 458 1218 425 1260 b 189 1017 263 1260 221 1208 l 335 1017 b 369 1060 339 1043 347 1060 b 506 1013 408 1060 440 1013 z "},"Ẃ":{"ha":939,"x_min":0,"x_max":0,"o":"m 457 371 l 522 693 l 472 371 l 438 0 l 790 0 l 1056 1000 l 776 1000 l 692 638 l 624 231 l 679 639 l 711 1000 l 438 1000 l 343 639 l 251 210 l 328 638 l 378 1000 l 92 1000 l 1 0 l 358 0 z m 474 1017 l 658 1017 l 849 1225 l 608 1225 z "},"Ŵ":{"ha":939,"x_min":0,"x_max":0,"o":"m 457 371 l 522 693 l 472 371 l 438 0 l 790 0 l 1056 1000 l 776 1000 l 692 638 l 624 231 l 679 639 l 711 1000 l 438 1000 l 343 639 l 251 210 l 328 638 l 378 1000 l 92 1000 l 1 0 l 358 0 z m 600 1017 l 771 1017 l 697 1238 l 536 1238 l 383 1017 l 549 1017 l 588 1083 z "},"Ẅ":{"ha":939,"x_min":0,"x_max":0,"o":"m 457 371 l 522 693 l 472 371 l 438 0 l 790 0 l 1056 1000 l 776 1000 l 692 638 l 624 231 l 679 639 l 711 1000 l 438 1000 l 343 639 l 251 210 l 328 638 l 378 1000 l 92 1000 l 1 0 l 358 0 z m 464 1015 b 582 1115 542 1015 568 1038 b 501 1226 597 1201 574 1226 b 386 1115 429 1226 401 1201 b 464 1015 372 1043 386 1015 z m 681 1015 b 799 1115 757 1015 785 1038 b 718 1226 814 1201 788 1226 b 603 1115 642 1226 618 1201 b 681 1015 589 1039 607 1015 z "},"Ẁ":{"ha":939,"x_min":0,"x_max":0,"o":"m 457 371 l 522 693 l 472 371 l 438 0 l 790 0 l 1056 1000 l 776 1000 l 692 638 l 624 231 l 679 639 l 711 1000 l 438 1000 l 343 639 l 251 210 l 328 638 l 378 1000 l 92 1000 l 1 0 l 358 0 z m 508 1017 l 675 1017 l 643 1225 l 403 1225 z "},"Ý":{"ha":590,"x_min":0,"x_max":0,"o":"m 364 0 l 417 299 l 717 1000 l 440 1000 l 367 793 l 326 578 l 351 793 l 354 1000 l 81 1000 l 129 269 l 82 0 z m 301 1017 l 486 1017 l 676 1225 l 436 1225 z "},"Ŷ":{"ha":590,"x_min":0,"x_max":0,"o":"m 364 0 l 417 299 l 717 1000 l 440 1000 l 367 793 l 326 578 l 351 793 l 354 1000 l 81 1000 l 129 269 l 82 0 z m 428 1017 l 599 1017 l 525 1238 l 364 1238 l 211 1017 l 376 1017 l 415 1083 z "},"Ÿ":{"ha":590,"x_min":0,"x_max":0,"o":"m 364 0 l 417 299 l 717 1000 l 440 1000 l 367 793 l 326 578 l 351 793 l 354 1000 l 81 1000 l 129 269 l 82 0 z m 292 1015 b 410 1115 369 1015 396 1038 b 329 1226 425 1201 401 1226 b 214 1115 257 1226 229 1201 b 292 1015 200 1043 214 1015 z m 508 1015 b 626 1115 585 1015 613 1038 b 546 1226 642 1201 615 1226 b 431 1115 469 1226 446 1201 b 508 1015 417 1039 435 1015 z "},"Ỳ":{"ha":590,"x_min":0,"x_max":0,"o":"m 364 0 l 417 299 l 717 1000 l 440 1000 l 367 793 l 326 578 l 351 793 l 354 1000 l 81 1000 l 129 269 l 82 0 z m 336 1017 l 503 1017 l 471 1225 l 231 1225 z "},"Ĳ":{"ha":650,"x_min":0,"x_max":0,"o":"m 249 0 l 338 0 b 615 289 533 0 569 25 l 742 1004 l 460 1004 l 333 288 b 303 256 328 257 326 256 l 293 256 z m -56 0 l 226 0 l 401 1000 l 119 1000 z "},"Ź":{"ha":482,"x_min":0,"x_max":0,"o":"m 400 0 l 444 260 l 278 260 l 532 754 l 575 1000 l 115 1000 l 69 739 l 239 739 l -19 242 l -61 0 z m 244 1017 l 429 1017 l 619 1225 l 379 1225 z "},"Ž":{"ha":482,"x_min":0,"x_max":0,"o":"m 400 0 l 444 260 l 278 260 l 532 754 l 575 1000 l 115 1000 l 69 739 l 239 739 l -19 242 l -61 0 z m 438 1017 l 593 1238 l 426 1238 l 386 1169 l 375 1238 l 201 1238 l 276 1017 z "},"Ż":{"ha":482,"x_min":0,"x_max":0,"o":"m 400 0 l 444 260 l 278 260 l 532 754 l 575 1000 l 115 1000 l 69 739 l 239 739 l -19 242 l -61 0 z m 353 1015 b 503 1139 451 1015 483 1032 b 397 1265 522 1240 489 1265 b 250 1139 300 1265 269 1249 b 353 1015 233 1050 260 1015 z "},"Þ":{"ha":594,"x_min":0,"x_max":0,"o":"m 351 631 l 308 386 b 269 344 303 357 290 346 l 326 669 b 351 631 350 669 354 653 z m 242 110 b 579 361 467 110 547 176 l 625 626 b 382 892 657 808 594 892 l 365 892 l 385 1000 l 118 1000 l -57 0 l 210 0 l 229 110 z "},"a":{"ha":604,"x_min":0,"x_max":0,"o":"m 260 185 b 249 213 244 185 246 193 l 268 319 b 283 350 272 340 275 344 b 303 361 292 356 299 357 b 307 364 306 364 306 364 l 279 210 b 260 185 276 193 269 185 z m 401 0 l 528 0 l 565 215 l 557 215 b 539 246 539 215 535 221 l 600 574 b 357 825 633 750 556 825 b 46 582 161 825 76 753 l 29 488 l 299 488 l 317 585 b 336 617 321 613 325 617 b 346 588 347 617 350 613 l 338 543 b 257 468 329 489 322 483 b 57 396 165 446 106 432 b -21 238 15 364 -6 325 l -32 175 b 100 -10 -58 38 -6 -10 b 263 93 178 -10 231 19 b 401 0 267 14 324 0 z "},"b":{"ha":592,"x_min":0,"x_max":0,"o":"m 349 -11 b 557 272 474 -11 521 69 l 604 540 b 485 822 643 760 596 822 b 336 703 415 822 369 785 l 400 1067 l 131 1067 l -57 0 l 179 0 l 225 111 b 349 -11 229 38 264 -11 z m 261 213 b 258 268 253 213 247 213 l 303 526 b 332 603 315 596 318 603 b 335 535 346 603 346 593 l 290 282 b 261 213 279 214 274 213 z "},"c":{"ha":582,"x_min":0,"x_max":0,"o":"m 242 -15 b 546 257 432 -15 508 51 l 567 376 l 300 376 l 278 251 b 257 213 272 215 268 213 b 250 251 246 213 244 215 l 306 563 b 326 603 313 600 315 603 b 333 563 338 603 340 600 l 313 444 l 579 444 l 594 532 b 353 824 629 728 544 824 b 38 558 179 824 71 743 l -11 283 b 242 -15 -49 71 57 -15 z "},"d":{"ha":592,"x_min":0,"x_max":0,"o":"m 263 213 b 258 282 250 213 247 214 l 303 535 b 331 603 314 593 317 603 b 332 526 344 603 344 596 l 288 268 b 263 213 276 213 271 213 z m 276 0 l 507 0 l 694 1067 l 425 1067 l 363 714 b 233 822 354 786 315 822 b 38 553 140 822 76 768 l -11 281 b 113 -11 -51 58 -12 -11 b 268 117 206 -11 244 42 z "},"e":{"ha":585,"x_min":0,"x_max":0,"o":"m 301 547 b 331 608 310 599 314 608 b 338 556 346 608 346 603 l 326 489 l 292 489 z m 549 261 l 558 315 l 292 315 l 285 275 b 257 206 274 208 269 206 b 251 261 244 206 243 210 l 267 346 l 564 346 l 597 535 b 350 824 632 731 550 824 b 38 558 176 824 71 747 l -11 283 b 242 -15 -49 71 57 -15 b 549 261 432 -15 515 54 z "},"f":{"ha":419,"x_min":0,"x_max":0,"o":"m 436 542 l 482 813 l 393 813 l 394 819 b 431 850 399 843 404 850 l 489 850 l 536 1118 l 443 1118 b 150 878 232 1118 181 1054 l 139 813 l 79 813 l 31 542 l 90 542 l -4 0 l 272 0 l 367 542 z "},"g":{"ha":593,"x_min":0,"x_max":0,"o":"m 515 -37 l 515 -35 b 289 196 540 107 486 196 l 208 196 b 150 206 157 196 147 196 b 194 218 151 215 160 218 l 283 218 b 588 449 489 218 557 274 l 613 589 b 463 804 635 714 586 783 b 686 925 621 797 668 822 l 690 949 l 406 949 l 397 903 b 317 821 385 832 379 825 l 292 819 b 43 585 147 811 72 750 l 19 450 b 143 254 -1 332 40 269 b -42 121 49 243 -26 208 b 72 -14 -54 46 -32 -1 b -99 -115 -36 -21 -89 -58 b 135 -257 -112 -192 -81 -257 l 139 -257 b 515 -37 374 -257 486 -199 z m 293 400 b 282 432 281 400 278 407 l 313 606 b 335 640 318 635 321 640 b 344 607 347 640 350 636 l 314 431 b 293 400 310 408 304 400 z m 182 -44 b 135 -31 149 -44 132 -42 b 181 -17 138 -19 149 -17 l 251 -17 b 279 -31 272 -17 282 -21 b 235 -44 276 -40 265 -44 z "},"h":{"ha":599,"x_min":0,"x_max":0,"o":"m 310 547 b 335 592 317 588 322 592 b 339 547 346 592 346 588 l 243 0 l 514 0 l 618 597 b 497 822 646 754 614 822 b 338 700 419 822 368 778 l 403 1067 l 131 1067 l -57 0 l 214 0 z "},"i":{"ha":308,"x_min":0,"x_max":0,"o":"m 221 794 b 393 935 340 794 374 824 b 269 1074 413 1046 386 1074 b 101 935 156 1074 121 1046 b 221 794 82 819 106 794 z m -57 0 l 224 0 l 365 811 b 218 771 335 783 304 771 b 85 810 132 771 104 783 z "},"j":{"ha":308,"x_min":0,"x_max":0,"o":"m 221 794 b 393 935 344 794 374 824 b 271 1074 413 1042 388 1074 b 101 935 153 1074 121 1046 b 221 794 82 819 106 794 z m -208 -276 l -60 -276 b 214 -49 110 -276 185 -218 l 365 811 b 218 771 335 783 304 771 b 85 810 132 771 104 783 l -57 7 b -92 -26 -61 -21 -68 -26 l -164 -26 z "},"k":{"ha":610,"x_min":0,"x_max":0,"o":"m 257 229 l 275 0 l 543 0 l 499 422 l 683 813 l 410 813 l 339 658 l 275 489 l 324 665 l 394 1067 l 131 1067 l -57 0 l 207 0 l 268 347 l 271 361 z "},"l":{"ha":307,"x_min":0,"x_max":0,"o":"m -57 0 l 222 0 l 410 1067 l 131 1067 z "},"m":{"ha":904,"x_min":0,"x_max":0,"o":"m 311 547 b 333 589 317 582 321 589 b 340 547 346 589 347 586 l 244 0 l 514 0 l 610 547 b 633 589 615 582 619 589 b 640 547 646 589 647 586 l 544 0 l 819 0 l 924 596 b 786 822 949 738 911 822 b 619 703 708 822 654 782 b 486 822 613 785 564 822 b 318 708 407 822 351 782 l 308 813 l 86 813 l -57 0 l 215 0 z "},"n":{"ha":601,"x_min":0,"x_max":0,"o":"m 313 547 b 335 592 319 588 322 592 b 342 547 347 592 349 588 l 246 0 l 517 0 l 621 597 b 489 822 649 754 596 822 b 319 706 401 822 350 781 l 310 813 l 86 813 l -57 0 l 217 0 z "},"o":{"ha":586,"x_min":0,"x_max":0,"o":"m 244 -15 b 549 257 426 -15 511 51 l 597 533 b 351 824 632 729 535 824 b 38 558 178 824 71 743 l -11 283 b 244 -15 -49 71 64 -15 z m 258 213 b 250 251 247 213 244 215 l 306 563 b 328 603 313 600 317 603 b 336 563 339 603 343 600 l 281 251 b 258 213 275 215 269 213 z "},"p":{"ha":590,"x_min":0,"x_max":0,"o":"m 258 213 b 256 268 250 213 244 213 l 300 526 b 329 603 313 596 315 603 b 332 535 343 603 343 593 l 288 282 b 258 213 276 214 271 213 z m 344 -11 b 557 281 478 -11 521 72 l 603 542 b 483 822 640 753 594 822 b 331 710 411 822 364 789 l 329 813 l 86 813 l -100 -244 l 164 -244 l 228 115 b 344 -11 228 40 256 -11 z "},"q":{"ha":592,"x_min":0,"x_max":0,"o":"m 463 -244 l 650 813 l 421 813 l 372 707 b 240 822 365 793 319 822 b 39 553 140 822 78 772 l -10 281 b 114 -11 -49 58 -18 -11 b 258 100 200 -11 238 35 l 197 -244 z m 264 213 b 260 282 251 213 249 214 l 304 535 b 332 603 315 593 318 603 b 333 526 346 603 346 596 l 289 268 b 264 213 278 213 272 213 z "},"r":{"ha":410,"x_min":0,"x_max":0,"o":"m 222 0 l 289 379 b 367 443 299 432 307 443 l 406 443 l 472 821 l 454 821 b 292 632 339 821 321 799 l 290 619 l 294 813 l 86 813 l -57 0 z "},"s":{"ha":582,"x_min":0,"x_max":0,"o":"m 240 -18 b 546 218 451 -18 521 79 l 547 226 b 392 507 571 356 525 438 b 307 594 311 549 303 567 b 333 625 311 618 318 625 b 346 576 350 625 353 614 l 340 543 l 601 543 l 608 582 b 353 826 632 717 571 826 b 40 610 171 826 68 757 l 39 603 b 185 335 18 479 54 401 b 286 238 282 286 293 279 b 257 204 281 210 274 204 b 243 235 243 204 240 214 l 254 293 l -17 293 l -25 244 b 240 -18 -54 79 17 -18 z "},"t":{"ha":406,"x_min":0,"x_max":0,"o":"m 371 260 l 357 260 b 313 318 307 260 303 267 l 351 542 l 421 542 l 469 813 l 400 813 l 425 956 l 179 956 b 151 846 168 897 163 872 b 118 813 144 829 132 817 b 76 808 107 810 99 808 l 29 542 l 86 542 l 29 222 b 228 0 0 57 50 0 l 326 0 z "},"u":{"ha":593,"x_min":0,"x_max":0,"o":"m 289 0 l 508 0 l 651 813 l 383 813 l 286 267 b 264 222 281 233 278 222 b 258 264 253 222 253 229 l 356 813 l 85 813 l -21 218 b 114 -12 -50 54 -11 -12 b 278 107 197 -12 247 25 z "},"v":{"ha":579,"x_min":0,"x_max":0,"o":"m 411 0 l 668 813 l 393 813 l 321 533 l 250 196 l 303 533 l 328 813 l 56 813 l 26 0 z "},"w":{"ha":867,"x_min":0,"x_max":0,"o":"m 399 251 l 451 496 l 413 251 l 404 0 l 721 0 l 956 813 l 699 813 l 614 475 l 569 231 l 601 474 l 638 813 l 386 813 l 294 471 l 236 228 l 283 476 l 326 813 l 56 813 l 0 0 l 332 0 z "},"x":{"ha":622,"x_min":0,"x_max":0,"o":"m 263 164 l 301 336 l 281 164 l 293 0 l 572 0 l 529 438 l 701 813 l 418 813 l 367 672 l 328 501 l 350 672 l 349 813 l 68 813 l 106 435 l -92 0 l 200 0 z "},"y":{"ha":589,"x_min":0,"x_max":0,"o":"m 15 -271 b 383 3 226 -271 292 -247 l 678 813 l 404 813 l 343 614 l 274 285 l 325 615 l 333 813 l 56 813 l 83 19 b 18 -22 71 -19 63 -22 l -39 -22 l -82 -271 z "},"z":{"ha":450,"x_min":0,"x_max":0,"o":"m 371 0 l 414 244 l 274 244 l 475 596 l 514 813 l 81 813 l 39 581 l 186 581 l -26 213 l -62 0 z "},"á":{"ha":604,"x_min":0,"x_max":0,"o":"m 260 185 b 249 213 244 185 246 193 l 268 319 b 283 350 272 340 275 344 b 303 361 292 356 299 357 b 307 364 306 364 306 364 l 279 210 b 260 185 276 193 269 185 z m 401 0 l 528 0 l 565 215 l 557 215 b 539 246 539 215 535 221 l 600 574 b 357 825 633 750 556 825 b 46 582 161 825 76 753 l 29 488 l 299 488 l 317 585 b 336 617 321 613 325 617 b 346 588 347 617 350 613 l 338 543 b 257 468 329 489 322 483 b 57 396 165 446 106 432 b -21 238 15 364 -6 325 l -32 175 b 100 -10 -58 38 -6 -10 b 263 93 178 -10 231 19 b 401 0 267 14 324 0 z m 275 842 l 460 842 l 650 1050 l 410 1050 z "},"ă":{"ha":604,"x_min":0,"x_max":0,"o":"m 260 185 b 249 213 244 185 246 193 l 268 319 b 283 350 272 340 275 344 b 303 361 292 356 299 357 b 307 364 306 364 306 364 l 279 210 b 260 185 276 193 269 185 z m 401 0 l 528 0 l 565 215 l 557 215 b 539 246 539 215 535 221 l 600 574 b 357 825 633 750 556 825 b 46 582 161 825 76 753 l 29 488 l 299 488 l 317 585 b 336 617 321 613 325 617 b 346 588 347 617 350 613 l 338 543 b 257 468 329 489 322 483 b 57 396 165 446 106 432 b -21 238 15 364 -6 325 l -32 175 b 100 -10 -58 38 -6 -10 b 263 93 178 -10 231 19 b 401 0 267 14 324 0 z m 386 840 b 597 1043 524 840 571 897 l 435 1043 b 404 996 426 1000 424 996 b 389 1043 382 996 381 999 l 226 1043 b 386 840 200 900 257 840 z "},"â":{"ha":604,"x_min":0,"x_max":0,"o":"m 260 185 b 249 213 244 185 246 193 l 268 319 b 283 350 272 340 275 344 b 303 361 292 356 299 357 b 307 364 306 364 306 364 l 279 210 b 260 185 276 193 269 185 z m 401 0 l 528 0 l 565 215 l 557 215 b 539 246 539 215 535 221 l 600 574 b 357 825 633 750 556 825 b 46 582 161 825 76 753 l 29 488 l 299 488 l 317 585 b 336 617 321 613 325 617 b 346 588 347 617 350 613 l 338 543 b 257 468 329 489 322 483 b 57 396 165 446 106 432 b -21 238 15 364 -6 325 l -32 175 b 100 -10 -58 38 -6 -10 b 263 93 178 -10 231 19 b 401 0 267 14 324 0 z m 401 842 l 572 842 l 499 1063 l 338 1063 l 185 842 l 350 842 l 389 908 z "},"ä":{"ha":604,"x_min":0,"x_max":0,"o":"m 260 185 b 249 213 244 185 246 193 l 268 319 b 283 350 272 340 275 344 b 303 361 292 356 299 357 b 307 364 306 364 306 364 l 279 210 b 260 185 276 193 269 185 z m 401 0 l 528 0 l 565 215 l 557 215 b 539 246 539 215 535 221 l 600 574 b 357 825 633 750 556 825 b 46 582 161 825 76 753 l 29 488 l 299 488 l 317 585 b 336 617 321 613 325 617 b 346 588 347 617 350 613 l 338 543 b 257 468 329 489 322 483 b 57 396 165 446 106 432 b -21 238 15 364 -6 325 l -32 175 b 100 -10 -58 38 -6 -10 b 263 93 178 -10 231 19 b 401 0 267 14 324 0 z m 269 833 b 388 933 347 833 374 856 b 307 1044 403 1019 379 1044 b 192 933 235 1044 207 1019 b 269 833 178 861 192 833 z m 486 833 b 604 933 563 833 590 856 b 524 1044 619 1019 593 1044 b 408 933 447 1044 424 1019 b 486 833 394 857 413 833 z "},"à":{"ha":604,"x_min":0,"x_max":0,"o":"m 260 185 b 249 213 244 185 246 193 l 268 319 b 283 350 272 340 275 344 b 303 361 292 356 299 357 b 307 364 306 364 306 364 l 279 210 b 260 185 276 193 269 185 z m 401 0 l 528 0 l 565 215 l 557 215 b 539 246 539 215 535 221 l 600 574 b 357 825 633 750 556 825 b 46 582 161 825 76 753 l 29 488 l 299 488 l 317 585 b 336 617 321 613 325 617 b 346 588 347 617 350 613 l 338 543 b 257 468 329 489 322 483 b 57 396 165 446 106 432 b -21 238 15 364 -6 325 l -32 175 b 100 -10 -58 38 -6 -10 b 263 93 178 -10 231 19 b 401 0 267 14 324 0 z m 310 842 l 476 842 l 444 1050 l 204 1050 z "},"ā":{"ha":604,"x_min":0,"x_max":0,"o":"m 260 185 b 249 213 244 185 246 193 l 268 319 b 283 350 272 340 275 344 b 303 361 292 356 299 357 b 307 364 306 364 306 364 l 279 210 b 260 185 276 193 269 185 z m 401 0 l 528 0 l 565 215 l 557 215 b 539 246 539 215 535 221 l 600 574 b 357 825 633 750 556 825 b 46 582 161 825 76 753 l 29 488 l 299 488 l 317 585 b 336 617 321 613 325 617 b 346 588 347 617 350 613 l 338 543 b 257 468 329 489 322 483 b 57 396 165 446 106 432 b -21 238 15 364 -6 325 l -32 175 b 100 -10 -58 38 -6 -10 b 263 93 178 -10 231 19 b 401 0 267 14 324 0 z m 235 842 l 515 842 l 547 1022 l 267 1022 z "},"ą":{"ha":604,"x_min":0,"x_max":0,"o":"m 260 185 b 249 213 244 185 246 193 l 268 319 b 283 350 272 340 275 344 b 303 361 292 356 299 357 b 307 364 306 364 306 364 l 279 210 b 260 185 276 193 269 185 z m 574 -97 l 378 -97 b 351 -142 374 -133 363 -142 b 342 -128 344 -142 340 -139 b 504 0 344 -118 347 -101 l 528 0 l 565 215 l 557 215 b 539 246 539 215 535 221 l 600 574 b 357 825 633 750 556 825 b 46 582 161 825 76 753 l 29 488 l 299 488 l 317 585 b 336 617 321 613 325 617 b 346 588 347 617 350 613 l 338 543 b 257 468 329 489 322 483 b 57 396 165 446 106 432 b -21 238 15 364 -6 325 l -32 175 b 100 -10 -58 38 -6 -10 b 263 93 178 -10 231 19 b 289 28 264 63 274 42 b 157 -142 193 -37 165 -86 b 315 -296 139 -243 189 -296 b 574 -97 447 -296 536 -233 z "},"å":{"ha":604,"x_min":0,"x_max":0,"o":"m 260 185 b 249 213 244 185 246 193 l 268 319 b 283 350 272 340 275 344 b 303 361 292 356 299 357 b 307 364 306 364 306 364 l 279 210 b 260 185 276 193 269 185 z m 401 0 l 528 0 l 565 215 l 557 215 b 539 246 539 215 535 221 l 600 574 b 357 825 633 750 556 825 b 46 582 161 825 76 753 l 29 488 l 299 488 l 317 585 b 336 617 321 613 325 617 b 346 588 347 617 350 613 l 338 543 b 257 468 329 489 322 483 b 57 396 165 446 106 432 b -21 238 15 364 -6 325 l -32 175 b 100 -10 -58 38 -6 -10 b 263 93 178 -10 231 19 b 401 0 267 14 324 0 z m 386 840 b 578 981 499 840 561 888 b 424 1144 594 1078 536 1144 b 231 999 322 1144 249 1101 b 386 840 213 903 276 840 z m 401 974 b 382 992 383 974 381 981 b 408 1011 383 1001 390 1011 b 426 992 426 1011 428 1001 b 401 974 425 982 419 974 z "},"ǻ":{"ha":604,"x_min":0,"x_max":0,"o":"m 260 185 b 249 213 244 185 246 193 l 268 319 b 283 350 272 340 275 344 b 303 361 292 356 299 357 b 307 364 306 364 306 364 l 279 210 b 260 185 276 193 269 185 z m 401 0 l 528 0 l 565 215 l 557 215 b 539 246 539 215 535 221 l 600 574 b 357 825 633 750 556 825 b 46 582 161 825 76 753 l 29 488 l 299 488 l 317 585 b 336 617 321 613 325 617 b 346 588 347 617 350 613 l 338 543 b 257 468 329 489 322 483 b 57 396 165 446 106 432 b -21 238 15 364 -6 325 l -32 175 b 100 -10 -58 38 -6 -10 b 263 93 178 -10 231 19 b 401 0 267 14 324 0 z m 388 839 b 579 979 500 839 563 886 b 425 1143 596 1076 538 1143 b 232 997 324 1143 250 1100 b 388 839 214 901 278 839 z m 403 972 b 383 990 385 972 382 979 b 410 1010 385 1000 392 1010 b 428 990 428 1010 429 1000 b 403 972 426 981 421 972 z m 342 1156 l 526 1156 l 717 1364 l 476 1364 z "},"ã":{"ha":604,"x_min":0,"x_max":0,"o":"m 260 185 b 249 213 244 185 246 193 l 268 319 b 283 350 272 340 275 344 b 303 361 292 356 299 357 b 307 364 306 364 306 364 l 279 210 b 260 185 276 193 269 185 z m 401 0 l 528 0 l 565 215 l 557 215 b 539 246 539 215 535 221 l 600 574 b 357 825 633 750 556 825 b 46 582 161 825 76 753 l 29 488 l 299 488 l 317 585 b 336 617 321 613 325 617 b 346 588 347 617 350 613 l 338 543 b 257 468 329 489 322 483 b 57 396 165 446 106 432 b -21 238 15 364 -6 325 l -32 175 b 100 -10 -58 38 -6 -10 b 263 93 178 -10 231 19 b 401 0 267 14 324 0 z m 488 835 b 656 1076 578 835 621 878 l 506 1076 b 474 1040 501 1054 494 1040 b 340 1082 440 1040 407 1082 b 171 839 244 1082 203 1031 l 317 839 b 351 882 321 865 329 882 b 488 835 390 882 422 835 z "},"æ":{"ha":872,"x_min":0,"x_max":0,"o":"m 589 547 b 618 608 597 599 601 608 b 625 556 633 608 633 603 l 614 489 l 579 489 z m 260 185 b 249 213 244 185 246 193 l 268 319 b 283 350 272 340 275 344 b 303 361 292 356 299 357 b 307 364 306 364 306 364 l 279 210 b 260 185 276 193 269 185 z m 836 261 l 846 315 l 579 315 l 572 275 b 544 206 561 208 557 206 b 539 261 532 206 531 210 l 554 346 l 851 346 l 885 535 b 656 824 919 731 838 824 b 501 782 596 824 544 810 b 339 825 465 810 413 825 b 46 582 164 825 76 753 l 29 488 l 299 488 l 317 585 b 336 617 321 613 325 617 b 346 588 347 617 350 613 l 338 543 b 257 468 329 489 322 483 b 57 396 165 446 106 432 b -21 238 15 364 -6 325 l -32 175 b 101 -10 -58 38 -4 -10 b 310 111 217 -10 276 32 b 529 -15 333 24 406 -15 b 836 261 719 -15 803 54 z "},"ǽ":{"ha":872,"x_min":0,"x_max":0,"o":"m 589 547 b 618 608 597 599 601 608 b 625 556 633 608 633 603 l 614 489 l 579 489 z m 260 185 b 249 213 244 185 246 193 l 268 319 b 283 350 272 340 275 344 b 303 361 292 356 299 357 b 307 364 306 364 306 364 l 279 210 b 260 185 276 193 269 185 z m 836 261 l 846 315 l 579 315 l 572 275 b 544 206 561 208 557 206 b 539 261 532 206 531 210 l 554 346 l 851 346 l 885 535 b 656 824 919 731 838 824 b 501 782 596 824 544 810 b 339 825 465 810 413 825 b 46 582 164 825 76 753 l 29 488 l 299 488 l 317 585 b 336 617 321 613 325 617 b 346 588 347 617 350 613 l 338 543 b 257 468 329 489 322 483 b 57 396 165 446 106 432 b -21 238 15 364 -6 325 l -32 175 b 101 -10 -58 38 -4 -10 b 310 111 217 -10 276 32 b 529 -15 333 24 406 -15 b 836 261 719 -15 803 54 z m 435 832 l 619 832 l 810 1040 l 569 1040 z "},"ć":{"ha":582,"x_min":0,"x_max":0,"o":"m 242 -15 b 546 257 432 -15 508 51 l 567 376 l 300 376 l 278 251 b 257 213 272 215 268 213 b 250 251 246 213 244 215 l 306 563 b 326 603 313 600 315 603 b 333 563 338 603 340 600 l 313 444 l 579 444 l 594 532 b 353 824 629 728 544 824 b 38 558 179 824 71 743 l -11 283 b 242 -15 -49 71 57 -15 z m 279 842 l 464 842 l 654 1050 l 414 1050 z "},"č":{"ha":582,"x_min":0,"x_max":0,"o":"m 242 -15 b 546 257 432 -15 508 51 l 567 376 l 300 376 l 278 251 b 257 213 272 215 268 213 b 250 251 246 213 244 215 l 306 563 b 326 603 313 600 315 603 b 333 563 338 603 340 600 l 313 444 l 579 444 l 594 532 b 353 824 629 728 544 824 b 38 558 179 824 71 743 l -11 283 b 242 -15 -49 71 57 -15 z m 458 842 l 614 1063 l 447 1063 l 407 994 l 396 1063 l 222 1063 l 297 842 z "},"ç":{"ha":582,"x_min":0,"x_max":0,"o":"m 161 -318 b 397 -165 290 -318 381 -261 b 286 -36 414 -71 368 -43 l 290 -14 b 546 257 446 -3 511 69 l 567 376 l 300 376 l 278 251 b 257 213 272 215 268 213 b 250 251 246 213 244 215 l 306 563 b 326 603 313 600 315 603 b 333 563 338 603 340 600 l 313 444 l 579 444 l 594 532 b 353 824 629 728 544 824 b 38 558 179 824 71 743 l -11 283 b 135 -3 -40 117 18 26 l 111 -137 l 201 -137 b 226 -158 218 -137 229 -143 b 192 -179 224 -169 214 -179 b 158 -151 172 -179 163 -171 l -31 -151 b 161 -318 -35 -274 43 -318 z "},"ĉ":{"ha":582,"x_min":0,"x_max":0,"o":"m 242 -15 b 546 257 432 -15 508 51 l 567 376 l 300 376 l 278 251 b 257 213 272 215 268 213 b 250 251 246 213 244 215 l 306 563 b 326 603 313 600 315 603 b 333 563 338 603 340 600 l 313 444 l 579 444 l 594 532 b 353 824 629 728 544 824 b 38 558 179 824 71 743 l -11 283 b 242 -15 -49 71 57 -15 z m 406 842 l 576 842 l 503 1063 l 342 1063 l 189 842 l 354 842 l 393 908 z "},"ċ":{"ha":582,"x_min":0,"x_max":0,"o":"m 242 -15 b 546 257 432 -15 508 51 l 567 376 l 300 376 l 278 251 b 257 213 272 215 268 213 b 250 251 246 213 244 215 l 306 563 b 326 603 313 600 315 603 b 333 563 338 603 340 600 l 313 444 l 579 444 l 594 532 b 353 824 629 728 544 824 b 38 558 179 824 71 743 l -11 283 b 242 -15 -49 71 57 -15 z m 376 840 b 526 964 475 840 507 857 b 421 1090 546 1065 513 1090 b 274 964 324 1090 293 1074 b 376 840 257 875 283 840 z "},"ď":{"ha":592,"x_min":0,"x_max":0,"o":"m 263 213 b 258 282 250 213 247 214 l 303 535 b 331 603 314 593 317 603 b 332 526 344 603 344 596 l 288 268 b 263 213 276 213 271 213 z m 276 0 l 507 0 l 694 1067 l 425 1067 l 363 714 b 233 822 354 786 315 822 b 38 553 140 822 76 768 l -11 281 b 113 -11 -51 58 -12 -11 b 268 117 206 -11 244 42 z m 654 836 l 725 836 l 865 1067 l 738 1067 z "},"đ":{"ha":592,"x_min":0,"x_max":0,"o":"m 263 213 b 258 282 250 213 247 214 l 303 535 b 331 603 314 593 317 603 b 332 526 344 603 344 596 l 288 268 b 263 213 276 213 271 213 z m 276 0 l 507 0 l 651 825 l 671 825 l 701 997 l 682 997 l 694 1067 l 425 1067 l 413 997 l 340 997 l 310 825 l 382 825 l 363 714 b 233 822 354 786 315 822 b 38 553 140 822 76 768 l -11 281 b 113 -11 -51 58 -12 -11 b 268 117 206 -11 244 42 z "},"ð":{"ha":583,"x_min":0,"x_max":0,"o":"m 244 -15 b 547 260 426 -15 510 54 l 600 558 b 513 961 629 719 586 858 l 692 1067 l 493 1067 l 443 1038 b 407 1067 432 1047 419 1057 l 90 1067 b 251 924 158 1015 211 968 l 75 819 l 274 819 l 313 842 b 369 664 349 782 365 725 b 240 779 360 735 331 779 b 33 528 121 779 64 704 b -11 283 32 524 -11 283 b 244 -15 -49 71 64 -15 z m 258 215 b 250 254 247 215 243 218 l 296 518 b 318 558 303 556 307 558 b 326 518 329 558 333 556 l 281 254 b 258 215 274 218 269 215 z "},"é":{"ha":585,"x_min":0,"x_max":0,"o":"m 301 547 b 331 608 310 599 314 608 b 338 556 346 608 346 603 l 326 489 l 292 489 z m 549 261 l 558 315 l 292 315 l 285 275 b 257 206 274 208 269 206 b 251 261 244 206 243 210 l 267 346 l 564 346 l 597 535 b 350 824 632 731 550 824 b 38 558 176 824 71 747 l -11 283 b 242 -15 -49 71 57 -15 b 549 261 432 -15 515 54 z m 268 840 l 453 840 l 643 1049 l 403 1049 z "},"ĕ":{"ha":585,"x_min":0,"x_max":0,"o":"m 301 547 b 331 608 310 599 314 608 b 338 556 346 608 346 603 l 326 489 l 292 489 z m 549 261 l 558 315 l 292 315 l 285 275 b 257 206 274 208 269 206 b 251 261 244 206 243 210 l 267 346 l 564 346 l 597 535 b 350 824 632 731 550 824 b 38 558 176 824 71 747 l -11 283 b 242 -15 -49 71 57 -15 b 549 261 432 -15 515 54 z m 379 839 b 590 1042 517 839 564 896 l 428 1042 b 397 994 419 999 417 994 b 382 1042 375 994 374 997 l 219 1042 b 379 839 193 899 250 839 z "},"ě":{"ha":585,"x_min":0,"x_max":0,"o":"m 301 547 b 331 608 310 599 314 608 b 338 556 346 608 346 603 l 326 489 l 292 489 z m 549 261 l 558 315 l 292 315 l 285 275 b 257 206 274 208 269 206 b 251 261 244 206 243 210 l 267 346 l 564 346 l 597 535 b 350 824 632 731 550 824 b 38 558 176 824 71 747 l -11 283 b 242 -15 -49 71 57 -15 b 549 261 432 -15 515 54 z m 447 840 l 603 1061 l 436 1061 l 396 993 l 385 1061 l 211 1061 l 286 840 z "},"ê":{"ha":585,"x_min":0,"x_max":0,"o":"m 301 547 b 331 608 310 599 314 608 b 338 556 346 608 346 603 l 326 489 l 292 489 z m 549 261 l 558 315 l 292 315 l 285 275 b 257 206 274 208 269 206 b 251 261 244 206 243 210 l 267 346 l 564 346 l 597 535 b 350 824 632 731 550 824 b 38 558 176 824 71 747 l -11 283 b 242 -15 -49 71 57 -15 b 549 261 432 -15 515 54 z m 393 838 l 564 838 l 490 1058 l 329 1058 l 176 838 l 342 838 l 381 904 z "},"ë":{"ha":585,"x_min":0,"x_max":0,"o":"m 301 547 b 331 608 310 599 314 608 b 338 556 346 608 346 603 l 326 489 l 292 489 z m 549 261 l 558 315 l 292 315 l 285 275 b 257 206 274 208 269 206 b 251 261 244 206 243 210 l 267 346 l 564 346 l 597 535 b 350 824 632 731 550 824 b 38 558 176 824 71 747 l -11 283 b 242 -15 -49 71 57 -15 b 549 261 432 -15 515 54 z m 257 831 b 375 931 335 831 361 853 b 294 1042 390 1017 367 1042 b 179 931 222 1042 194 1017 b 257 831 165 858 179 831 z m 474 831 b 592 931 550 831 578 853 b 511 1042 607 1017 581 1042 b 396 931 435 1042 411 1017 b 474 831 382 854 400 831 z "},"ė":{"ha":585,"x_min":0,"x_max":0,"o":"m 301 547 b 331 608 310 599 314 608 b 338 556 346 608 346 603 l 326 489 l 292 489 z m 549 261 l 558 315 l 292 315 l 285 275 b 257 206 274 208 269 206 b 251 261 244 206 243 210 l 267 346 l 564 346 l 597 535 b 350 824 632 731 550 824 b 38 558 176 824 71 747 l -11 283 b 242 -15 -49 71 57 -15 b 549 261 432 -15 515 54 z m 365 839 b 515 963 464 839 496 856 b 410 1089 535 1064 501 1089 b 263 963 313 1089 282 1072 b 365 839 246 874 272 839 z "},"è":{"ha":585,"x_min":0,"x_max":0,"o":"m 301 547 b 331 608 310 599 314 608 b 338 556 346 608 346 603 l 326 489 l 292 489 z m 549 261 l 558 315 l 292 315 l 285 275 b 257 206 274 208 269 206 b 251 261 244 206 243 210 l 267 346 l 564 346 l 597 535 b 350 824 632 731 550 824 b 38 558 176 824 71 747 l -11 283 b 242 -15 -49 71 57 -15 b 549 261 432 -15 515 54 z m 303 840 l 469 840 l 438 1049 l 197 1049 z "},"ē":{"ha":585,"x_min":0,"x_max":0,"o":"m 301 547 b 331 608 310 599 314 608 b 338 556 346 608 346 603 l 326 489 l 292 489 z m 549 261 l 558 315 l 292 315 l 285 275 b 257 206 274 208 269 206 b 251 261 244 206 243 210 l 267 346 l 564 346 l 597 535 b 350 824 632 731 550 824 b 38 558 176 824 71 747 l -11 283 b 242 -15 -49 71 57 -15 b 549 261 432 -15 515 54 z m 228 840 l 508 840 l 540 1021 l 260 1021 z "},"ę":{"ha":585,"x_min":0,"x_max":0,"o":"m 224 -267 b 482 -68 356 -267 444 -204 l 286 -68 b 260 -112 282 -104 271 -112 b 250 -99 253 -112 249 -110 b 367 0 253 -90 256 -76 b 549 261 471 29 524 107 l 558 315 l 292 315 l 285 275 b 257 206 274 208 269 206 b 251 261 244 206 243 210 l 267 346 l 564 346 l 597 535 b 350 824 632 731 550 824 b 38 558 176 824 71 747 l -11 283 b 125 0 -40 121 15 32 b 65 -112 86 -40 71 -75 b 224 -267 47 -214 97 -267 z m 301 547 b 331 608 310 599 314 608 b 338 556 346 608 346 603 l 326 489 l 292 489 z "},"ğ":{"ha":593,"x_min":0,"x_max":0,"o":"m 515 -37 l 515 -35 b 289 196 540 107 486 196 l 208 196 b 150 206 157 196 147 196 b 194 218 151 215 160 218 l 283 218 b 588 449 489 218 557 274 l 613 589 b 465 804 633 713 586 783 b 681 893 615 797 665 807 l 685 917 l 400 917 l 399 908 b 317 821 386 833 379 825 l 292 819 b 44 585 147 811 74 750 l 21 450 b 143 254 0 332 42 269 b -46 121 47 243 -31 210 b 76 -14 -58 47 -24 -1 b -103 -115 -25 -21 -93 -58 b 135 -257 -117 -192 -81 -257 l 139 -257 b 515 -37 374 -257 486 -199 z m 293 400 b 282 432 281 400 278 407 l 313 606 b 335 640 318 635 321 640 b 344 607 347 640 350 636 l 314 431 b 293 400 310 408 304 400 z m 182 -44 b 135 -31 149 -44 132 -42 b 181 -17 138 -19 149 -17 l 251 -17 b 279 -31 272 -17 282 -21 b 235 -44 276 -40 265 -44 z m 399 929 b 610 1132 536 929 583 986 l 447 1132 b 417 1085 439 1089 436 1085 b 401 1132 394 1085 393 1088 l 239 1132 b 399 929 213 989 269 929 z "},"ĝ":{"ha":593,"x_min":0,"x_max":0,"o":"m 515 -37 l 515 -35 b 289 196 540 107 486 196 l 208 196 b 150 206 157 196 147 196 b 194 218 151 215 160 218 l 283 218 b 588 449 489 218 557 274 l 613 589 b 465 804 633 713 586 783 b 681 893 615 797 665 807 l 685 917 l 400 917 l 399 908 b 317 821 386 833 379 825 l 292 819 b 44 585 147 811 74 750 l 21 450 b 143 254 0 332 42 269 b -46 121 47 243 -31 210 b 76 -14 -58 47 -24 -1 b -103 -115 -25 -21 -93 -58 b 135 -257 -117 -192 -81 -257 l 139 -257 b 515 -37 374 -257 486 -199 z m 293 400 b 282 432 281 400 278 407 l 313 606 b 335 640 318 635 321 640 b 344 607 347 640 350 636 l 314 431 b 293 400 310 408 304 400 z m 182 -44 b 135 -31 149 -44 132 -42 b 181 -17 138 -19 149 -17 l 251 -17 b 279 -31 272 -17 282 -21 b 235 -44 276 -40 265 -44 z m 414 935 l 585 935 l 511 1156 l 350 1156 l 197 935 l 363 935 l 401 1001 z "},"ģ":{"ha":593,"x_min":0,"x_max":0,"o":"m 515 -37 l 515 -35 b 289 196 540 107 486 196 l 208 196 b 150 206 157 196 147 196 b 194 218 151 215 160 218 l 283 218 b 588 449 489 218 557 274 l 613 589 b 465 804 633 713 586 783 b 681 893 615 797 665 807 l 685 917 l 400 917 l 399 908 b 317 821 386 833 379 825 l 292 819 b 44 585 147 811 74 750 l 21 450 b 143 254 0 332 42 269 b -46 121 47 243 -31 210 b 76 -14 -58 47 -24 -1 b -103 -115 -25 -21 -93 -58 b 135 -257 -117 -192 -81 -257 l 139 -257 b 515 -37 374 -257 486 -199 z m 293 400 b 282 432 281 400 278 407 l 313 606 b 335 640 318 635 321 640 b 344 607 347 640 350 636 l 314 431 b 293 400 310 408 304 400 z m 182 -44 b 135 -31 149 -44 132 -42 b 181 -17 138 -19 149 -17 l 251 -17 b 279 -31 272 -17 282 -21 b 235 -44 276 -40 265 -44 z m 389 933 b 551 1026 504 933 538 951 b 439 1115 565 1106 536 1115 b 392 1111 422 1115 407 1114 b 560 1149 410 1144 464 1149 l 572 1219 b 264 1058 375 1219 286 1189 b 389 933 244 950 276 933 z "},"ġ":{"ha":593,"x_min":0,"x_max":0,"o":"m 515 -37 l 515 -35 b 289 196 540 107 486 196 l 208 196 b 150 206 157 196 147 196 b 194 218 151 215 160 218 l 283 218 b 588 449 489 218 557 274 l 613 589 b 465 804 633 713 586 783 b 681 893 615 797 665 807 l 685 917 l 400 917 l 399 908 b 317 821 386 833 379 825 l 292 819 b 44 585 147 811 74 750 l 21 450 b 143 254 0 332 42 269 b -46 121 47 243 -31 210 b 76 -14 -58 47 -24 -1 b -103 -115 -25 -21 -93 -58 b 135 -257 -117 -192 -81 -257 l 139 -257 b 515 -37 374 -257 486 -199 z m 293 400 b 282 432 281 400 278 407 l 313 606 b 335 640 318 635 321 640 b 344 607 347 640 350 636 l 314 431 b 293 400 310 408 304 400 z m 182 -44 b 135 -31 149 -44 132 -42 b 181 -17 138 -19 149 -17 l 251 -17 b 279 -31 272 -17 282 -21 b 235 -44 276 -40 265 -44 z m 385 933 b 535 1057 483 933 515 950 b 429 1183 554 1158 521 1183 b 282 1057 332 1183 301 1167 b 385 933 265 968 292 933 z "},"ß":{"ha":631,"x_min":0,"x_max":0,"o":"m 349 -4 b 588 226 508 -4 553 28 b 615 379 588 226 608 346 b 568 528 631 465 608 507 b 660 679 615 550 644 594 l 685 824 b 435 1044 707 951 632 1044 b 85 806 244 1044 111 960 l -57 0 l 218 0 l 354 778 b 382 803 358 797 371 803 b 401 783 396 803 403 794 l 379 657 b 357 633 376 642 371 633 l 349 633 l 308 408 l 317 408 b 333 388 332 408 335 400 l 310 256 b 289 233 307 243 299 233 l 279 233 l 239 0 b 349 -4 249 -1 290 -4 z "},"ħ":{"ha":599,"x_min":0,"x_max":0,"o":"m 310 547 b 335 592 317 588 322 592 b 339 547 346 592 346 588 l 243 0 l 514 0 l 618 597 b 497 822 646 754 614 822 b 338 700 419 822 368 778 l 364 843 l 406 843 l 432 999 l 390 999 l 403 1067 l 131 1067 l 118 999 l 103 999 l 76 843 l 92 843 l -57 0 l 214 0 z "},"ĥ":{"ha":599,"x_min":0,"x_max":0,"o":"m 310 547 b 335 592 317 588 322 592 b 339 547 346 592 346 588 l 243 0 l 514 0 l 618 597 b 497 822 646 754 614 822 b 338 700 419 822 368 778 l 403 1067 l 131 1067 l -57 0 l 214 0 z m 292 1083 l 463 1083 l 389 1304 l 228 1304 l 75 1083 l 240 1083 l 279 1150 z "},"í":{"ha":308,"x_min":0,"x_max":0,"o":"m -57 0 l 224 0 l 367 813 l 86 813 z m 132 836 l 317 836 l 507 1044 l 267 1044 z "},"ĭ":{"ha":308,"x_min":0,"x_max":0,"o":"m -57 0 l 224 0 l 367 813 l 86 813 z m 240 828 b 451 1031 378 828 425 885 l 289 1031 b 258 983 281 988 278 983 b 243 1031 236 983 235 986 l 81 1031 b 240 828 54 888 111 828 z "},"î":{"ha":308,"x_min":0,"x_max":0,"o":"m -57 0 l 224 0 l 367 813 l 86 813 z m 256 829 l 426 829 l 353 1050 l 192 1050 l 39 829 l 204 829 l 243 896 z "},"ï":{"ha":308,"x_min":0,"x_max":0,"o":"m -57 0 l 224 0 l 367 813 l 86 813 z m 119 828 b 238 928 197 828 224 850 b 157 1039 253 1014 229 1039 b 42 928 85 1039 57 1014 b 119 828 28 856 42 828 z m 336 828 b 454 928 413 828 440 850 b 374 1039 469 1014 443 1039 b 258 928 297 1039 274 1014 b 336 828 244 851 263 828 z "},"ì":{"ha":308,"x_min":0,"x_max":0,"o":"m -57 0 l 224 0 l 367 813 l 86 813 z m 164 829 l 331 829 l 299 1038 l 58 1038 z "},"ī":{"ha":308,"x_min":0,"x_max":0,"o":"m -57 0 l 224 0 l 367 813 l 86 813 z m 89 829 l 369 829 l 401 1010 l 121 1010 z "},"į":{"ha":308,"x_min":0,"x_max":0,"o":"m 221 794 b 393 935 340 794 374 824 b 269 1074 413 1046 386 1074 b 101 935 156 1074 121 1046 b 221 794 82 819 106 794 z m 293 -97 l 97 -97 b 71 -142 93 -133 82 -142 b 61 -128 64 -142 60 -139 b 224 0 64 -118 67 -101 l 365 811 b 218 771 335 783 304 771 b 85 810 132 771 104 783 l -57 0 l -29 0 b -124 -142 -96 -51 -117 -94 b 35 -296 -142 -243 -92 -296 b 293 -97 167 -296 256 -233 z "},"ĩ":{"ha":308,"x_min":0,"x_max":0,"o":"m -57 0 l 224 0 l 367 813 l 86 813 z m 326 825 b 494 1067 417 825 460 868 l 344 1067 b 313 1031 340 1044 333 1031 b 179 1072 279 1031 246 1072 b 10 829 83 1072 42 1021 l 156 829 b 190 872 160 856 168 872 b 326 825 229 872 261 825 z "},"ı":{"ha":308,"x_min":0,"x_max":0,"o":"m -57 0 l 224 0 l 367 813 l 86 813 z "},"ĵ":{"ha":308,"x_min":0,"x_max":0,"o":"m -208 -276 l -46 -276 b 214 -49 132 -276 183 -231 l 367 813 l 86 813 l -57 7 b -92 -26 -61 -21 -68 -26 l -164 -26 z m 256 829 l 426 829 l 353 1050 l 192 1050 l 39 829 l 204 829 l 243 896 z "},"ȷ":{"ha":308,"x_min":0,"x_max":0,"o":"m -208 -276 l -46 -276 b 214 -49 132 -276 183 -231 l 367 813 l 86 813 l -57 7 b -92 -26 -61 -21 -68 -26 l -164 -26 z "},"ķ":{"ha":610,"x_min":0,"x_max":0,"o":"m 257 229 l 275 0 l 543 0 l 499 422 l 683 813 l 410 813 l 339 658 l 275 489 l 324 665 l 394 1067 l 131 1067 l -57 0 l 207 0 l 268 347 l 271 361 z m 53 -301 b 363 -140 250 -301 339 -271 b 238 -15 381 -32 350 -15 b 75 -108 122 -15 88 -33 b 186 -197 61 -187 89 -197 b 235 -193 203 -197 219 -196 b 65 -231 217 -226 163 -231 z "},"ĸ":{"ha":610,"x_min":0,"x_max":0,"o":"m 257 229 l 275 0 l 543 0 l 499 422 l 683 813 l 410 813 l 339 658 l 275 489 l 324 665 l 350 813 l 85 813 l -57 0 l 207 0 l 268 347 l 271 361 z "},"ĺ":{"ha":307,"x_min":0,"x_max":0,"o":"m -57 0 l 222 0 l 410 1067 l 131 1067 z m 168 1083 l 353 1083 l 543 1292 l 303 1292 z "},"ľ":{"ha":307,"x_min":0,"x_max":0,"o":"m -57 0 l 222 0 l 410 1067 l 131 1067 z m 369 836 l 440 836 l 581 1067 l 453 1067 z "},"ļ":{"ha":307,"x_min":0,"x_max":0,"o":"m -57 0 l 222 0 l 410 1067 l 131 1067 z m -100 -301 b 210 -140 97 -301 186 -271 b 85 -15 228 -32 197 -15 b -78 -108 -31 -15 -65 -33 b 33 -197 -92 -187 -64 -197 b 82 -193 50 -197 67 -196 b -87 -231 64 -226 10 -231 z "},"ŀ":{"ha":393,"x_min":0,"x_max":0,"o":"m 222 0 l 410 1067 l 131 1067 l -57 0 z m 310 181 b 394 410 343 181 358 210 b 392 646 429 614 425 646 b 308 410 358 646 343 614 b 310 181 271 204 275 181 z "},"ł":{"ha":311,"x_min":0,"x_max":0,"o":"m 219 0 l 279 339 l 300 343 l 342 578 l 321 574 l 407 1067 l 136 1067 l 40 518 l 19 514 l -22 278 l -1 282 l -51 0 z "},"ń":{"ha":601,"x_min":0,"x_max":0,"o":"m 313 547 b 335 592 319 588 322 592 b 342 547 347 592 349 588 l 246 0 l 517 0 l 621 597 b 489 822 649 754 596 822 b 319 706 401 822 350 781 l 310 813 l 86 813 l -57 0 l 217 0 z m 282 828 l 467 828 l 657 1036 l 417 1036 z "},"ň":{"ha":601,"x_min":0,"x_max":0,"o":"m 313 547 b 335 592 319 588 322 592 b 342 547 347 592 349 588 l 246 0 l 517 0 l 621 597 b 489 822 649 754 596 822 b 319 706 401 822 350 781 l 310 813 l 86 813 l -57 0 l 217 0 z m 461 828 l 617 1049 l 450 1049 l 410 981 l 399 1049 l 225 1049 l 300 828 z "},"ņ":{"ha":601,"x_min":0,"x_max":0,"o":"m 313 547 b 335 592 319 588 322 592 b 342 547 347 592 349 588 l 246 0 l 517 0 l 621 597 b 489 822 649 754 596 822 b 319 706 401 822 350 781 l 310 813 l 86 813 l -57 0 l 217 0 z m 44 -299 b 354 -137 242 -299 331 -268 b 229 -12 372 -29 342 -12 b 67 -106 114 -12 79 -31 b 178 -194 53 -185 81 -194 b 226 -190 194 -194 211 -193 b 57 -228 208 -224 154 -228 z "},"ñ":{"ha":601,"x_min":0,"x_max":0,"o":"m 313 547 b 335 592 319 588 322 592 b 342 547 347 592 349 588 l 246 0 l 517 0 l 621 597 b 489 822 649 754 596 822 b 319 706 401 822 350 781 l 310 813 l 86 813 l -57 0 l 217 0 z m 479 831 b 647 1072 569 831 613 874 l 497 1072 b 465 1036 493 1050 486 1036 b 332 1078 432 1036 399 1078 b 163 835 236 1078 194 1026 l 308 835 b 343 878 313 861 321 878 b 479 831 382 878 414 831 z "},"ŋ":{"ha":599,"x_min":0,"x_max":0,"o":"m 242 -276 b 506 -49 419 -276 476 -231 l 619 597 b 500 822 647 754 607 822 b 319 701 411 822 353 781 l 310 813 l 86 813 l -57 0 l 217 0 l 313 547 b 335 592 319 588 322 592 b 340 547 347 592 347 588 l 244 7 b 208 -26 240 -21 233 -26 l 156 -26 l 111 -276 z "},"ó":{"ha":586,"x_min":0,"x_max":0,"o":"m 244 -15 b 549 257 426 -15 511 51 l 597 533 b 351 824 632 729 535 824 b 38 558 178 824 71 743 l -11 283 b 244 -15 -49 71 64 -15 z m 258 213 b 250 251 247 213 244 215 l 306 563 b 328 603 313 600 317 603 b 336 563 339 603 343 600 l 281 251 b 258 213 275 215 269 213 z m 268 839 l 453 839 l 643 1047 l 403 1047 z "},"ŏ":{"ha":586,"x_min":0,"x_max":0,"o":"m 244 -15 b 549 257 426 -15 511 51 l 597 533 b 351 824 632 729 535 824 b 38 558 178 824 71 743 l -11 283 b 244 -15 -49 71 64 -15 z m 258 213 b 250 251 247 213 244 215 l 306 563 b 328 603 313 600 317 603 b 336 563 339 603 343 600 l 281 251 b 258 213 275 215 269 213 z m 379 838 b 590 1040 517 838 564 894 l 428 1040 b 397 993 419 997 417 993 b 382 1040 375 993 374 996 l 219 1040 b 379 838 193 897 250 838 z "},"ô":{"ha":586,"x_min":0,"x_max":0,"o":"m 244 -15 b 549 257 426 -15 511 51 l 597 533 b 351 824 632 729 535 824 b 38 558 178 824 71 743 l -11 283 b 244 -15 -49 71 64 -15 z m 258 213 b 250 251 247 213 244 215 l 306 563 b 328 603 313 600 317 603 b 336 563 339 603 343 600 l 281 251 b 258 213 275 215 269 213 z m 394 836 l 565 836 l 492 1057 l 331 1057 l 178 836 l 343 836 l 382 903 z "},"ö":{"ha":586,"x_min":0,"x_max":0,"o":"m 244 -15 b 549 257 426 -15 511 51 l 597 533 b 351 824 632 729 535 824 b 38 558 178 824 71 743 l -11 283 b 244 -15 -49 71 64 -15 z m 258 213 b 250 251 247 213 244 215 l 306 563 b 328 603 313 600 317 603 b 336 563 339 603 343 600 l 281 251 b 258 213 275 215 269 213 z m 261 829 b 379 929 339 829 365 851 b 299 1040 394 1015 371 1040 b 183 929 226 1040 199 1015 b 261 829 169 857 183 829 z m 478 829 b 596 929 554 829 582 851 b 515 1040 611 1015 585 1040 b 400 929 439 1040 415 1015 b 478 829 386 853 404 829 z "},"œ":{"ha":874,"x_min":0,"x_max":0,"o":"m 590 547 b 619 608 599 599 603 608 b 626 556 635 608 635 603 l 615 489 l 581 489 z m 258 213 b 250 251 247 213 244 215 l 306 563 b 328 603 313 600 317 603 b 336 563 339 603 343 600 l 281 251 b 258 213 275 215 269 213 z m 838 261 l 847 315 l 581 315 l 574 275 b 546 206 563 208 558 206 b 540 261 533 206 532 210 l 556 346 l 853 346 l 886 535 b 668 824 921 731 839 824 b 500 771 597 824 542 806 b 335 824 463 806 407 824 b 38 558 161 824 71 743 l -11 283 b 228 -15 -49 71 47 -15 b 382 22 293 -15 343 -4 b 531 -15 414 -3 461 -15 b 838 261 721 -15 804 54 z "},"ò":{"ha":586,"x_min":0,"x_max":0,"o":"m 244 -15 b 549 257 426 -15 511 51 l 597 533 b 351 824 632 729 535 824 b 38 558 178 824 71 743 l -11 283 b 244 -15 -49 71 64 -15 z m 258 213 b 250 251 247 213 244 215 l 306 563 b 328 603 313 600 317 603 b 336 563 339 603 343 600 l 281 251 b 258 213 275 215 269 213 z m 303 839 l 469 839 l 438 1047 l 197 1047 z "},"ő":{"ha":586,"x_min":0,"x_max":0,"o":"m 244 -15 b 549 257 426 -15 511 51 l 597 533 b 351 824 632 729 535 824 b 38 558 178 824 71 743 l -11 283 b 244 -15 -49 71 64 -15 z m 258 213 b 250 251 247 213 244 215 l 306 563 b 328 603 313 600 317 603 b 336 563 339 603 343 600 l 281 251 b 258 213 275 215 269 213 z m 211 835 l 338 835 l 451 1043 l 272 1043 z m 386 835 l 517 835 l 660 1043 l 472 1043 z "},"ō":{"ha":586,"x_min":0,"x_max":0,"o":"m 244 -15 b 549 257 426 -15 511 51 l 597 533 b 351 824 632 729 535 824 b 38 558 178 824 71 743 l -11 283 b 244 -15 -49 71 64 -15 z m 258 213 b 250 251 247 213 244 215 l 306 563 b 328 603 313 600 317 603 b 336 563 339 603 343 600 l 281 251 b 258 213 275 215 269 213 z m 228 839 l 508 839 l 540 1019 l 260 1019 z "},"ø":{"ha":586,"x_min":0,"x_max":0,"o":"m 214 -147 l 272 -15 b 549 257 435 -8 513 63 l 597 533 b 572 731 613 618 603 683 l 658 919 l 372 919 l 329 824 b 38 558 168 817 69 735 l -11 283 b 22 69 -28 188 -14 117 l -72 -147 z m 258 213 b 250 251 247 213 244 215 l 306 563 b 328 603 313 600 317 603 b 336 563 339 603 343 600 l 281 251 b 258 213 275 215 269 213 z "},"ǿ":{"ha":586,"x_min":0,"x_max":0,"o":"m 214 -147 l 272 -15 b 549 257 435 -8 513 63 l 597 533 b 572 731 613 618 603 683 l 658 919 l 372 919 l 329 824 b 38 558 168 817 69 735 l -11 283 b 22 69 -28 188 -14 117 l -72 -147 z m 258 213 b 250 251 247 213 244 215 l 306 563 b 328 603 313 600 317 603 b 336 563 339 603 343 600 l 281 251 b 258 213 275 215 269 213 z m 322 932 l 507 932 l 697 1140 l 457 1140 z "},"õ":{"ha":586,"x_min":0,"x_max":0,"o":"m 244 -15 b 549 257 426 -15 511 51 l 597 533 b 351 824 632 729 535 824 b 38 558 178 824 71 743 l -11 283 b 244 -15 -49 71 64 -15 z m 258 213 b 250 251 247 213 244 215 l 306 563 b 328 603 313 600 317 603 b 336 563 339 603 343 600 l 281 251 b 258 213 275 215 269 213 z m 481 828 b 649 1069 571 828 614 871 l 499 1069 b 467 1033 494 1047 488 1033 b 333 1075 433 1033 400 1075 b 164 832 238 1075 196 1024 l 310 832 b 344 875 314 858 322 875 b 481 828 383 875 415 828 z "},"ŕ":{"ha":410,"x_min":0,"x_max":0,"o":"m 222 0 l 289 379 b 367 443 299 432 307 443 l 406 443 l 472 821 l 454 821 b 292 632 339 821 321 799 l 290 619 l 294 813 l 86 813 l -57 0 z m 213 832 l 397 832 l 588 1040 l 347 1040 z "},"ř":{"ha":410,"x_min":0,"x_max":0,"o":"m 222 0 l 289 379 b 367 443 299 432 307 443 l 406 443 l 472 821 l 454 821 b 292 632 339 821 321 799 l 290 619 l 294 813 l 86 813 l -57 0 z m 392 832 l 547 1053 l 381 1053 l 340 985 l 329 1053 l 156 1053 l 231 832 z "},"ŗ":{"ha":410,"x_min":0,"x_max":0,"o":"m 222 0 l 289 379 b 367 443 299 432 307 443 l 406 443 l 472 821 l 454 821 b 292 632 339 821 321 799 l 290 619 l 294 813 l 86 813 l -57 0 z m -111 -301 b 199 -140 86 -301 175 -271 b 74 -15 217 -32 186 -15 b -89 -108 -42 -15 -76 -33 b 22 -197 -103 -187 -75 -197 b 71 -193 39 -197 56 -196 b -99 -231 53 -226 -1 -231 z "},"ś":{"ha":582,"x_min":0,"x_max":0,"o":"m 240 -18 b 546 218 451 -18 521 79 l 547 226 b 392 507 571 356 525 438 b 307 594 311 549 303 567 b 333 625 311 618 318 625 b 346 576 350 625 353 614 l 340 543 l 601 543 l 608 582 b 353 826 632 717 571 826 b 40 610 171 826 68 757 l 39 603 b 185 335 18 479 54 401 b 286 238 282 286 293 279 b 257 204 281 210 274 204 b 243 235 243 204 240 214 l 254 293 l -17 293 l -25 244 b 240 -18 -54 79 17 -18 z m 272 843 l 457 843 l 647 1051 l 407 1051 z "},"š":{"ha":582,"x_min":0,"x_max":0,"o":"m 240 -18 b 546 218 451 -18 521 79 l 547 226 b 392 507 571 356 525 438 b 307 594 311 549 303 567 b 333 625 311 618 318 625 b 346 576 350 625 353 614 l 340 543 l 601 543 l 608 582 b 353 826 632 717 571 826 b 40 610 171 826 68 757 l 39 603 b 185 335 18 479 54 401 b 286 238 282 286 293 279 b 257 204 281 210 274 204 b 243 235 243 204 240 214 l 254 293 l -17 293 l -25 244 b 240 -18 -54 79 17 -18 z m 451 843 l 607 1064 l 440 1064 l 400 996 l 389 1064 l 215 1064 l 290 843 z "},"ş":{"ha":582,"x_min":0,"x_max":0,"o":"m 164 -319 b 400 -167 293 -319 383 -262 b 289 -37 417 -72 371 -44 l 293 -15 b 546 218 464 0 524 92 l 547 226 b 392 507 571 356 525 438 b 307 594 311 549 303 567 b 333 625 311 618 318 625 b 346 576 350 625 353 614 l 340 543 l 601 543 l 608 582 b 353 826 632 717 571 826 b 40 610 171 826 68 757 l 39 603 b 185 335 18 479 54 401 b 286 238 282 286 293 279 b 257 204 281 210 274 204 b 243 235 243 204 240 214 l 254 293 l -17 293 l -25 244 b 138 -10 -49 108 -6 18 l 114 -139 l 204 -139 b 229 -160 221 -139 232 -144 b 194 -181 226 -171 217 -181 b 161 -153 175 -181 165 -172 l -28 -153 b 164 -319 -32 -275 46 -319 z "},"ŝ":{"ha":582,"x_min":0,"x_max":0,"o":"m 240 -18 b 546 218 451 -18 521 79 l 547 226 b 392 507 571 356 525 438 b 307 594 311 549 303 567 b 333 625 311 618 318 625 b 346 576 350 625 353 614 l 340 543 l 601 543 l 608 582 b 353 826 632 717 571 826 b 40 610 171 826 68 757 l 39 603 b 185 335 18 479 54 401 b 286 238 282 286 293 279 b 257 204 281 210 274 204 b 243 235 243 204 240 214 l 254 293 l -17 293 l -25 244 b 240 -18 -54 79 17 -18 z m 399 842 l 569 842 l 496 1063 l 335 1063 l 182 842 l 347 842 l 386 908 z "},"ș":{"ha":582,"x_min":0,"x_max":0,"o":"m 240 -18 b 546 218 451 -18 521 79 l 547 226 b 392 507 571 356 525 438 b 307 594 311 549 303 567 b 333 625 311 618 318 625 b 346 576 350 625 353 614 l 340 543 l 601 543 l 608 582 b 353 826 632 717 571 826 b 40 610 171 826 68 757 l 39 603 b 185 335 18 479 54 401 b 286 238 282 286 293 279 b 257 204 281 210 274 204 b 243 235 243 204 240 214 l 254 293 l -17 293 l -25 244 b 240 -18 -54 79 17 -18 z m 38 -319 b 347 -158 235 -319 324 -289 b 222 -33 365 -50 335 -33 b 60 -126 107 -33 72 -51 b 171 -215 46 -206 74 -215 b 219 -211 188 -215 204 -214 b 50 -249 201 -244 147 -249 z "},"ŧ":{"ha":406,"x_min":0,"x_max":0,"o":"m 371 260 l 357 260 b 313 318 307 260 303 267 l 317 339 l 385 339 l 407 472 l 340 472 l 351 542 l 421 542 l 469 813 l 400 813 l 425 956 l 179 956 b 151 846 168 897 163 872 b 118 813 144 829 132 817 b 76 808 107 810 99 808 l 29 542 l 86 542 l 74 472 l 26 472 l 4 339 l 50 339 l 29 222 b 228 0 0 57 50 0 l 326 0 z "},"ť":{"ha":406,"x_min":0,"x_max":0,"o":"m 371 260 l 357 260 b 313 318 307 260 303 267 l 351 542 l 421 542 l 469 813 l 400 813 l 425 956 l 179 956 b 151 846 168 897 163 872 b 118 813 144 829 132 817 b 76 808 107 810 99 808 l 29 542 l 86 542 l 29 222 b 228 0 0 57 50 0 l 326 0 z m 435 947 l 506 947 l 646 1178 l 518 1178 z "},"ţ":{"ha":406,"x_min":0,"x_max":0,"o":"m 371 260 l 357 260 b 313 318 307 260 303 267 l 351 542 l 421 542 l 469 813 l 400 813 l 425 956 l 179 956 b 151 846 168 897 163 872 b 118 813 144 829 132 817 b 76 808 107 810 99 808 l 29 542 l 86 542 l 29 222 b 228 0 0 57 50 0 l 326 0 z m -42 -301 b 268 -140 156 -301 244 -271 b 143 -15 286 -32 256 -15 b -19 -108 28 -15 -7 -33 b 92 -197 -33 -187 -6 -197 b 140 -193 108 -197 125 -196 b -29 -231 122 -226 68 -231 z "},"ú":{"ha":593,"x_min":0,"x_max":0,"o":"m 289 0 l 508 0 l 651 813 l 383 813 l 286 267 b 264 222 281 233 278 222 b 258 264 253 222 253 229 l 356 813 l 85 813 l -21 218 b 114 -12 -50 54 -11 -12 b 278 107 197 -12 247 25 z m 269 829 l 454 829 l 644 1038 l 404 1038 z "},"ŭ":{"ha":593,"x_min":0,"x_max":0,"o":"m 289 0 l 508 0 l 651 813 l 383 813 l 286 267 b 264 222 281 233 278 222 b 258 264 253 222 253 229 l 356 813 l 85 813 l -21 218 b 114 -12 -50 54 -11 -12 b 278 107 197 -12 247 25 z m 381 828 b 592 1031 518 828 565 885 l 429 1031 b 399 983 421 988 418 983 b 383 1031 376 983 375 986 l 221 1031 b 381 828 194 888 251 828 z "},"û":{"ha":593,"x_min":0,"x_max":0,"o":"m 289 0 l 508 0 l 651 813 l 383 813 l 286 267 b 264 222 281 233 278 222 b 258 264 253 222 253 229 l 356 813 l 85 813 l -21 218 b 114 -12 -50 54 -11 -12 b 278 107 197 -12 247 25 z m 396 829 l 567 829 l 493 1050 l 332 1050 l 179 829 l 344 829 l 383 896 z "},"ü":{"ha":593,"x_min":0,"x_max":0,"o":"m 289 0 l 508 0 l 651 813 l 383 813 l 286 267 b 264 222 281 233 278 222 b 258 264 253 222 253 229 l 356 813 l 85 813 l -21 218 b 114 -12 -50 54 -11 -12 b 278 107 197 -12 247 25 z m 260 828 b 378 928 338 828 364 850 b 297 1039 393 1014 369 1039 b 182 928 225 1039 197 1014 b 260 828 168 856 182 828 z m 476 828 b 594 928 553 828 581 850 b 514 1039 610 1014 583 1039 b 399 928 438 1039 414 1014 b 476 828 385 851 403 828 z "},"ù":{"ha":593,"x_min":0,"x_max":0,"o":"m 289 0 l 508 0 l 651 813 l 383 813 l 286 267 b 264 222 281 233 278 222 b 258 264 253 222 253 229 l 356 813 l 85 813 l -21 218 b 114 -12 -50 54 -11 -12 b 278 107 197 -12 247 25 z m 304 829 l 471 829 l 439 1038 l 199 1038 z "},"ű":{"ha":593,"x_min":0,"x_max":0,"o":"m 289 0 l 508 0 l 651 813 l 383 813 l 286 267 b 264 222 281 233 278 222 b 258 264 253 222 253 229 l 356 813 l 85 813 l -21 218 b 114 -12 -50 54 -11 -12 b 278 107 197 -12 247 25 z m 213 829 l 339 829 l 453 1038 l 274 1038 z m 388 829 l 518 829 l 661 1038 l 474 1038 z "},"ū":{"ha":593,"x_min":0,"x_max":0,"o":"m 289 0 l 508 0 l 651 813 l 383 813 l 286 267 b 264 222 281 233 278 222 b 258 264 253 222 253 229 l 356 813 l 85 813 l -21 218 b 114 -12 -50 54 -11 -12 b 278 107 197 -12 247 25 z m 229 829 l 510 829 l 542 1010 l 261 1010 z "},"ų":{"ha":593,"x_min":0,"x_max":0,"o":"m 578 -97 l 382 -97 b 356 -142 378 -133 367 -142 b 346 -128 349 -142 344 -139 b 508 0 349 -118 351 -101 l 651 813 l 383 813 l 286 267 b 264 222 281 233 278 222 b 258 264 253 222 253 229 l 356 813 l 85 813 l -21 218 b 114 -12 -50 54 -11 -12 b 278 107 197 -12 247 25 l 286 22 b 161 -142 196 -40 169 -87 b 319 -296 143 -243 193 -296 b 578 -97 451 -296 540 -233 z "},"ů":{"ha":593,"x_min":0,"x_max":0,"o":"m 289 0 l 508 0 l 651 813 l 383 813 l 286 267 b 264 222 281 233 278 222 b 258 264 253 222 253 229 l 356 813 l 85 813 l -21 218 b 114 -12 -50 54 -11 -12 b 278 107 197 -12 247 25 z m 381 828 b 572 968 493 828 556 875 b 418 1132 589 1065 531 1132 b 225 986 317 1132 243 1089 b 381 828 207 890 271 828 z m 396 961 b 376 979 378 961 375 968 b 403 999 378 989 385 999 b 421 979 421 999 422 989 b 396 961 419 969 414 961 z "},"ũ":{"ha":593,"x_min":0,"x_max":0,"o":"m 289 0 l 508 0 l 651 813 l 383 813 l 286 267 b 264 222 281 233 278 222 b 258 264 253 222 253 229 l 356 813 l 85 813 l -21 218 b 114 -12 -50 54 -11 -12 b 278 107 197 -12 247 25 z m 467 825 b 635 1067 557 825 600 868 l 485 1067 b 453 1031 481 1044 474 1031 b 319 1072 419 1031 386 1072 b 150 829 224 1072 182 1021 l 296 829 b 331 872 300 856 308 872 b 467 825 369 872 401 825 z "},"ẃ":{"ha":867,"x_min":0,"x_max":0,"o":"m 399 251 l 451 496 l 413 251 l 404 0 l 721 0 l 956 813 l 699 813 l 614 475 l 569 231 l 601 474 l 638 813 l 386 813 l 294 471 l 236 228 l 283 476 l 326 813 l 56 813 l 0 0 l 332 0 z m 414 829 l 599 829 l 789 1038 l 549 1038 z "},"ŵ":{"ha":867,"x_min":0,"x_max":0,"o":"m 399 251 l 451 496 l 413 251 l 404 0 l 721 0 l 956 813 l 699 813 l 614 475 l 569 231 l 601 474 l 638 813 l 386 813 l 294 471 l 236 228 l 283 476 l 326 813 l 56 813 l 0 0 l 332 0 z m 540 829 l 711 829 l 638 1050 l 476 1050 l 324 829 l 489 829 l 528 896 z "},"ẅ":{"ha":867,"x_min":0,"x_max":0,"o":"m 399 251 l 451 496 l 413 251 l 404 0 l 721 0 l 956 813 l 699 813 l 614 475 l 569 231 l 601 474 l 638 813 l 386 813 l 294 471 l 236 228 l 283 476 l 326 813 l 56 813 l 0 0 l 332 0 z m 404 828 b 522 928 482 828 508 850 b 442 1039 538 1014 514 1039 b 326 928 369 1039 342 1014 b 404 828 313 856 326 828 z m 621 828 b 739 928 697 828 725 850 b 658 1039 754 1014 728 1039 b 543 928 582 1039 558 1014 b 621 828 529 851 547 828 z "},"ẁ":{"ha":867,"x_min":0,"x_max":0,"o":"m 399 251 l 451 496 l 413 251 l 404 0 l 721 0 l 956 813 l 699 813 l 614 475 l 569 231 l 601 474 l 638 813 l 386 813 l 294 471 l 236 228 l 283 476 l 326 813 l 56 813 l 0 0 l 332 0 z m 436 829 l 603 829 l 571 1038 l 331 1038 z "},"ý":{"ha":589,"x_min":0,"x_max":0,"o":"m 15 -271 b 383 3 226 -271 292 -247 l 678 813 l 404 813 l 343 614 l 274 285 l 325 615 l 333 813 l 56 813 l 83 19 b 18 -22 71 -19 63 -22 l -39 -22 l -82 -271 z m 258 831 l 443 831 l 633 1039 l 393 1039 z "},"ŷ":{"ha":589,"x_min":0,"x_max":0,"o":"m 15 -271 b 383 3 226 -271 292 -247 l 678 813 l 404 813 l 343 614 l 274 285 l 325 615 l 333 813 l 56 813 l 83 19 b 18 -22 71 -19 63 -22 l -39 -22 l -82 -271 z m 400 831 l 571 831 l 497 1051 l 336 1051 l 183 831 l 349 831 l 388 897 z "},"ÿ":{"ha":589,"x_min":0,"x_max":0,"o":"m 15 -271 b 383 3 226 -271 292 -247 l 678 813 l 404 813 l 343 614 l 274 285 l 325 615 l 333 813 l 56 813 l 83 19 b 18 -22 71 -19 63 -22 l -39 -22 l -82 -271 z m 264 829 b 382 929 342 829 368 851 b 301 1040 397 1015 374 1040 b 186 929 229 1040 201 1015 b 264 829 172 857 186 829 z m 481 829 b 599 929 557 829 585 851 b 518 1040 614 1015 588 1040 b 403 929 442 1040 418 1015 b 481 829 389 853 407 829 z "},"ỳ":{"ha":589,"x_min":0,"x_max":0,"o":"m 15 -271 b 383 3 226 -271 292 -247 l 678 813 l 404 813 l 343 614 l 274 285 l 325 615 l 333 813 l 56 813 l 83 19 b 18 -22 71 -19 63 -22 l -39 -22 l -82 -271 z m 293 831 l 460 831 l 428 1039 l 188 1039 z "},"ĳ":{"ha":619,"x_min":0,"x_max":0,"o":"m 531 793 b 696 915 633 793 679 819 b 574 1035 713 1007 676 1035 b 411 915 468 1035 428 1011 b 531 793 393 819 426 793 z m 222 793 b 388 915 325 793 371 819 b 265 1035 404 1007 365 1035 b 100 915 158 1035 117 1011 b 222 793 82 819 117 793 z m -101 -267 l 226 -267 b 529 -29 433 -267 496 -219 l 676 806 b 528 772 643 785 610 772 b 393 804 446 772 418 783 l 251 0 b 217 -26 247 -24 238 -26 l -61 -26 z m -56 0 l 224 0 l 365 806 b 219 772 335 785 301 772 b 86 804 138 772 108 783 z "},"ź":{"ha":450,"x_min":0,"x_max":0,"o":"m 371 0 l 414 244 l 274 244 l 475 596 l 514 813 l 81 813 l 39 581 l 186 581 l -26 213 l -62 0 z m 183 829 l 368 829 l 558 1038 l 318 1038 z "},"ž":{"ha":450,"x_min":0,"x_max":0,"o":"m 371 0 l 414 244 l 274 244 l 475 596 l 514 813 l 81 813 l 39 581 l 186 581 l -26 213 l -62 0 z m 382 829 l 538 1050 l 371 1050 l 331 982 l 319 1050 l 146 1050 l 221 829 z "},"ż":{"ha":450,"x_min":0,"x_max":0,"o":"m 371 0 l 414 244 l 274 244 l 475 596 l 514 813 l 81 813 l 39 581 l 186 581 l -26 213 l -62 0 z m 299 828 b 449 951 397 828 429 844 b 343 1078 468 1053 435 1078 b 196 951 246 1078 215 1061 b 299 828 179 863 206 828 z "},"þ":{"ha":590,"x_min":0,"x_max":0,"o":"m 258 213 b 256 268 250 213 244 213 l 300 526 b 329 603 313 596 315 603 b 332 535 343 603 343 593 l 288 282 b 258 213 276 214 271 213 z m 344 -11 b 557 281 478 -11 521 72 l 603 542 b 483 822 640 753 594 822 b 332 713 411 822 365 789 l 394 1067 l 131 1067 l -100 -244 l 164 -244 l 228 115 b 344 -11 228 40 256 -11 z "},"ª":{"ha":449,"x_min":0,"x_max":0,"o":"m 244 578 b 235 596 235 578 233 585 l 244 653 b 253 679 249 672 249 675 b 268 690 256 683 261 686 b 278 700 274 693 276 696 l 260 599 b 244 578 258 585 254 578 z m 356 460 l 453 460 l 481 622 l 475 622 b 458 642 460 622 456 622 l 494 843 b 319 1017 517 958 453 1017 b 96 858 181 1017 114 960 l 85 790 l 274 790 l 285 851 b 299 874 288 869 290 874 b 306 858 306 874 308 869 l 299 814 b 231 772 293 782 285 779 b 111 740 178 765 142 757 b 50 640 81 722 60 694 l 39 579 b 143 451 24 493 57 451 b 258 521 203 451 236 474 b 356 460 265 471 301 460 z "},"º":{"ha":419,"x_min":0,"x_max":0,"o":"m 235 453 b 458 651 368 453 431 500 l 486 804 b 307 1017 513 947 440 1017 b 76 822 179 1017 101 957 l 50 676 b 235 453 22 519 103 453 z m 247 617 b 240 646 239 617 235 619 l 274 825 b 290 857 279 853 282 857 b 296 825 299 857 301 853 l 263 646 b 247 617 257 619 254 617 z "},"&":{"ha":786,"x_min":0,"x_max":0,"o":"m 560 -17 b 711 22 635 -17 676 -1 l 749 238 b 661 203 722 219 697 206 b 793 489 726 283 774 382 l 804 551 l 578 551 l 572 521 b 508 346 560 451 538 393 b 496 388 504 358 500 372 b 471 488 486 424 478 457 b 708 786 621 568 682 636 b 500 1021 733 935 660 1021 b 229 786 354 1021 258 956 b 229 582 217 710 218 653 b -11 310 121 529 15 457 l -17 278 b 247 -15 -50 99 50 -15 b 436 26 311 -15 375 0 b 560 -17 471 -3 513 -17 z m 450 767 l 453 782 b 482 828 460 821 468 828 b 493 785 497 828 499 813 b 443 686 485 740 468 713 b 450 767 443 717 446 744 z m 307 208 b 244 303 260 208 233 243 b 268 368 250 331 257 351 b 290 288 275 342 282 314 b 318 208 300 260 308 233 z "},"´":{"ha":435,"x_min":0,"x_max":0,"o":"m 104 856 l 289 856 l 479 1064 l 239 1064 z "},"˘":{"ha":435,"x_min":0,"x_max":0,"o":"m 304 854 b 515 1057 442 854 489 911 l 353 1057 b 322 1010 344 1014 342 1010 b 307 1057 300 1010 299 1013 l 144 1057 b 304 854 118 914 175 854 z "},"ˇ":{"ha":435,"x_min":0,"x_max":0,"o":"m 375 856 l 531 1076 l 364 1076 l 324 1008 l 313 1076 l 139 1076 l 214 856 z "},"¸":{"ha":435,"x_min":0,"x_max":0,"o":"m 97 -317 b 333 -164 226 -317 317 -260 b 222 -35 350 -69 304 -42 l 233 26 l 76 26 l 47 -136 l 138 -136 b 163 -157 154 -136 165 -142 b 128 -178 160 -168 150 -178 b 94 -150 108 -178 99 -169 l -94 -150 b 97 -317 -99 -272 -21 -317 z "},"ˆ":{"ha":435,"x_min":0,"x_max":0,"o":"m 318 856 l 489 856 l 415 1076 l 254 1076 l 101 856 l 267 856 l 306 922 z "},"¨":{"ha":432,"x_min":0,"x_max":0,"o":"m 185 854 b 303 954 263 854 289 876 b 222 1065 318 1040 294 1065 b 107 954 150 1065 122 1040 b 185 854 93 882 107 854 z m 401 854 b 519 954 478 854 506 876 b 439 1065 535 1040 508 1065 b 324 954 363 1065 339 1040 b 401 854 310 878 328 854 z "},"˙":{"ha":433,"x_min":0,"x_max":0,"o":"m 299 854 b 449 978 397 854 429 871 b 343 1104 468 1079 435 1104 b 196 978 246 1104 215 1088 b 299 854 179 889 206 854 z "},"`":{"ha":435,"x_min":0,"x_max":0,"o":"m 243 856 l 410 856 l 378 1064 l 138 1064 z "},"˝":{"ha":435,"x_min":0,"x_max":0,"o":"m 124 856 l 250 856 l 364 1064 l 185 1064 z m 299 856 l 429 856 l 572 1064 l 385 1064 z "},"¯":{"ha":435,"x_min":0,"x_max":0,"o":"m 156 856 l 436 856 l 468 1036 l 188 1036 z "},"˛":{"ha":435,"x_min":0,"x_max":0,"o":"m 79 -296 b 338 -97 211 -296 300 -233 l 142 -97 b 115 -142 138 -133 126 -142 b 106 -128 108 -142 104 -139 b 268 0 108 -118 111 -101 l 124 71 b -79 -142 -31 -17 -69 -75 b 79 -296 -97 -243 -47 -296 z "},"˚":{"ha":435,"x_min":0,"x_max":0,"o":"m 308 854 b 500 994 421 854 483 901 b 346 1158 517 1092 458 1158 b 153 1013 244 1158 171 1115 b 308 854 135 917 199 854 z m 324 988 b 304 1006 306 988 303 994 b 331 1025 306 1015 313 1025 b 349 1006 349 1025 350 1015 b 324 988 347 996 342 988 z "},"˜":{"ha":435,"x_min":0,"x_max":0,"o":"m 399 851 b 567 1093 489 851 532 894 l 417 1093 b 385 1057 413 1071 406 1057 b 251 1099 351 1057 318 1099 b 82 856 156 1099 114 1047 l 228 856 b 263 899 232 882 240 899 b 399 851 301 899 333 851 z "},".":{"ha":329,"x_min":0,"x_max":0,"o":"m 90 -11 b 282 165 217 -11 256 15 b 153 338 308 308 275 338 b -39 165 28 338 -12 313 b 90 -11 -65 22 -36 -11 z "},",":{"ha":332,"x_min":0,"x_max":0,"o":"m 279 132 b 154 338 311 313 282 338 b -39 165 29 338 -14 304 b 58 -6 -62 29 -37 -6 b 75 -4 64 -6 69 -6 b -51 -65 54 -50 18 -68 l -74 -190 b 279 132 146 -201 240 -89 z "},":":{"ha":328,"x_min":0,"x_max":0,"o":"m 154 350 b 346 525 281 350 319 376 b 217 699 372 674 343 699 b 25 525 92 699 51 674 b 154 350 -1 375 24 350 z m 90 -11 b 282 165 217 -11 256 15 b 153 338 308 313 279 338 b -39 165 28 338 -12 313 b 90 -11 -65 14 -40 -11 z "},";":{"ha":329,"x_min":0,"x_max":0,"o":"m 154 350 b 346 525 281 350 319 376 b 217 699 372 674 343 699 b 25 525 92 699 51 674 b 154 350 -1 375 24 350 z m 279 132 b 154 338 311 313 282 338 b -39 165 29 338 -14 304 b 58 -6 -62 29 -37 -6 b 75 -4 64 -6 69 -6 b -51 -65 54 -50 18 -68 l -74 -190 b 279 132 146 -201 240 -89 z "},"…":{"ha":914,"x_min":0,"x_max":0,"o":"m 690 -11 b 867 165 804 -11 840 15 b 751 338 893 313 867 338 b 575 165 639 338 601 313 b 690 -11 549 14 571 -11 z m 383 -11 b 560 165 497 -11 533 15 b 444 338 586 313 560 338 b 268 165 332 338 294 313 b 383 -11 242 14 264 -11 z m 76 -11 b 253 165 190 -11 226 15 b 138 338 279 313 253 338 b -39 165 25 338 -12 313 b 76 -11 -65 14 -43 -11 z "},"!":{"ha":326,"x_min":0,"x_max":0,"o":"m 44 294 b 149 306 64 301 99 306 b 249 294 196 306 229 301 b 365 683 267 311 332 492 l 421 1000 l 117 1000 l 61 683 b 44 294 26 488 31 311 z m 90 -11 b 272 139 214 -11 250 14 b 143 286 294 263 267 286 b -40 139 14 286 -18 263 b 90 -11 -62 13 -39 -11 z "},"¡":{"ha":326,"x_min":0,"x_max":0,"o":"m 238 821 b 56 671 114 821 78 796 b 185 524 33 547 61 524 b 368 671 314 524 346 547 b 238 821 390 797 367 821 z m 283 515 b 179 504 264 508 229 504 b 79 515 132 504 99 508 b -37 126 61 499 -4 318 l -93 -190 l 211 -190 l 267 126 b 283 515 301 322 297 499 z "},"?":{"ha":597,"x_min":0,"x_max":0,"o":"m 131 264 b 261 288 151 278 190 288 b 379 265 331 288 360 279 l 397 344 b 492 429 407 374 414 385 b 625 613 590 486 604 494 l 651 763 b 394 1018 681 925 604 1018 b 76 776 192 1018 103 929 l 43 585 l 317 585 l 349 767 b 367 790 351 785 357 790 b 375 769 376 790 378 786 l 347 608 b 279 544 343 585 328 572 b 150 400 181 490 161 458 b 131 264 143 364 136 308 z m 208 -11 b 382 126 324 -11 361 13 b 257 264 401 243 372 264 b 85 126 140 264 104 243 b 208 -11 64 11 88 -11 z "},"¿":{"ha":597,"x_min":0,"x_max":0,"o":"m 393 831 b 219 693 278 831 240 807 b 344 556 200 576 229 556 b 517 693 461 556 497 576 b 393 831 538 808 514 831 z m 471 556 b 340 532 450 542 411 532 b 222 554 271 532 242 540 l 204 475 b 110 390 194 446 188 435 b -24 207 11 333 -3 325 l -50 57 b 207 -199 -79 -106 -3 -199 b 525 43 410 -199 499 -110 l 558 235 l 285 235 l 253 53 b 235 29 250 35 244 29 b 226 50 225 29 224 33 l 254 211 b 322 275 258 235 274 247 b 451 419 421 329 440 361 b 471 556 458 456 465 511 z "},"‽":{"ha":688,"x_min":0,"x_max":0,"o":"m 418 276 l 438 351 b 715 622 474 460 685 449 l 740 757 b 458 1017 769 922 688 1017 b 68 729 213 1017 97 897 l 22 465 l 244 465 l 290 731 b 325 799 296 760 307 783 l 296 633 b 250 324 264 451 253 356 b 249 278 249 310 247 286 b 335 285 269 283 294 285 b 418 276 374 285 397 283 z m 476 633 l 507 806 b 518 740 521 790 524 768 l 500 633 b 461 556 494 600 482 583 b 476 633 467 579 472 606 z m 282 -11 b 457 126 400 -11 436 13 b 331 264 476 243 449 264 b 160 126 214 264 179 243 b 282 -11 139 11 161 -11 z "},"⸘":{"ha":688,"x_min":0,"x_max":0,"o":"m 407 831 b 232 693 289 831 253 807 b 358 556 213 576 240 556 b 529 693 475 556 510 576 b 407 831 550 808 528 831 z m 231 -197 b 621 90 476 -197 592 -78 l 667 354 l 444 354 l 399 89 b 364 21 393 60 382 36 l 393 186 b 439 496 425 368 436 464 b 440 542 440 510 442 533 b 354 535 419 536 394 535 b 271 543 315 535 292 536 l 251 468 b -26 197 215 360 4 371 l -51 63 b 231 -197 -81 -103 1 -197 z m 171 79 l 189 186 b 228 264 194 219 207 236 b 213 186 222 240 217 214 l 182 14 b 171 79 168 29 165 51 z "},"‘":{"ha":332,"x_min":0,"x_max":0,"o":"m 372 660 b 276 829 396 794 372 829 b 258 828 271 829 264 829 b 385 889 281 874 317 892 l 408 1014 b 54 693 189 1025 93 913 b 185 488 22 511 57 488 b 372 660 310 488 347 519 z "},"’":{"ha":332,"x_min":0,"x_max":0,"o":"m 397 801 b 269 1008 429 983 397 1008 b 79 835 144 1008 104 975 b 176 665 56 700 81 665 b 193 667 182 665 188 665 b 67 606 172 621 136 603 l 44 482 b 397 801 264 471 358 582 z "},"“":{"ha":546,"x_min":0,"x_max":0,"o":"m 168 569 b 319 711 268 569 299 596 b 239 844 340 828 314 844 l 226 844 b 333 901 239 883 269 901 l 353 1014 b 67 743 192 1017 99 922 b 168 569 40 594 68 569 z m 443 569 b 596 711 542 569 575 596 b 513 844 617 828 588 844 l 500 844 b 607 901 514 883 544 901 l 626 1014 b 343 743 465 1017 375 922 b 443 569 317 594 343 569 z "},"”":{"ha":546,"x_min":0,"x_max":0,"o":"m 339 835 b 240 1008 365 983 340 1008 b 88 867 142 1008 107 982 b 171 733 67 750 96 733 l 182 733 b 75 676 168 694 138 676 l 56 564 b 339 835 218 561 308 656 z m 615 835 b 515 1008 642 983 615 1008 b 364 867 415 1008 383 982 b 444 733 343 750 369 733 l 456 733 b 349 676 443 694 413 676 l 329 564 b 615 835 492 561 585 656 z "},"‚":{"ha":268,"x_min":0,"x_max":0,"o":"m 208 96 b 108 268 233 243 208 268 b -43 126 8 268 -24 243 b 36 -8 -65 7 -39 -8 l 49 -8 b -58 -67 35 -49 6 -67 l -76 -178 b 208 96 83 -182 176 -86 z "},"„":{"ha":546,"x_min":0,"x_max":0,"o":"m 210 96 b 110 268 236 244 210 268 b -43 128 11 268 -24 243 b 40 -7 -64 10 -35 -7 l 51 -7 b -56 -64 38 -46 7 -64 l -74 -176 b 210 96 88 -179 178 -85 z m 486 96 b 385 268 513 244 485 268 b 233 128 285 268 253 243 b 314 -7 213 10 239 -7 l 325 -7 b 218 -64 313 -46 282 -64 l 199 -176 b 486 96 361 -179 454 -85 z "},"‛":{"ha":332,"x_min":0,"x_max":0,"o":"m 317 490 l 336 614 b 219 676 264 611 225 628 b 249 674 229 675 239 674 b 406 843 344 674 381 708 b 278 1017 429 983 403 1017 b 75 810 150 1017 104 975 b 317 490 36 590 92 479 z "},"‟":{"ha":549,"x_min":0,"x_max":0,"o":"m 547 564 l 567 676 b 474 735 500 676 472 693 b 493 733 479 733 486 733 b 624 867 568 733 603 750 b 519 1008 643 982 618 1008 b 357 824 428 1008 383 976 b 547 564 325 644 385 561 z m 274 564 l 293 676 b 200 735 226 676 197 693 b 219 733 206 733 213 733 b 347 867 294 733 326 750 b 244 1008 367 982 344 1008 b 81 824 153 1008 107 976 b 274 564 49 644 111 561 z "},"‹":{"ha":407,"x_min":0,"x_max":0,"o":"m 358 149 l 232 406 l 461 686 l 210 686 l 0 419 l 0 407 l 124 149 z "},"›":{"ha":407,"x_min":0,"x_max":0,"o":"m 203 149 l 413 415 l 411 428 l 289 686 l 61 686 l 183 438 l -51 149 z "},"«":{"ha":679,"x_min":0,"x_max":0,"o":"m 621 149 l 494 403 l 728 686 l 493 686 l 271 413 l 271 400 l 393 149 z m 344 149 l 221 408 l 443 686 l 221 686 l 0 415 l 3 401 l 122 149 z "},"»":{"ha":679,"x_min":0,"x_max":0,"o":"m 186 149 l 408 422 l 413 435 l 290 686 l 71 686 l 193 442 l -49 149 z m 463 149 l 679 415 l 682 424 l 557 686 l 347 686 l 468 431 l 236 149 z "},"/":{"ha":456,"x_min":0,"x_max":0,"o":"m -85 0 l 214 0 l 574 1000 l 276 1000 z "},"\\":{"ha":456,"x_min":0,"x_max":0,"o":"m 100 0 l 399 0 l 388 1000 l 90 1000 z "},"|":{"ha":294,"x_min":0,"x_max":0,"o":"m -68 -62 l 199 -62 l 394 1050 l 128 1050 z "},"‖":{"ha":554,"x_min":0,"x_max":0,"o":"m 214 -37 l 463 -37 l 654 1050 l 406 1050 z m -64 -37 l 186 -37 l 378 1050 l 128 1050 z "},"¦":{"ha":294,"x_min":0,"x_max":0,"o":"m 32 511 l 299 511 l 394 1050 l 128 1050 z m -68 -62 l 199 -62 l 294 488 l 28 488 z "},"•":{"ha":356,"x_min":0,"x_max":0,"o":"m 147 235 b 354 418 271 235 329 279 b 213 600 378 558 339 600 b 8 418 88 600 32 556 b 147 235 -17 278 19 235 z "},"·":{"ha":303,"x_min":0,"x_max":0,"o":"m 126 254 b 300 411 240 254 276 278 b 182 569 324 550 296 569 b 7 411 68 569 31 550 b 126 254 -18 274 8 254 z "},"-":{"ha":439,"x_min":0,"x_max":0,"o":"m -12 290 l 410 290 l 454 543 l 32 543 z "},"­":{"ha":439,"x_min":0,"x_max":0,"o":"m -12 290 l 410 290 l 454 543 l 32 543 z "},"–":{"ha":407,"x_min":0,"x_max":0,"o":"m -12 290 l 378 290 l 422 543 l 32 543 z "},"—":{"ha":588,"x_min":0,"x_max":0,"o":"m -12 290 l 558 290 l 603 543 l 32 543 z "},"‒":{"ha":608,"x_min":0,"x_max":0,"o":"m -12 290 l 579 290 l 624 543 l 32 543 z "},"―":{"ha":782,"x_min":0,"x_max":0,"o":"m -12 290 l 753 290 l 797 543 l 32 543 z "},"(":{"ha":382,"x_min":0,"x_max":0,"o":"m 268 -196 l 314 67 b 256 171 247 64 238 67 l 339 640 b 435 753 357 747 368 753 l 479 1007 b 63 678 194 1011 110 947 l -25 183 b 268 -196 -72 -90 -31 -199 z "},")":{"ha":382,"x_min":0,"x_max":0,"o":"m -96 -196 b 322 144 207 -199 268 -158 l 404 610 b 114 1006 458 917 428 1010 l 69 751 b 124 625 132 756 143 739 l 46 185 b -51 67 26 74 10 63 z "},"[":{"ha":374,"x_min":0,"x_max":0,"o":"m 304 63 l 222 63 l 344 749 l 426 749 l 469 1000 l 118 1000 l -90 -190 l 260 -190 z "},"]":{"ha":374,"x_min":0,"x_max":0,"o":"m 254 -190 l 464 1000 l 113 1000 l 69 749 l 151 749 l 29 63 l -53 63 l -96 -190 z "},"{":{"ha":372,"x_min":0,"x_max":0,"o":"m 81 -190 l 253 -190 l 293 32 l 269 32 b 228 63 236 32 224 38 b 335 258 239 119 318 164 b 210 383 350 339 322 382 l 215 417 b 386 542 328 418 372 463 b 340 747 404 640 331 692 b 399 776 344 768 363 776 l 424 776 l 463 1000 l 288 1000 b 83 838 160 1000 100 932 b 124 585 63 722 135 650 b 43 525 115 539 93 525 l 31 525 l -14 274 l 7 274 b 67 219 57 274 74 260 b -68 -28 56 154 -47 88 b 81 -190 -83 -122 -49 -190 z "},"}":{"ha":372,"x_min":0,"x_max":0,"o":"m -90 -190 l 81 -190 b 288 -28 210 -190 271 -122 b 239 219 308 88 228 154 b 318 274 246 260 268 274 l 339 274 l 383 525 l 371 525 b 313 585 321 525 304 539 b 442 838 324 650 421 722 b 293 1000 458 932 421 1000 l 118 1000 l 79 776 l 104 776 b 151 747 140 776 156 768 b 33 542 142 692 51 640 b 160 417 19 463 50 418 l 154 383 b -15 258 42 382 0 339 b 22 63 -32 164 33 119 b -28 32 18 38 6 32 l -51 32 z "},"〈":{"ha":401,"x_min":0,"x_max":0,"o":"m 304 -190 l 253 421 l 517 1000 l 247 1000 l -7 418 l 28 -190 z "},"〉":{"ha":401,"x_min":0,"x_max":0,"o":"m 161 -190 l 414 432 l 364 1000 l 93 1000 l 154 433 l -114 -190 z "},"*":{"ha":546,"x_min":0,"x_max":0,"o":"m 475 608 l 614 790 l 451 825 l 626 861 l 550 1046 l 418 922 l 497 1078 l 283 1078 l 308 919 l 218 1044 l 79 858 l 240 825 l 68 789 l 143 607 l 275 731 l 194 572 l 408 572 l 383 732 z "},"†":{"ha":682,"x_min":0,"x_max":0,"o":"m 694 538 l 742 808 l 546 808 l 604 1139 l 335 1139 l 276 808 l 82 808 l 35 538 l 229 538 l 110 -139 l 379 -139 l 499 538 z "},"‡":{"ha":688,"x_min":0,"x_max":0,"o":"m 636 179 l 683 442 l 488 442 l 508 567 l 704 567 l 751 828 l 556 828 l 610 1139 l 340 1139 l 286 828 l 86 828 l 39 567 l 239 567 l 218 442 l 18 442 l -29 179 l 171 179 l 115 -139 l 385 -139 l 440 179 z "},"§":{"ha":617,"x_min":0,"x_max":0,"o":"m 272 522 b 288 536 274 529 276 532 b 379 488 358 515 382 504 b 367 474 379 482 376 479 b 272 522 293 494 269 504 z m 247 -36 b 576 213 472 -36 547 46 b 446 453 596 324 561 417 b 463 451 451 451 457 451 b 640 561 549 451 626 482 b 464 735 656 647 610 693 b 353 811 357 764 347 774 l 354 818 b 386 846 358 839 368 846 b 407 817 404 846 411 839 l 399 765 l 671 765 l 678 803 b 417 1029 704 956 618 1029 b 79 801 197 1029 106 943 b 211 557 60 690 97 592 b 183 558 201 558 192 558 b 13 440 90 558 28 521 b 179 265 -3 356 46 303 b 303 188 294 233 308 221 b 269 156 299 163 288 156 b 254 192 251 156 249 165 l 261 231 l -18 231 l -25 190 b 247 -36 -51 38 8 -36 z "},"¶":{"ha":817,"x_min":0,"x_max":0,"o":"m 472 0 l 608 774 l 636 774 l 500 0 l 732 0 l 907 1000 l 401 1000 b 57 694 189 1000 93 899 b 240 313 22 494 25 311 l 294 313 l 239 0 z m 333 549 b 321 660 307 549 303 557 b 371 774 340 765 349 774 l 375 774 l 335 549 z "},"^":{"ha":517,"x_min":0,"x_max":0,"o":"m 346 619 l 558 619 l 475 1000 l 247 1000 l 33 619 l 253 619 l 325 765 z "},"~":{"ha":447,"x_min":0,"x_max":0,"o":"m 382 761 b 547 1000 468 761 513 803 l 399 1000 b 375 967 396 979 390 967 b 238 1006 350 967 303 1006 b 67 764 142 1006 101 954 l 215 764 b 240 807 221 790 224 807 b 382 761 276 807 317 761 z "},"_":{"ha":601,"x_min":0,"x_max":0,"o":"m -117 -283 l 478 -283 l 514 -78 l -81 -78 z "},"'":{"ha":250,"x_min":0,"x_max":0,"o":"m 81 656 l 258 656 b 343 975 278 708 321 850 l 347 1000 l 113 1000 l 108 975 b 81 656 86 850 78 707 z "},"\"":{"ha":497,"x_min":0,"x_max":0,"o":"m 326 656 l 503 656 b 589 975 522 708 567 850 l 593 1000 l 358 1000 l 354 975 b 326 656 332 850 322 706 z m 81 656 l 258 656 b 343 975 278 708 321 850 l 347 1000 l 113 1000 l 108 975 b 81 656 86 850 78 706 z "},"‴":{"ha":743,"x_min":0,"x_max":0,"o":"m 572 656 l 749 656 b 835 975 768 708 813 850 l 839 1000 l 604 1000 l 600 975 b 572 656 578 850 568 706 z m 326 656 l 503 656 b 589 975 522 708 567 850 l 593 1000 l 358 1000 l 354 975 b 326 656 332 850 322 706 z m 81 656 l 258 656 b 343 975 278 708 321 850 l 347 1000 l 113 1000 l 108 975 b 81 656 86 850 78 706 z "},"@":{"ha":725,"x_min":0,"x_max":0,"o":"m 276 -108 b 646 88 446 -108 564 -50 l 449 88 b 299 24 417 51 386 24 b 133 274 142 24 106 117 b 201 658 133 274 175 508 b 446 901 232 832 290 901 b 617 679 619 901 643 832 l 561 367 b 526 239 540 249 540 239 b 526 310 513 239 515 251 l 614 806 l 493 806 l 447 743 b 363 813 442 793 411 813 b 224 642 275 813 244 761 l 160 279 b 263 106 138 153 182 106 b 361 172 321 106 349 142 b 496 103 375 129 415 103 b 689 279 633 103 669 169 l 760 678 b 458 1032 799 906 693 1032 b 61 672 242 1032 104 914 l -12 257 b 276 -108 -56 11 43 -108 z m 335 247 b 329 289 322 247 324 254 l 390 632 b 411 674 397 668 397 674 b 415 633 422 674 421 667 l 354 289 b 335 247 347 253 346 247 z "},"©":{"ha":828,"x_min":0,"x_max":0,"o":"m 372 -18 b 811 365 657 -18 772 140 l 857 629 b 492 1011 897 863 735 1011 b 47 619 269 1011 92 878 l 3 364 b 372 -18 -40 117 128 -18 z m 392 153 b 185 372 242 153 158 225 l 226 611 b 475 840 253 761 340 840 b 678 622 631 840 701 760 l 635 372 b 392 153 610 229 528 153 z m 390 174 b 615 368 521 174 594 246 l 638 494 l 444 494 l 425 381 b 408 349 421 354 418 349 b 406 386 400 349 400 353 l 444 608 b 461 651 451 647 454 651 b 467 618 469 651 472 650 l 449 513 l 642 513 l 660 618 b 475 819 682 750 615 819 b 246 606 347 819 271 751 b 206 374 246 604 206 374 b 390 174 183 244 263 174 z "},"®":{"ha":472,"x_min":0,"x_max":0,"o":"m 261 522 b 518 739 390 522 496 592 l 522 767 b 331 1004 544 915 465 1004 b 64 779 194 1004 89 929 l 60 754 b 261 522 35 603 122 522 z m 269 613 b 153 750 171 613 135 649 l 156 765 b 321 922 174 868 226 922 b 433 768 415 922 451 871 l 429 750 b 375 640 421 697 403 663 b 375 653 374 643 374 649 l 381 682 b 367 742 385 713 382 731 b 413 803 392 754 407 775 b 325 889 424 865 396 889 l 219 889 l 175 639 l 261 639 l 274 708 b 293 675 293 708 297 703 l 289 654 b 293 639 288 649 288 642 l 374 639 b 269 613 347 621 314 613 z m 297 818 b 324 796 321 818 326 813 b 289 772 321 776 313 772 l 285 772 l 293 818 z "},"℗":{"ha":822,"x_min":0,"x_max":0,"o":"m 371 -18 b 792 365 635 -18 749 124 l 838 629 b 486 1011 885 883 733 1011 b 68 619 267 1011 117 890 l 24 364 b 371 -18 -22 104 93 -18 z m 203 372 l 244 611 b 307 788 260 697 276 753 l 206 218 b 203 372 189 253 190 303 z m 453 657 b 468 638 468 657 471 649 l 444 501 b 424 486 443 494 435 486 l 419 486 l 450 657 z m 369 153 b 219 196 293 153 246 165 l 368 196 l 394 342 l 425 342 b 611 493 535 340 592 383 l 640 656 b 496 796 653 731 615 796 l 315 796 b 485 840 350 829 401 840 b 658 622 640 840 686 776 l 615 372 b 369 153 585 204 547 153 z "},"™":{"ha":619,"x_min":0,"x_max":0,"o":"m 342 867 l 364 1000 l 108 1000 l 86 867 l 146 867 l 94 579 l 233 579 l 285 867 z m 482 676 l 497 676 l 553 771 l 518 579 l 640 579 l 714 1000 l 593 1000 l 524 878 l 497 1000 l 376 1000 l 303 579 l 424 579 l 457 767 z "},"℠":{"ha":629,"x_min":0,"x_max":0,"o":"m 492 676 l 507 676 l 563 771 l 528 579 l 650 579 l 724 1000 l 603 1000 l 533 878 l 507 1000 l 386 1000 l 313 579 l 433 579 l 467 767 z m 176 567 b 321 683 264 567 307 606 l 331 733 b 254 844 342 799 314 821 b 215 872 218 860 214 863 l 222 908 b 229 915 224 914 226 915 b 235 900 236 915 236 910 l 228 863 l 351 863 b 357 896 353 868 357 896 b 243 1013 372 978 325 1013 b 93 900 146 1013 106 974 l 85 858 b 160 760 76 806 97 785 b 203 733 196 746 204 743 l 194 686 b 185 675 192 676 189 675 b 181 690 182 675 178 676 l 189 739 l 61 739 l 53 689 b 176 567 39 610 76 567 z "},"€":{"ha":665,"x_min":0,"x_max":0,"o":"m 628 268 l 644 360 l 367 360 l 354 288 b 331 233 346 238 344 233 b 325 288 315 233 317 238 l 342 382 l 513 382 l 560 500 l 363 500 l 367 522 l 568 522 l 614 642 l 388 642 l 403 725 b 426 779 411 775 413 779 b 432 725 440 779 440 775 l 422 663 l 699 663 l 707 714 b 457 1018 743 922 647 1018 b 131 743 275 1018 165 935 l 113 642 l 43 642 l 22 522 l 92 522 l 88 500 l 18 500 l -3 382 l 67 382 l 51 296 b 308 -15 13 75 125 -15 b 628 268 494 -15 589 50 z "},"$":{"ha":600,"x_min":0,"x_max":0,"o":"m 336 -126 l 358 -6 b 561 231 469 18 535 83 l 576 318 b 432 599 599 442 569 513 b 340 696 338 657 333 661 l 353 767 b 372 800 358 797 361 800 b 379 763 385 800 385 794 l 360 653 l 631 653 l 647 743 b 538 997 674 883 635 963 l 563 1138 l 306 1138 l 283 1007 b 72 765 168 981 99 907 l 65 726 b 200 442 40 586 65 526 b 300 315 307 376 310 371 l 288 251 b 267 218 283 221 276 218 b 258 247 257 218 254 222 l 282 379 l 1 379 l -21 256 b 101 3 -46 111 4 35 l 78 -126 z "},"¢":{"ha":582,"x_min":0,"x_max":0,"o":"m 546 257 l 567 376 l 300 376 l 278 251 b 257 213 272 215 268 213 b 250 251 246 213 244 215 l 306 563 b 326 603 313 600 315 603 b 333 563 338 603 340 600 l 313 444 l 579 444 l 594 532 b 499 796 618 668 585 756 l 524 936 l 265 936 l 243 811 b 38 558 133 781 63 700 l -11 283 b 101 8 -37 133 7 46 l 75 -135 l 333 -135 l 357 -4 b 546 257 465 24 517 99 z "},"£":{"ha":678,"x_min":0,"x_max":0,"o":"m 421 -12 b 642 221 551 -12 607 25 l 664 349 l 418 349 l 396 224 b 369 185 390 190 383 185 l 363 185 b 374 231 367 200 371 215 b 381 379 385 296 385 339 l 506 379 l 535 550 l 364 550 b 385 735 367 632 379 706 b 411 785 392 779 396 785 b 419 728 426 785 428 779 l 393 578 l 660 578 l 688 740 b 419 1015 721 919 646 1015 b 103 769 218 1015 131 921 b 138 550 89 685 106 617 l 65 550 l 36 379 l 213 379 b 231 306 224 356 229 332 b 143 331 207 321 179 331 b -46 172 51 331 -26 278 b 115 -12 -67 60 -21 -12 b 268 43 174 -12 226 8 b 421 -12 304 13 353 -12 z m 131 136 b 113 156 118 136 110 142 b 133 171 114 165 124 171 b 175 149 149 171 161 163 b 131 136 163 140 147 136 z "},"ƒ":{"ha":363,"x_min":0,"x_max":0,"o":"m 239 -37 l 294 282 l 332 282 l 376 529 l 338 529 l 376 753 b 413 776 379 769 392 776 l 419 776 l 460 1004 l 408 1004 b 122 781 229 1004 150 944 l 78 529 l 31 529 l -14 282 l 33 282 l -18 -10 b -57 -43 -22 -33 -35 -43 l -71 -43 l -110 -264 l -50 -264 b 239 -37 121 -264 210 -201 z "},"¥":{"ha":590,"x_min":0,"x_max":0,"o":"m 518 78 l 542 207 l 400 207 l 404 229 l 546 229 l 568 358 l 442 358 l 717 1000 l 440 1000 l 367 793 l 326 578 l 351 793 l 354 1000 l 81 1000 l 124 358 l 6 358 l -17 229 l 122 229 l 118 207 l -21 207 l -44 78 l 96 78 l 82 0 l 364 0 l 378 78 z "},"₡":{"ha":606,"x_min":0,"x_max":0,"o":"m 154 -158 l 285 -158 l 328 -10 b 571 268 463 8 538 83 l 606 464 l 328 464 l 297 288 b 274 233 289 238 288 233 b 268 288 258 233 260 238 l 346 725 b 369 779 354 775 356 779 b 375 725 383 779 383 775 l 346 564 l 624 564 l 650 714 b 588 964 671 833 647 915 l 644 1132 l 518 1132 l 479 1011 b 456 1015 472 1013 464 1014 l 492 1132 l 363 1132 l 325 1013 b 71 743 186 993 101 908 l -8 296 b 63 35 -31 167 -3 82 l 4 -158 l 132 -158 l 179 -10 b 201 -12 186 -11 194 -12 z "},"₢":{"ha":724,"x_min":0,"x_max":0,"o":"m 693 276 l 708 369 l 476 369 l 463 288 b 428 217 457 257 446 233 l 453 361 b 503 399 458 393 461 399 l 619 399 l 658 617 l 617 617 b 469 526 524 617 490 585 l 454 617 l 308 617 l 240 231 b 236 346 226 256 226 293 l 288 633 b 435 790 308 751 350 790 b 529 689 514 790 540 751 l 522 647 l 758 647 l 764 683 b 457 1001 793 875 683 1001 b 53 644 226 1001 93 872 l 0 339 b 300 -17 -40 115 58 -17 b 693 276 513 -17 658 83 z "},"₣":{"ha":465,"x_min":0,"x_max":0,"o":"m 403 122 l 443 350 l 272 350 l 276 375 l 447 375 l 488 603 l 317 603 l 340 731 l 510 731 l 557 1000 l 118 1000 l -57 0 l 211 0 l 232 122 z "},"₤":{"ha":678,"x_min":0,"x_max":0,"o":"m 403 -12 b 629 221 533 -12 594 25 l 646 321 l 390 321 l 376 239 b 340 186 369 197 363 186 b 329 188 336 186 333 186 b 349 253 338 208 344 231 b 363 347 356 282 360 314 l 521 347 l 540 463 l 371 463 l 371 485 l 544 485 l 565 601 l 375 601 b 385 735 376 654 379 701 b 411 785 389 757 389 785 b 419 728 426 785 429 779 l 401 629 l 668 629 l 688 740 b 419 1015 721 919 646 1015 b 103 769 218 1015 125 922 b 118 601 94 707 103 651 l 58 601 l 38 485 l 167 485 b 178 463 171 478 174 469 l 33 463 l 14 347 l 217 347 b 218 265 222 321 224 293 l 217 256 b 111 281 190 269 157 281 b -49 149 33 281 -33 236 b 93 -12 -65 56 -22 -12 b 239 46 149 -12 199 10 b 403 -12 282 14 335 -12 z m 101 121 b 88 136 92 121 86 125 b 106 150 89 144 97 150 b 143 129 117 150 129 142 b 101 121 131 124 117 121 z "},"₦":{"ha":732,"x_min":0,"x_max":0,"o":"m 288 225 l 307 647 l 313 0 l 621 0 l 672 290 l 711 290 l 746 482 l 706 482 l 711 519 l 751 519 l 786 711 l 746 711 l 796 1000 l 538 1000 l 504 804 l 482 321 l 479 1000 l 158 1000 l 108 711 l 54 711 l 19 519 l 74 519 l 68 482 l 14 482 l -21 290 l 35 290 l -17 0 l 249 0 z "},"₧":{"ha":1542,"x_min":0,"x_max":0,"o":"m 369 739 l 314 422 b 276 381 308 393 296 381 l 346 776 b 369 739 369 776 374 760 z m 249 146 b 588 415 457 146 558 247 l 611 544 l 643 544 l 588 233 b 796 0 556 51 614 0 l 1186 0 b 1507 225 1382 0 1479 74 l 1508 235 b 1365 503 1535 381 1469 450 b 1276 594 1282 544 1272 567 b 1303 625 1281 618 1288 625 b 1315 576 1319 625 1322 614 l 1310 543 l 1560 543 l 1567 582 b 1332 826 1590 717 1550 826 b 1019 610 1150 826 1047 757 l 1018 603 b 1156 338 997 479 1025 404 b 1243 281 1221 306 1246 292 l 1243 282 b 1224 271 1242 274 1238 271 l 928 271 b 881 335 883 271 869 275 l 918 544 l 992 544 l 1039 814 l 965 814 l 990 957 l 760 957 b 733 858 751 913 747 889 b 675 810 718 825 704 815 b 654 807 668 808 661 807 b 400 1000 658 933 585 1000 l 118 1000 l -57 0 l 210 0 l 235 146 z "},"₨":{"ha":1143,"x_min":0,"x_max":0,"o":"m 340 775 b 363 742 363 775 367 768 l 336 597 b 297 563 332 572 324 563 l 335 775 z m 282 297 l 272 243 b 474 0 244 81 296 0 l 788 0 b 1108 225 983 0 1081 74 l 1110 235 b 967 503 1136 381 1071 450 b 878 594 883 544 874 567 b 904 625 882 618 889 625 b 917 576 921 625 924 614 l 911 543 l 1161 543 l 1168 582 b 933 826 1192 717 1151 826 b 621 610 751 826 649 757 l 619 603 b 761 328 599 479 633 396 b 842 264 825 294 844 275 l 842 265 b 822 254 840 257 836 254 l 569 254 b 542 285 542 254 538 261 l 547 315 b 521 460 561 390 560 435 b 600 596 561 482 588 524 l 625 739 b 403 1000 660 936 588 1000 l 118 1000 l -57 0 l 199 0 l 258 340 b 282 297 281 339 288 333 z "},"₩":{"ha":994,"x_min":0,"x_max":0,"o":"m 486 371 l 551 693 l 501 371 l 467 0 l 806 0 l 882 286 l 968 286 l 1003 488 l 935 488 l 942 511 l 1007 511 l 1042 707 l 993 707 l 1071 1000 l 806 1000 l 721 638 l 653 231 l 708 639 l 740 1000 l 467 1000 l 372 639 l 281 210 l 357 638 l 407 1000 l 135 1000 l 108 707 l 58 707 l 24 511 l 90 511 l 89 488 l 19 488 l -15 286 l 71 286 l 44 0 l 388 0 z "},"₪":{"ha":1006,"x_min":0,"x_max":0,"o":"m 400 803 b 554 583 521 803 583 756 l 492 231 l 532 231 b 740 399 656 231 718 272 l 774 588 b 454 1000 824 849 678 1000 l 118 1000 l -57 0 l 169 0 l 311 803 z m 547 0 b 986 371 790 0 944 136 l 1096 1000 l 874 1000 l 772 425 b 540 206 742 247 671 206 l 458 206 b 529 604 472 282 528 596 b 381 778 553 738 501 778 l 333 778 l 197 0 z "},"₮":{"ha":506,"x_min":0,"x_max":0,"o":"m 458 333 l 481 461 l 399 438 l 407 482 l 489 506 l 511 633 l 429 610 l 453 740 l 556 740 l 601 1000 l 113 1000 l 67 740 l 172 740 l 133 522 l 44 496 l 24 371 l 111 396 l 103 350 l 15 324 l -7 199 l 81 224 l 42 0 l 322 0 l 376 310 z "},"₱":{"ha":667,"x_min":0,"x_max":0,"o":"m 371 803 b 435 721 421 803 442 764 l 433 711 l 336 711 l 353 803 z m 408 571 l 311 571 l 318 606 l 415 606 z m 294 374 l 276 374 l 293 465 l 390 465 b 294 374 379 414 347 374 z m 276 169 b 635 447 510 169 606 286 l 638 465 l 672 465 l 690 571 l 657 571 l 663 606 l 696 606 l 715 711 l 682 711 b 422 1000 703 847 638 1000 l 142 1000 l 92 711 l 60 711 l 40 606 l 72 606 l 67 571 l 35 571 l 17 465 l 49 465 l -33 0 l 211 0 l 242 169 z "},"฿":{"ha":711,"x_min":0,"x_max":0,"o":"m 297 621 l 328 793 l 357 793 l 326 621 z m 497 793 b 510 776 508 793 513 789 l 485 632 b 469 621 483 625 479 621 l 450 621 l 481 793 z m 226 224 l 261 419 l 292 419 l 257 224 z m 419 419 b 443 393 443 419 447 410 l 418 249 b 382 224 415 229 404 224 l 381 224 l 415 419 z m 379 0 b 664 179 551 0 642 54 b 694 357 664 178 694 357 b 656 508 707 428 692 476 b 738 643 699 529 725 569 l 763 788 b 543 1000 788 932 731 1000 l 517 1000 l 529 1069 l 406 1069 l 393 1000 l 118 1000 l -57 0 l 217 0 l 201 -89 l 325 -89 l 340 0 z "},"#":{"ha":813,"x_min":0,"x_max":0,"o":"m 451 468 l 375 468 l 397 544 l 474 544 z m 318 0 l 578 0 l 633 197 l 765 197 l 813 468 l 711 468 l 733 544 l 826 544 l 874 815 l 810 815 l 863 1000 l 603 1000 l 550 815 l 475 815 l 528 1000 l 267 1000 l 214 815 l 83 815 l 36 544 l 138 544 l 115 468 l 22 468 l -25 197 l 38 197 l -18 0 l 242 0 l 299 197 l 374 197 z "},"⁰":{"ha":367,"x_min":0,"x_max":0,"o":"m 250 699 b 438 847 347 699 418 739 l 474 1047 b 315 1217 496 1176 413 1217 b 122 1071 215 1217 140 1176 l 86 871 b 250 699 63 739 149 699 z m 258 842 b 254 867 250 842 250 844 l 288 1058 b 301 1083 292 1082 293 1083 b 307 1058 310 1083 311 1082 l 274 867 b 258 842 269 844 267 842 z "},"¹":{"ha":274,"x_min":0,"x_max":0,"o":"m 322 707 l 349 860 l 297 860 l 358 1207 l 239 1207 b 132 1133 221 1161 174 1136 l 107 997 l 156 997 l 131 860 l 83 860 l 57 707 z "},"²":{"ha":363,"x_min":0,"x_max":0,"o":"m 411 707 l 436 854 l 264 854 b 338 893 279 871 307 881 b 467 1029 392 915 453 944 l 475 1074 b 313 1215 492 1163 440 1215 b 121 1082 188 1215 133 1156 l 108 1008 l 278 1008 l 289 1071 b 301 1088 290 1081 294 1088 b 308 1076 310 1088 310 1082 l 301 1031 b 214 972 296 1001 257 989 b 76 832 158 953 93 922 l 56 707 z "},"³":{"ha":369,"x_min":0,"x_max":0,"o":"m 247 694 b 435 811 372 694 422 739 l 446 875 b 386 963 456 932 425 954 b 475 1043 431 971 467 993 l 482 1083 b 318 1214 497 1169 442 1214 b 122 1082 206 1214 139 1174 b 114 1038 122 1082 115 1044 l 283 1038 l 290 1072 b 303 1088 292 1082 294 1088 b 310 1074 313 1088 311 1079 l 303 1032 b 279 1014 300 1018 293 1014 l 219 1014 l 201 904 l 253 904 b 276 882 275 904 279 901 l 269 846 b 258 829 268 836 265 829 b 250 847 247 829 249 833 l 257 881 l 88 881 b 78 832 85 872 78 832 b 247 694 63 746 90 694 z "},"⁴":{"ha":400,"x_min":0,"x_max":0,"o":"m 276 949 l 313 1033 l 288 946 l 281 908 l 249 908 z m 454 758 l 481 908 l 443 908 l 496 1207 l 303 1207 l 92 899 l 67 758 l 254 758 l 246 707 l 408 707 l 417 758 z "},"⁵":{"ha":372,"x_min":0,"x_max":0,"o":"m 249 697 b 442 832 372 697 426 746 l 458 926 b 376 1051 472 1008 457 1051 b 274 996 328 1051 297 1029 l 294 1064 l 357 1064 b 503 1183 468 1064 483 1069 l 507 1207 l 167 1207 l 99 957 l 258 915 l 267 929 b 281 942 272 939 276 942 b 288 929 286 942 289 939 l 274 853 b 263 840 272 846 269 840 b 256 853 254 840 254 844 l 264 900 l 92 900 l 82 850 b 249 697 63 749 113 697 z "},"⁶":{"ha":367,"x_min":0,"x_max":0,"o":"m 435 829 l 447 899 b 363 1004 460 967 428 1004 b 269 958 319 1004 292 990 l 288 1057 b 303 1082 290 1076 293 1082 b 308 1068 310 1082 311 1078 l 300 1019 l 468 1019 l 475 1056 b 318 1215 493 1158 444 1215 b 119 1060 197 1215 136 1156 l 86 868 b 247 697 65 749 124 697 b 435 829 368 697 419 746 z m 260 836 b 251 856 251 836 249 840 l 261 911 b 275 914 267 913 271 914 b 283 899 283 914 285 908 l 275 850 b 260 836 274 842 269 836 z "},"⁷":{"ha":301,"x_min":0,"x_max":0,"o":"m 246 707 b 417 1090 292 869 333 968 l 438 1207 l 147 1207 l 121 1058 l 233 1058 b 76 707 164 969 122 868 z "},"⁸":{"ha":356,"x_min":0,"x_max":0,"o":"m 239 697 b 428 825 374 697 413 744 l 439 883 b 400 968 447 929 433 956 b 467 1050 435 982 458 1007 l 471 1072 b 314 1215 492 1182 433 1215 b 121 1089 204 1215 136 1181 l 114 1049 b 153 967 106 1004 124 981 b 83 881 113 951 90 922 l 75 839 b 239 697 56 744 103 697 z m 285 1017 b 278 1031 276 1017 276 1022 l 286 1085 b 299 1094 288 1089 290 1094 b 306 1085 307 1094 307 1089 l 297 1031 b 285 1017 296 1022 293 1017 z m 251 828 b 243 838 243 828 242 831 l 256 904 b 267 918 257 914 258 918 b 275 907 275 918 276 914 l 263 840 b 251 828 261 831 258 828 z "},"⁹":{"ha":367,"x_min":0,"x_max":0,"o":"m 283 997 b 275 1013 275 997 274 1003 l 285 1063 b 299 1076 286 1071 289 1076 b 307 1057 307 1076 310 1072 l 297 1000 b 283 997 292 999 288 997 z m 240 696 b 439 851 361 696 422 756 l 472 1043 b 311 1214 493 1163 435 1214 b 124 1082 190 1214 139 1165 l 111 1013 b 196 907 99 944 131 907 b 289 953 239 907 267 921 l 271 854 b 256 829 268 835 265 829 b 250 843 249 829 247 833 l 258 892 l 90 892 l 83 856 b 240 696 65 753 114 696 z "},"⁺":{"ha":278,"x_min":0,"x_max":0,"o":"m 360 899 l 383 1035 l 315 1035 l 328 1108 l 194 1108 l 182 1035 l 114 1035 l 90 899 l 157 899 l 144 825 l 278 825 l 290 899 z "},"⁻":{"ha":279,"x_min":0,"x_max":0,"o":"m 89 896 l 360 896 l 385 1036 l 114 1036 z "},"⁼":{"ha":246,"x_min":0,"x_max":0,"o":"m 103 972 l 340 972 l 361 1089 l 124 1089 z m 79 835 l 317 835 l 338 951 l 100 951 z "},"⁽":{"ha":214,"x_min":0,"x_max":0,"o":"m 244 607 l 274 778 b 239 861 229 781 228 794 l 271 1039 b 338 1133 282 1106 292 1128 l 364 1288 b 122 1068 225 1283 153 1242 l 85 858 b 244 607 53 667 111 614 z "},"⁾":{"ha":215,"x_min":0,"x_max":0,"o":"m 40 607 b 282 821 175 614 249 629 l 319 1031 b 158 1288 350 1204 297 1283 l 132 1135 b 165 1039 175 1129 176 1106 l 133 861 b 69 779 122 794 115 781 z "},"₀":{"ha":367,"x_min":0,"x_max":0,"o":"m 126 -10 b 314 139 224 -10 294 31 l 350 339 b 192 508 372 468 289 508 b -1 363 92 508 17 468 l -37 163 b 126 -10 -61 31 25 -10 z m 135 133 b 131 158 126 133 126 136 l 164 350 b 178 375 168 374 169 375 b 183 350 186 375 188 374 l 150 158 b 135 133 146 136 143 133 z "},"₁":{"ha":274,"x_min":0,"x_max":0,"o":"m 199 0 l 225 153 l 174 153 l 235 500 l 115 500 b 8 426 97 454 50 429 l -17 290 l 32 290 l 7 153 l -40 153 l -67 0 z "},"₂":{"ha":363,"x_min":0,"x_max":0,"o":"m 288 0 l 313 147 l 140 147 b 214 186 156 164 183 174 b 343 322 268 208 329 238 l 351 367 b 189 508 368 456 317 508 b -3 375 64 508 10 449 l -15 301 l 154 301 l 165 364 b 178 381 167 374 171 381 b 185 369 186 381 186 375 l 178 324 b 90 265 172 294 133 282 b -47 125 35 246 -31 215 l -68 0 z "},"₃":{"ha":369,"x_min":0,"x_max":0,"o":"m 124 -12 b 311 104 249 -12 299 32 l 322 168 b 263 256 332 225 301 247 b 351 336 307 264 343 286 l 358 376 b 194 507 374 463 318 507 b -1 375 82 507 15 467 b -10 331 -1 375 -8 338 l 160 331 l 167 365 b 179 381 168 375 171 381 b 186 367 189 381 188 372 l 179 325 b 156 307 176 311 169 307 l 96 307 l 78 197 l 129 197 b 153 175 151 197 156 194 l 146 139 b 135 122 144 129 142 122 b 126 140 124 122 125 126 l 133 174 l -36 174 b -46 125 -39 165 -46 125 b 124 -12 -61 39 -33 -12 z "},"₄":{"ha":400,"x_min":0,"x_max":0,"o":"m 153 242 l 189 326 l 164 239 l 157 201 l 125 201 z m 331 51 l 357 201 l 319 201 l 372 500 l 179 500 l -32 192 l -57 51 l 131 51 l 122 0 l 285 0 l 293 51 z "},"₅":{"ha":372,"x_min":0,"x_max":0,"o":"m 125 -10 b 318 125 249 -10 303 39 l 335 219 b 253 344 349 301 333 344 b 150 289 204 344 174 322 l 171 357 l 233 357 b 379 476 344 357 360 363 l 383 500 l 43 500 l -25 250 l 135 208 l 143 222 b 157 235 149 232 153 235 b 164 222 163 235 165 232 l 150 146 b 139 133 149 139 146 133 b 132 146 131 133 131 138 l 140 193 l -32 193 l -42 143 b 125 -10 -61 42 -11 -10 z "},"₆":{"ha":367,"x_min":0,"x_max":0,"o":"m 311 122 l 324 192 b 239 297 336 260 304 297 b 146 251 196 297 168 283 l 164 350 b 179 375 167 369 169 375 b 185 361 186 375 188 371 l 176 313 l 344 313 l 351 349 b 194 508 369 451 321 508 b -4 353 74 508 13 449 l -37 161 b 124 -10 -58 42 0 -10 b 311 122 244 -10 296 39 z m 136 129 b 128 149 128 129 125 133 l 138 204 b 151 207 143 206 147 207 b 160 192 160 207 161 201 l 151 143 b 136 129 150 135 146 129 z "},"₇":{"ha":301,"x_min":0,"x_max":0,"o":"m 122 0 b 293 383 168 163 210 261 l 314 500 l 24 500 l -3 351 l 110 351 b -47 0 40 263 -1 161 z "},"₈":{"ha":356,"x_min":0,"x_max":0,"o":"m 115 -10 b 304 118 250 -10 289 38 l 315 176 b 276 261 324 222 310 249 b 343 343 311 275 335 300 l 347 365 b 190 508 368 475 310 508 b -3 382 81 508 13 474 l -10 342 b 29 260 -18 297 0 274 b -40 174 -11 244 -33 215 l -49 132 b 115 -10 -68 38 -21 -10 z m 161 310 b 154 324 153 310 153 315 l 163 378 b 175 388 164 382 167 388 b 182 378 183 388 183 382 l 174 324 b 161 310 172 315 169 310 z m 128 121 b 119 131 119 121 118 124 l 132 197 b 143 211 133 207 135 211 b 151 200 151 211 153 207 l 139 133 b 128 121 138 124 135 121 z "},"₉":{"ha":367,"x_min":0,"x_max":0,"o":"m 160 290 b 151 306 151 290 150 296 l 161 356 b 175 369 163 364 165 369 b 183 350 183 369 186 365 l 174 293 b 160 290 168 292 164 290 z m 117 -11 b 315 144 238 -11 299 49 l 349 336 b 188 507 369 456 311 507 b 0 375 67 507 15 458 l -12 306 b 72 200 -25 238 7 200 b 165 246 115 200 143 214 l 147 147 b 132 122 144 128 142 122 b 126 136 125 122 124 126 l 135 185 l -33 185 l -40 149 b 117 -11 -58 46 -10 -11 z "},"₊":{"ha":281,"x_min":0,"x_max":0,"o":"m 238 192 l 261 328 l 193 328 l 206 401 l 72 401 l 60 328 l -8 328 l -32 192 l 35 192 l 22 118 l 156 118 l 168 192 z "},"₋":{"ha":282,"x_min":0,"x_max":0,"o":"m -33 189 l 238 189 l 263 329 l -8 329 z "},"₌":{"ha":249,"x_min":0,"x_max":0,"o":"m -19 265 l 218 265 l 239 382 l 1 382 z m -43 128 l 194 128 l 215 244 l -22 244 z "},"₍":{"ha":214,"x_min":0,"x_max":0,"o":"m 121 -100 l 150 71 b 115 154 106 74 104 88 l 147 332 b 214 426 158 399 168 421 l 240 581 b -1 361 101 576 29 535 l -39 151 b 121 -100 -71 -40 -12 -93 z "},"₎":{"ha":215,"x_min":0,"x_max":0,"o":"m -83 -100 b 158 114 51 -93 125 -78 l 196 324 b 35 581 226 497 174 576 l 8 428 b 42 332 51 422 53 399 l 10 154 b -54 72 -1 88 -8 74 z "},"⁄":{"ha":794,"x_min":0,"x_max":0,"o":"m 436 515 l 881 928 l 689 1042 l 431 519 z m 164 -42 l 425 503 l 421 507 l -29 85 z "},"⅟":{"ha":794,"x_min":0,"x_max":0,"o":"m 436 515 l 881 928 l 689 1042 l 431 519 z m 164 -42 l 425 503 l 421 507 l -29 85 z m 344 499 l 371 651 l 319 651 l 381 999 l 261 999 b 154 925 243 953 196 928 l 129 789 l 178 789 l 153 651 l 106 651 l 79 499 z "},"½":{"ha":794,"x_min":0,"x_max":0,"o":"m 436 515 l 881 928 l 689 1042 l 431 519 z m 164 -42 l 425 503 l 421 507 l -29 85 z m 344 499 l 371 651 l 319 651 l 381 999 l 261 999 b 154 925 243 953 196 928 l 129 789 l 178 789 l 153 651 l 106 651 l 79 499 z m 710 0 l 735 147 l 563 147 b 636 186 578 164 606 174 b 765 322 690 208 751 238 l 774 367 b 611 508 790 456 739 508 b 419 375 486 508 432 449 l 407 301 l 576 301 l 588 364 b 600 381 589 374 593 381 b 607 369 608 381 608 375 l 600 324 b 513 265 594 294 556 282 b 375 125 457 246 392 215 l 354 0 z "},"⅓":{"ha":794,"x_min":0,"x_max":0,"o":"m 436 515 l 881 928 l 689 1042 l 431 519 z m 164 -42 l 425 503 l 421 507 l -29 85 z m 344 499 l 371 651 l 319 651 l 381 999 l 261 999 b 154 925 243 953 196 928 l 129 789 l 178 789 l 153 651 l 106 651 l 79 499 z m 533 -12 b 721 104 658 -12 708 32 l 732 168 b 672 256 742 225 711 247 b 761 336 717 264 753 286 l 768 376 b 604 507 783 463 728 507 b 408 375 492 507 425 467 b 400 331 408 375 401 338 l 569 331 l 576 365 b 589 381 578 375 581 381 b 596 367 599 381 597 372 l 589 325 b 565 307 586 311 579 307 l 506 307 l 488 197 l 539 197 b 563 175 561 197 565 194 l 556 139 b 544 122 554 129 551 122 b 536 140 533 122 535 126 l 543 174 l 374 174 b 364 125 371 165 364 125 b 533 -12 349 39 376 -12 z "},"⅔":{"ha":794,"x_min":0,"x_max":0,"o":"m 436 515 l 881 928 l 689 1042 l 431 519 z m 164 -42 l 425 503 l 421 507 l -29 85 z m 392 499 l 417 646 l 244 646 b 318 685 260 663 288 672 b 447 821 372 707 433 736 l 456 865 b 293 1007 472 954 421 1007 b 101 874 168 1007 114 947 l 89 800 l 258 800 l 269 863 b 282 879 271 872 275 879 b 289 868 290 879 290 874 l 282 822 b 194 764 276 793 238 781 b 57 624 139 744 74 714 l 36 499 z m 533 -12 b 721 104 658 -12 708 32 l 732 168 b 672 256 742 225 711 247 b 761 336 717 264 753 286 l 768 376 b 604 507 783 463 728 507 b 408 375 492 507 425 467 b 400 331 408 375 401 338 l 569 331 l 576 365 b 589 381 578 375 581 381 b 596 367 599 381 597 372 l 589 325 b 565 307 586 311 579 307 l 506 307 l 488 197 l 539 197 b 563 175 561 197 565 194 l 556 139 b 544 122 554 129 551 122 b 536 140 533 122 535 126 l 543 174 l 374 174 b 364 125 371 165 364 125 b 533 -12 349 39 376 -12 z "},"¼":{"ha":794,"x_min":0,"x_max":0,"o":"m 436 515 l 881 928 l 689 1042 l 431 519 z m 164 -42 l 425 503 l 421 507 l -29 85 z m 532 242 l 568 326 l 543 239 l 536 201 l 504 201 z m 710 51 l 736 201 l 699 201 l 751 500 l 558 500 l 347 192 l 322 51 l 510 51 l 501 0 l 664 0 l 672 51 z m 344 499 l 371 651 l 319 651 l 381 999 l 261 999 b 154 925 243 953 196 928 l 129 789 l 178 789 l 153 651 l 106 651 l 79 499 z "},"¾":{"ha":794,"x_min":0,"x_max":0,"o":"m 444 515 l 889 928 l 697 1042 l 439 519 z m 172 -42 l 433 503 l 429 507 l -21 85 z m 532 242 l 568 326 l 543 239 l 536 201 l 504 201 z m 710 51 l 736 201 l 699 201 l 751 500 l 558 500 l 347 192 l 322 51 l 510 51 l 501 0 l 664 0 l 672 51 z m 219 486 b 407 603 344 486 394 531 l 418 667 b 358 754 428 724 397 746 b 447 835 403 763 439 785 l 454 875 b 290 1006 469 961 414 1006 b 94 874 178 1006 111 965 b 86 829 94 874 88 836 l 256 829 l 263 864 b 275 879 264 874 267 879 b 282 865 285 879 283 871 l 275 824 b 251 806 272 810 265 806 l 192 806 l 174 696 l 225 696 b 249 674 247 696 251 693 l 242 638 b 231 621 240 628 238 621 b 222 639 219 621 221 625 l 229 672 l 60 672 b 50 624 57 664 50 624 b 219 486 35 538 63 486 z "},"⅕":{"ha":794,"x_min":0,"x_max":0,"o":"m 436 515 l 881 928 l 689 1042 l 431 519 z m 164 -42 l 425 503 l 421 507 l -29 85 z m 540 -10 b 733 125 664 -10 718 39 l 750 219 b 668 344 764 301 749 344 b 565 289 619 344 589 322 l 586 357 l 649 357 b 794 476 760 357 775 363 l 799 500 l 458 500 l 390 250 l 550 208 l 558 222 b 572 235 564 232 568 235 b 579 222 578 235 581 232 l 565 146 b 554 133 564 139 561 133 b 547 146 546 133 546 138 l 556 193 l 383 193 l 374 143 b 540 -10 354 42 404 -10 z m 344 499 l 371 651 l 319 651 l 381 999 l 261 999 b 154 925 243 953 196 928 l 129 789 l 178 789 l 153 651 l 106 651 l 79 499 z "},"⅖":{"ha":794,"x_min":0,"x_max":0,"o":"m 436 515 l 881 928 l 689 1042 l 431 519 z m 164 -42 l 425 503 l 421 507 l -29 85 z m 540 -10 b 733 125 664 -10 718 39 l 750 219 b 668 344 764 301 749 344 b 565 289 619 344 589 322 l 586 357 l 649 357 b 794 476 760 357 775 363 l 799 500 l 458 500 l 390 250 l 550 208 l 558 222 b 572 235 564 232 568 235 b 579 222 578 235 581 232 l 565 146 b 554 133 564 139 561 133 b 547 146 546 133 546 138 l 556 193 l 383 193 l 374 143 b 540 -10 354 42 404 -10 z m 390 499 l 415 646 l 243 646 b 317 685 258 663 286 672 b 446 821 371 707 432 736 l 454 865 b 292 1007 471 954 419 1007 b 100 874 167 1007 113 947 l 88 800 l 257 800 l 268 863 b 281 879 269 872 274 879 b 288 868 289 879 289 874 l 281 822 b 193 764 275 793 236 781 b 56 624 138 744 72 714 l 35 499 z "},"⅗":{"ha":794,"x_min":0,"x_max":0,"o":"m 436 515 l 881 928 l 689 1042 l 431 519 z m 164 -42 l 425 503 l 421 507 l -29 85 z m 540 -10 b 733 125 664 -10 718 39 l 750 219 b 668 344 764 301 749 344 b 565 289 619 344 589 322 l 586 357 l 649 357 b 794 476 760 357 775 363 l 799 500 l 458 500 l 390 250 l 550 208 l 558 222 b 572 235 564 232 568 235 b 579 222 578 235 581 232 l 565 146 b 554 133 564 139 561 133 b 547 146 546 133 546 138 l 556 193 l 383 193 l 374 143 b 540 -10 354 42 404 -10 z m 221 486 b 408 603 346 486 396 531 l 419 667 b 360 754 429 724 399 746 b 449 835 404 763 440 785 l 456 875 b 292 1006 471 961 415 1006 b 96 874 179 1006 113 965 b 88 829 96 874 89 836 l 257 829 l 264 864 b 276 879 265 874 268 879 b 283 865 286 879 285 871 l 276 824 b 253 806 274 810 267 806 l 193 806 l 175 696 l 226 696 b 250 674 249 696 253 693 l 243 638 b 232 621 242 628 239 621 b 224 639 221 621 222 625 l 231 672 l 61 672 b 51 624 58 664 51 624 b 221 486 36 538 64 486 z "},"⅘":{"ha":806,"x_min":0,"x_max":0,"o":"m 447 515 l 892 928 l 700 1042 l 442 519 z m 175 -42 l 436 503 l 432 507 l -18 85 z m 551 -10 b 744 125 675 -10 729 39 l 761 219 b 679 344 775 301 760 344 b 576 289 631 344 600 322 l 597 357 l 660 357 b 806 476 771 357 786 363 l 810 500 l 469 500 l 401 250 l 561 208 l 569 222 b 583 235 575 232 579 235 b 590 222 589 235 592 232 l 576 146 b 565 133 575 139 572 133 b 558 146 557 133 557 138 l 567 193 l 394 193 l 385 143 b 551 -10 365 42 415 -10 z m 243 740 l 279 825 l 254 738 l 247 700 l 215 700 z m 421 550 l 447 700 l 410 700 l 463 999 l 269 999 l 58 690 l 33 550 l 221 550 l 213 499 l 375 499 l 383 550 z "},"⅙":{"ha":794,"x_min":0,"x_max":0,"o":"m 436 515 l 881 928 l 689 1042 l 431 519 z m 164 -42 l 425 503 l 421 507 l -29 85 z m 344 499 l 371 651 l 319 651 l 381 999 l 261 999 b 154 925 243 953 196 928 l 129 789 l 178 789 l 153 651 l 106 651 l 79 499 z m 731 122 l 743 192 b 658 297 756 260 724 297 b 565 251 615 297 588 283 l 583 350 b 599 375 586 369 589 375 b 604 361 606 375 607 371 l 596 313 l 764 313 l 771 349 b 614 508 789 451 740 508 b 415 353 493 508 432 449 l 382 161 b 543 -10 361 42 419 -10 b 731 122 664 -10 715 39 z m 556 129 b 547 149 547 129 544 133 l 557 204 b 571 207 563 206 567 207 b 579 192 579 207 581 201 l 571 143 b 556 129 569 135 565 129 z "},"⅚":{"ha":794,"x_min":0,"x_max":0,"o":"m 436 515 l 881 928 l 689 1042 l 431 519 z m 164 -42 l 425 503 l 421 507 l -29 85 z m 217 489 b 410 624 340 489 394 538 l 426 718 b 344 843 440 800 425 843 b 242 788 296 843 265 821 l 263 856 l 325 856 b 471 975 436 856 451 861 l 475 999 l 135 999 l 67 749 l 226 707 l 235 721 b 249 733 240 731 244 733 b 256 721 254 733 257 731 l 242 644 b 231 632 240 638 238 632 b 224 644 222 632 222 636 l 232 692 l 60 692 l 50 642 b 217 489 31 540 81 489 z m 731 122 l 743 192 b 658 297 756 260 724 297 b 565 251 615 297 588 283 l 583 350 b 599 375 586 369 589 375 b 604 361 606 375 607 371 l 596 313 l 764 313 l 771 349 b 614 508 789 451 740 508 b 415 353 493 508 432 449 l 382 161 b 543 -10 361 42 419 -10 b 731 122 664 -10 715 39 z m 556 129 b 547 149 547 129 544 133 l 557 204 b 571 207 563 206 567 207 b 579 192 579 207 581 201 l 571 143 b 556 129 569 135 565 129 z "},"⅛":{"ha":794,"x_min":0,"x_max":0,"o":"m 436 515 l 881 928 l 689 1042 l 431 519 z m 164 -42 l 425 503 l 421 507 l -29 85 z m 344 499 l 371 651 l 319 651 l 381 999 l 261 999 b 154 925 243 953 196 928 l 129 789 l 178 789 l 153 651 l 106 651 l 79 499 z m 547 -10 b 736 118 682 -10 721 38 l 747 176 b 708 261 756 222 742 249 b 775 343 743 275 767 300 l 779 365 b 622 508 800 475 742 508 b 429 382 513 508 444 474 l 422 342 b 461 260 414 297 432 274 b 392 174 421 244 399 215 l 383 132 b 547 -10 364 38 411 -10 z m 593 310 b 586 324 585 310 585 315 l 594 378 b 607 388 596 382 599 388 b 614 378 615 388 615 382 l 606 324 b 593 310 604 315 601 310 z m 560 121 b 551 131 551 121 550 124 l 564 197 b 575 211 565 207 567 211 b 583 200 583 211 585 207 l 571 133 b 560 121 569 124 567 121 z "},"⅜":{"ha":794,"x_min":0,"x_max":0,"o":"m 436 515 l 881 928 l 689 1042 l 431 519 z m 164 -42 l 425 503 l 421 507 l -29 85 z m 547 -10 b 736 118 682 -10 721 38 l 747 176 b 708 261 756 222 742 249 b 775 343 743 275 767 300 l 779 365 b 622 508 800 475 742 508 b 429 382 513 508 444 474 l 422 342 b 461 260 414 297 432 274 b 392 174 421 244 399 215 l 383 132 b 547 -10 364 38 411 -10 z m 593 310 b 586 324 585 310 585 315 l 594 378 b 607 388 596 382 599 388 b 614 378 615 388 615 382 l 606 324 b 593 310 604 315 601 310 z m 560 121 b 551 131 551 121 550 124 l 564 197 b 575 211 565 207 567 211 b 583 200 583 211 585 207 l 571 133 b 560 121 569 124 567 121 z m 201 486 b 389 603 326 486 376 531 l 400 667 b 340 754 410 724 379 746 b 429 835 385 763 421 785 l 436 875 b 272 1006 451 961 396 1006 b 76 874 160 1006 93 965 b 68 829 76 874 69 836 l 238 829 l 244 864 b 257 879 246 874 249 879 b 264 865 267 879 265 871 l 257 824 b 233 806 254 810 247 806 l 174 806 l 156 696 l 207 696 b 231 674 229 696 233 693 l 224 638 b 213 621 222 628 219 621 b 204 639 201 621 203 625 l 211 672 l 42 672 b 32 624 39 664 32 624 b 201 486 17 538 44 486 z "},"⅝":{"ha":794,"x_min":0,"x_max":0,"o":"m 436 515 l 881 928 l 689 1042 l 431 519 z m 164 -42 l 425 503 l 421 507 l -29 85 z m 547 -10 b 736 118 682 -10 721 38 l 747 176 b 708 261 756 222 742 249 b 775 343 743 275 767 300 l 779 365 b 622 508 800 475 742 508 b 429 382 513 508 444 474 l 422 342 b 461 260 414 297 432 274 b 392 174 421 244 399 215 l 383 132 b 547 -10 364 38 411 -10 z m 593 310 b 586 324 585 310 585 315 l 594 378 b 607 388 596 382 599 388 b 614 378 615 388 615 382 l 606 324 b 593 310 604 315 601 310 z m 560 121 b 551 131 551 121 550 124 l 564 197 b 575 211 565 207 567 211 b 583 200 583 211 585 207 l 571 133 b 560 121 569 124 567 121 z m 221 489 b 414 624 344 489 399 538 l 431 718 b 349 843 444 800 429 843 b 246 788 300 843 269 821 l 267 856 l 329 856 b 475 975 440 856 456 861 l 479 999 l 139 999 l 71 749 l 231 707 l 239 721 b 253 733 244 731 249 733 b 260 721 258 733 261 731 l 246 644 b 235 632 244 638 242 632 b 228 644 226 632 226 636 l 236 692 l 64 692 l 54 642 b 221 489 35 540 85 489 z "},"⅞":{"ha":794,"x_min":0,"x_max":0,"o":"m 436 515 l 881 928 l 689 1042 l 431 519 z m 164 -42 l 425 503 l 421 507 l -29 85 z m 547 -10 b 736 118 682 -10 721 38 l 747 176 b 708 261 756 222 742 249 b 775 343 743 275 767 300 l 779 365 b 622 508 800 475 742 508 b 429 382 513 508 444 474 l 422 342 b 461 260 414 297 432 274 b 392 174 421 244 399 215 l 383 132 b 547 -10 364 38 411 -10 z m 593 310 b 586 324 585 310 585 315 l 594 378 b 607 388 596 382 599 388 b 614 378 615 388 615 382 l 606 324 b 593 310 604 315 601 310 z m 560 121 b 551 131 551 121 550 124 l 564 197 b 575 211 565 207 567 211 b 583 200 583 211 585 207 l 571 133 b 560 121 569 124 567 121 z m 268 499 b 439 882 314 661 356 760 l 460 999 l 169 999 l 143 850 l 256 850 b 99 499 186 761 144 660 z "},"%":{"ha":853,"x_min":0,"x_max":0,"o":"m 215 521 b 414 690 325 521 393 571 b 442 846 414 690 440 842 b 279 1015 461 960 386 1015 b 81 846 161 1015 101 961 b 53 690 81 844 53 690 b 215 521 32 572 100 521 z m -71 0 l 194 0 l 969 1000 l 711 1000 z m 229 665 b 225 694 221 665 219 668 l 251 843 b 267 875 256 869 258 875 b 271 843 274 875 275 871 l 244 694 b 229 665 239 667 236 665 z m 606 -17 b 806 153 736 -17 785 33 b 829 286 806 153 828 282 b 669 456 849 400 776 456 b 468 286 564 456 488 401 b 444 153 468 285 444 153 b 606 -17 424 35 490 -17 z m 621 128 b 617 157 613 128 611 131 l 638 283 b 654 315 643 310 646 315 b 657 283 661 315 663 311 l 636 157 b 621 128 631 129 628 128 z "},"‰":{"ha":1232,"x_min":0,"x_max":0,"o":"m 215 521 b 414 690 325 521 393 571 b 442 846 414 690 440 842 b 279 1015 461 960 386 1015 b 81 846 161 1015 101 961 b 53 690 81 844 53 690 b 215 521 32 572 100 521 z m -71 0 l 194 0 l 969 1000 l 711 1000 z m 229 665 b 225 694 221 665 219 668 l 251 843 b 267 875 256 869 258 875 b 271 843 274 875 275 871 l 244 694 b 229 665 239 667 236 665 z m 985 -17 b 1185 153 1115 -17 1164 33 b 1208 286 1185 153 1207 282 b 1049 456 1228 400 1156 456 b 847 286 943 456 867 401 b 824 153 847 285 824 153 b 985 -17 803 35 869 -17 z m 606 -17 b 806 153 736 -17 785 33 b 829 286 806 153 828 282 b 669 456 849 400 776 456 b 468 286 564 456 488 401 b 444 153 468 285 444 153 b 606 -17 424 35 490 -17 z m 1000 128 b 996 157 992 128 990 131 l 1017 283 b 1033 315 1022 310 1025 315 b 1036 283 1040 315 1042 311 l 1015 157 b 1000 128 1010 129 1007 128 z m 621 128 b 617 157 613 128 611 131 l 638 283 b 654 315 643 310 646 315 b 657 283 661 315 663 311 l 636 157 b 621 128 631 129 628 128 z "},"№":{"ha":1083,"x_min":0,"x_max":0,"o":"m 894 453 b 1118 651 1028 453 1090 500 l 1146 804 b 967 1017 1172 947 1100 1017 b 736 822 839 1017 761 957 l 710 676 b 894 453 682 519 763 453 z m 907 617 b 900 646 899 617 894 619 l 933 825 b 950 857 939 853 942 857 b 956 825 958 857 961 853 l 922 646 b 907 617 917 619 914 617 z m 242 272 l 264 614 l 279 0 l 572 0 l 747 1000 l 500 1000 l 460 771 l 440 369 l 418 1000 l 118 1000 l -57 0 l 194 0 z m 629 217 l 1042 217 l 1079 429 l 667 429 z "},"¤":{"ha":619,"x_min":0,"x_max":0,"o":"m 313 436 b 300 453 303 436 299 443 l 318 556 b 338 571 319 564 326 571 b 351 556 347 571 353 565 l 333 453 b 313 436 332 443 324 436 z m 282 243 b 369 256 313 243 342 247 l 446 149 l 604 275 l 531 378 b 568 475 549 407 561 439 l 578 535 b 575 635 585 571 583 606 l 689 739 l 574 861 l 457 754 b 375 767 432 763 404 767 b 288 754 344 767 315 763 l 208 863 l 53 738 l 128 636 b 88 533 108 606 94 571 l 78 474 b 79 372 71 436 71 401 l -33 268 l 88 144 l 201 253 b 282 243 226 246 253 243 z "},"←":{"ha":978,"x_min":0,"x_max":0,"o":"m 931 382 l 931 622 l 426 622 b 571 825 486 675 542 751 l 288 825 b 56 561 256 735 156 622 l 56 440 b 288 179 156 376 254 269 l 582 179 b 425 382 550 256 488 331 z "},"→":{"ha":978,"x_min":0,"x_max":0,"o":"m 719 179 b 953 440 754 269 853 376 l 953 561 b 721 825 853 622 753 735 l 438 825 b 581 622 467 751 522 675 l 78 622 l 78 382 l 582 382 b 426 179 519 331 458 256 z "},"↑":{"ha":978,"x_min":0,"x_max":0,"o":"m 832 425 l 832 707 b 569 938 738 740 632 838 l 453 938 b 186 707 389 838 276 740 l 186 425 b 389 574 271 458 339 513 l 389 72 l 629 72 l 629 574 b 832 425 679 513 747 458 z "},"↓":{"ha":978,"x_min":0,"x_max":0,"o":"m 564 58 b 831 289 626 158 738 256 l 831 571 b 628 424 747 538 678 483 l 628 924 l 388 924 l 388 421 b 185 571 338 483 269 538 l 185 289 b 447 58 276 256 383 158 z "},"↖":{"ha":978,"x_min":0,"x_max":0,"o":"m 899 283 l 542 639 b 790 676 621 631 707 640 l 589 876 b 240 853 501 832 358 826 l 158 771 b 135 419 185 657 175 507 l 333 222 b 372 469 371 304 381 392 l 728 115 z "},"↗":{"ha":978,"x_min":0,"x_max":0,"o":"m 699 222 l 899 421 b 876 767 856 510 850 653 l 794 849 b 440 875 679 825 529 832 l 242 675 b 490 638 325 640 413 629 l 133 283 l 304 115 l 661 468 b 699 222 653 390 664 306 z "},"↘":{"ha":978,"x_min":0,"x_max":0,"o":"m 790 139 l 872 221 b 897 572 846 335 856 483 l 697 769 b 658 521 660 686 650 599 l 303 876 l 132 707 l 490 351 b 240 315 411 361 324 351 l 442 115 b 790 139 528 158 672 165 z "},"↙":{"ha":978,"x_min":0,"x_max":0,"o":"m 590 115 l 792 314 b 540 353 708 351 619 361 l 897 707 l 726 876 l 371 521 b 335 768 379 599 369 685 l 133 568 b 157 222 176 483 181 339 l 239 140 b 590 115 354 167 501 157 z "},"○":{"ha":1093,"x_min":0,"x_max":0,"o":"m 561 -15 b 1083 500 871 -15 1083 203 b 561 1015 1083 799 867 1015 b 40 500 253 1015 40 794 b 561 -15 40 199 253 -15 z m 561 351 b 424 500 471 351 424 418 b 561 650 424 583 471 650 b 699 500 649 650 699 583 b 561 351 699 418 649 351 z "},"●":{"ha":1093,"x_min":0,"x_max":0,"o":"m 561 -15 b 1083 500 871 -15 1083 203 b 561 1015 1083 799 867 1015 b 40 500 253 1015 40 794 b 561 -15 40 199 253 -15 z "},"■":{"ha":1183,"x_min":0,"x_max":0,"o":"m 103 0 l 1111 0 l 1111 1000 l 103 1000 z "},"□":{"ha":1183,"x_min":0,"x_max":0,"o":"m 103 0 l 1111 0 l 1111 1000 l 103 1000 z m 500 392 l 500 610 l 715 610 l 715 392 z "},"⊠":{"ha":1183,"x_min":0,"x_max":0,"o":"m 103 0 l 1111 0 l 1111 1000 l 103 1000 z m 500 392 l 500 610 l 715 610 l 715 392 z m 664 408 l 697 442 l 643 497 l 699 553 l 663 588 l 608 532 l 556 586 l 521 551 l 575 497 l 522 443 l 556 410 l 610 464 z "},"▪":{"ha":971,"x_min":0,"x_max":0,"o":"m 74 0 l 900 0 l 900 822 l 74 822 z "},"▫":{"ha":971,"x_min":0,"x_max":0,"o":"m 74 0 l 900 0 l 900 822 l 74 822 z m 396 319 l 396 504 l 576 504 l 576 319 z "},"▲":{"ha":1243,"x_min":0,"x_max":0,"o":"m 36 0 l 1238 0 l 638 1035 z "},"▼":{"ha":1243,"x_min":0,"x_max":0,"o":"m 638 -17 l 1238 1018 l 36 1018 z "},"◄":{"ha":1243,"x_min":0,"x_max":0,"o":"m 1125 -81 l 1125 1117 l 86 519 z "},"►":{"ha":1243,"x_min":0,"x_max":0,"o":"m 149 -81 l 1188 519 l 149 1117 z "},"◤":{"ha":1243,"x_min":0,"x_max":0,"o":"m 1210 -76 l 897 1081 l 49 236 z "},"◥":{"ha":1243,"x_min":0,"x_max":0,"o":"m 69 -82 l 1231 229 l 383 1075 z "},"◢":{"ha":1243,"x_min":0,"x_max":0,"o":"m 383 -103 l 1232 744 l 71 1054 z "},"◣":{"ha":1243,"x_min":0,"x_max":0,"o":"m 893 -103 l 1206 1054 l 44 744 z "},"◎":{"ha":1265,"x_min":0,"x_max":0,"o":"m 649 -14 b 1161 500 950 -14 1161 203 b 649 1013 1161 799 946 1013 b 135 500 346 1013 135 794 b 649 -14 135 199 346 -14 z m 649 168 b 318 500 461 168 318 310 b 649 833 318 690 461 833 b 978 500 838 833 978 686 b 649 168 978 310 838 168 z m 650 261 b 888 499 786 261 888 365 b 650 736 888 636 785 736 b 410 499 515 736 410 636 b 650 261 410 363 511 261 z m 650 418 b 574 499 604 418 574 453 b 650 579 574 546 604 579 b 725 499 694 579 725 546 b 650 418 725 453 694 418 z "},"★":{"ha":1247,"x_min":0,"x_max":0,"o":"m 375 119 l 635 307 l 896 119 l 796 424 l 1057 610 l 736 611 l 636 915 l 536 611 l 214 613 l 475 425 z "},"☼":{"ha":1286,"x_min":0,"x_max":0,"o":"m 640 792 l 669 792 l 693 990 l 617 990 z m 813 747 l 935 907 l 868 946 l 792 760 z m 496 747 l 518 760 l 440 946 l 375 907 z m 917 636 l 1104 714 l 1063 776 l 903 658 z m 392 636 l 406 657 l 244 776 l 204 713 z m 656 254 b 897 497 788 254 897 365 b 656 740 897 629 788 740 b 411 497 522 740 411 629 b 656 254 411 365 522 254 z m 1149 461 l 1149 536 l 950 513 l 950 485 z m 160 461 l 358 485 l 358 513 l 160 536 z m 247 221 l 406 339 l 392 363 l 204 283 z m 1065 221 l 1104 285 l 917 363 l 903 340 z m 440 50 l 518 238 l 496 250 l 375 90 z m 868 50 l 935 90 l 813 250 l 792 238 z m 617 6 l 693 6 l 669 204 l 640 204 z "},"☾":{"ha":1089,"x_min":0,"x_max":0,"o":"m 607 82 b 856 161 699 82 785 111 b 757 144 824 151 790 144 b 422 494 572 144 422 301 b 757 843 422 688 572 843 b 856 826 790 843 824 835 b 607 907 785 876 699 907 b 192 494 379 907 192 722 b 607 82 192 267 379 82 z "},"♻":{"ha":1147,"x_min":0,"x_max":0,"o":"m 847 669 l 922 865 l 869 836 l 836 893 b 729 950 807 947 772 949 l 499 950 l 499 949 b 607 881 499 949 571 944 l 693 735 l 644 707 z m 435 633 l 572 869 b 378 913 549 917 447 954 b 336 875 357 901 342 885 l 257 736 z m 936 314 b 1069 463 985 314 1071 381 b 1057 514 1069 483 1064 504 l 975 653 l 799 551 z m 239 175 l 242 175 b 246 301 242 175 210 243 b 331 450 249 307 331 450 l 381 421 l 310 617 l 103 581 l 153 551 l 119 493 b 125 374 89 442 104 411 z m 758 19 l 758 79 l 826 79 b 931 144 888 79 906 108 l 1044 342 l 1043 343 b 931 282 1043 343 1000 282 l 758 282 l 758 340 l 625 181 z m 390 79 l 550 79 l 550 282 l 275 282 b 336 94 249 240 265 136 b 390 79 354 83 376 79 z "},"♼":{"ha":1147,"x_min":0,"x_max":0,"o":"m 592 24 b 1064 494 851 24 1064 235 b 592 968 1064 756 851 968 b 115 494 328 968 115 756 b 592 24 115 235 328 24 z m 783 636 l 625 665 l 664 688 l 596 800 b 513 851 569 846 513 851 l 513 853 l 690 853 b 774 810 725 853 750 850 l 800 765 l 839 788 z m 468 608 l 329 689 l 393 794 b 422 824 396 804 408 815 b 574 792 476 856 556 826 z m 856 360 l 749 543 l 886 622 l 949 517 b 960 476 954 507 960 493 b 856 360 960 413 894 360 z m 315 253 l 228 406 b 224 500 211 436 197 458 l 250 544 l 210 568 l 371 594 l 425 443 l 388 467 l 319 351 b 317 253 293 304 317 253 z m 719 133 l 614 257 l 719 381 l 719 336 l 850 336 b 939 383 906 336 939 383 l 940 382 l 850 231 b 771 179 833 201 819 179 l 719 179 z m 428 179 b 388 190 418 179 401 182 b 338 336 331 224 317 301 l 553 336 l 553 179 z "},"♽":{"ha":1147,"x_min":0,"x_max":0,"o":"m 592 24 b 1064 494 851 24 1064 235 b 592 968 1064 756 851 968 b 115 494 328 968 115 756 b 592 24 115 235 328 24 z m 592 46 b 139 494 340 46 139 247 b 592 944 139 744 340 944 b 1039 494 839 944 1039 744 b 592 46 1039 247 839 46 z m 783 636 l 839 788 l 800 765 l 774 810 b 690 853 750 850 725 853 l 513 853 l 513 851 b 596 800 513 851 569 846 l 664 688 l 625 665 z m 468 608 l 574 792 b 422 824 556 826 476 856 b 393 794 408 815 396 804 l 329 689 z m 856 360 b 960 476 894 360 960 413 b 949 517 960 493 954 507 l 886 622 l 749 543 z m 315 253 l 317 253 b 319 351 317 253 293 304 l 388 467 l 425 443 l 371 594 l 210 568 l 250 544 l 224 500 b 228 406 197 458 211 436 z m 719 133 l 719 179 l 771 179 b 850 231 819 179 833 201 l 940 382 l 939 383 b 850 336 939 383 906 336 l 719 336 l 719 381 l 614 257 z m 428 179 l 553 179 l 553 336 l 338 336 b 388 190 317 301 331 224 b 428 179 401 182 418 179 z "},"⌂":{"ha":1181,"x_min":0,"x_max":0,"o":"m 149 0 l 1063 0 l 1063 567 l 606 1003 l 149 567 z "},"♠":{"ha":1250,"x_min":0,"x_max":0,"o":"m 822 0 b 686 397 788 69 686 233 b 935 214 722 301 800 214 b 1150 428 1053 214 1150 308 b 838 867 1150 583 1065 689 l 647 1019 l 644 1019 l 453 867 b 129 428 226 689 129 583 b 365 211 129 308 238 211 b 597 397 489 211 564 301 b 467 0 597 233 507 69 z "},"♣":{"ha":1250,"x_min":0,"x_max":0,"o":"m 914 179 b 1157 424 1049 179 1157 289 b 915 665 1157 557 1050 665 b 853 654 893 665 871 661 b 878 774 868 692 878 733 b 638 1013 878 907 771 1013 b 396 774 506 1013 396 907 b 424 657 396 735 407 693 b 367 665 406 661 386 665 b 122 424 232 665 122 557 b 367 179 122 289 232 179 b 596 344 472 179 558 249 b 468 0 579 200 504 61 l 824 0 b 692 342 793 61 711 199 b 914 179 728 247 810 179 z "},"♥":{"ha":1250,"x_min":0,"x_max":0,"o":"m 636 -24 l 829 192 b 1149 754 1060 444 1149 596 b 888 1013 1149 894 1029 1013 b 636 793 749 1013 651 917 b 383 1013 621 917 522 1013 b 131 754 242 1013 131 894 b 443 192 131 596 214 444 z "},"♦":{"ha":1250,"x_min":0,"x_max":0,"o":"m 640 -14 l 1089 508 l 640 1024 l 190 508 z "},"+":{"ha":565,"x_min":0,"x_max":0,"o":"m 550 379 l 589 606 l 432 606 l 461 767 l 236 767 l 207 606 l 46 606 l 7 379 l 168 379 l 139 218 l 364 218 l 393 379 z "},"−":{"ha":558,"x_min":0,"x_max":0,"o":"m 6 376 l 542 376 l 583 608 l 47 608 z "},"±":{"ha":481,"x_min":0,"x_max":0,"o":"m 496 551 l 533 769 l 417 769 l 439 894 l 217 894 l 194 769 l 75 769 l 38 551 l 157 551 l 135 426 l 357 426 l 379 551 z m -33 153 l 425 153 l 464 376 l 6 376 z "},"×":{"ha":531,"x_min":0,"x_max":0,"o":"m 361 232 l 522 372 l 428 485 l 565 600 l 440 754 l 300 636 l 204 749 l 42 608 l 136 497 l -10 375 l 115 224 l 263 347 z "},"÷":{"ha":565,"x_min":0,"x_max":0,"o":"m 319 622 b 467 713 421 622 453 638 b 351 803 481 789 451 803 b 206 713 251 803 219 789 b 319 622 192 636 213 622 z m 6 372 l 549 372 l 589 603 l 46 603 z m 240 167 b 386 258 342 167 374 185 b 272 350 400 335 372 350 b 125 258 172 350 139 335 b 240 167 113 183 133 167 z "},"=":{"ha":515,"x_min":0,"x_max":0,"o":"m 29 510 l 522 510 l 563 735 l 69 735 z m -15 260 l 478 260 l 518 486 l 25 486 z "},"≠":{"ha":515,"x_min":0,"x_max":0,"o":"m 479 261 l 518 481 l 338 481 l 350 504 l 522 504 l 560 724 l 461 724 l 510 818 l 356 818 l 308 724 l 67 724 l 29 504 l 197 504 l 185 481 l 25 481 l -14 261 l 74 261 l 28 169 l 179 169 l 226 261 z "},"≈":{"ha":500,"x_min":0,"x_max":0,"o":"m 144 532 b 24 474 96 532 50 504 l -19 236 b 103 296 11 269 61 296 b 351 232 175 296 254 232 b 467 281 400 232 447 256 l 510 524 b 394 474 475 486 436 474 b 144 532 301 474 213 532 z m 190 783 b 69 733 143 783 92 760 l 28 501 b 149 554 51 532 101 554 b 397 496 225 554 310 496 b 515 554 444 496 489 522 l 554 779 b 438 721 525 742 479 721 b 190 783 364 721 275 783 z "},"<":{"ha":500,"x_min":0,"x_max":0,"o":"m 453 197 l 494 435 l 332 494 l 515 554 l 561 813 l 46 611 l 7 393 z "},">":{"ha":501,"x_min":0,"x_max":0,"o":"m -25 197 l 489 393 l 528 611 l 83 813 l 42 574 l 204 513 l 21 454 z "},"≤":{"ha":504,"x_min":0,"x_max":0,"o":"m 488 381 l 524 585 l 326 651 l 547 717 l 585 933 l 71 747 l 39 563 z m -31 161 l 447 161 l 483 363 l 6 363 z "},"≥":{"ha":503,"x_min":0,"x_max":0,"o":"m 8 381 l 519 563 l 551 747 l 106 933 l 71 728 l 268 663 l 47 596 z m -31 161 l 449 161 l 485 363 l 6 363 z "},"¬":{"ha":567,"x_min":0,"x_max":0,"o":"m 526 229 l 599 644 l 50 644 l 10 411 l 304 411 l 274 229 z "},"≡":{"ha":515,"x_min":0,"x_max":0,"o":"m 50 628 l 543 628 l 583 851 l 90 851 z m 6 378 l 499 378 l 539 604 l 46 604 z m -37 128 l 456 128 l 494 353 l 1 353 z "},"′":{"ha":297,"x_min":0,"x_max":0,"o":"m 233 668 l 407 1000 l 161 1000 l 44 668 z "},"″":{"ha":539,"x_min":0,"x_max":0,"o":"m 475 668 l 650 1000 l 407 1000 l 285 668 z m 231 668 l 403 1000 l 158 1000 l 42 668 z "},"℅":{"ha":853,"x_min":0,"x_max":0,"o":"m -71 0 l 194 0 l 969 1000 l 711 1000 z m 215 521 b 414 690 325 521 393 571 l 426 761 l 257 761 l 244 694 b 229 665 239 667 236 665 b 225 694 221 665 219 668 l 251 843 b 267 875 256 869 258 875 b 271 843 274 875 275 871 l 260 781 l 431 781 l 442 846 b 279 1015 461 960 386 1015 b 81 846 161 1015 101 961 b 53 690 81 844 53 690 b 215 521 32 572 100 521 z m 606 -17 b 806 153 736 -17 785 33 b 829 286 806 153 828 282 b 669 456 849 400 776 456 b 468 286 564 456 488 401 b 444 153 468 285 444 153 b 606 -17 424 35 490 -17 z m 621 128 b 617 157 613 128 611 131 l 638 283 b 654 315 643 310 646 315 b 657 283 661 315 663 311 l 636 157 b 621 128 631 129 628 128 z "},"‗":{"ha":614,"x_min":0,"x_max":0,"o":"m -61 0 l 533 0 l 572 221 l -22 221 z m -103 -237 l 490 -237 l 529 -18 l -65 -18 z "},"‼":{"ha":654,"x_min":0,"x_max":0,"o":"m 44 294 b 149 306 64 301 99 306 b 249 294 196 306 229 301 b 365 683 267 311 332 492 l 421 1000 l 117 1000 l 61 683 b 44 294 26 488 31 311 z m 90 -11 b 272 139 214 -11 250 14 b 143 286 294 263 267 286 b -40 139 14 286 -18 263 b 90 -11 -62 13 -39 -11 z m 372 294 b 476 306 392 301 426 306 b 576 294 524 306 557 301 b 693 683 594 311 660 492 l 749 1000 l 444 1000 l 389 683 b 372 294 354 488 358 311 z m 418 -11 b 600 139 542 -11 578 14 b 471 286 622 263 594 286 b 288 139 342 286 310 263 b 418 -11 265 13 289 -11 z "},"∞":{"ha":893,"x_min":0,"x_max":0,"o":"m 660 476 b 619 504 643 476 633 488 b 669 532 640 521 653 532 b 694 504 688 532 696 519 b 660 476 692 489 678 476 z m 260 476 b 236 504 242 476 233 489 b 269 532 238 519 251 532 b 311 504 286 532 296 521 b 260 476 289 488 276 476 z m 207 268 b 436 365 304 268 353 296 b 644 269 496 296 546 269 b 910 501 796 269 885 358 b 719 735 933 629 853 735 b 489 640 622 735 574 710 b 292 735 429 710 386 735 b 18 507 147 735 40 636 b 207 268 -7 368 38 268 z "},"∂":{"ha":583,"x_min":0,"x_max":0,"o":"m 244 -15 b 547 260 426 -15 510 54 l 600 558 b 421 1067 640 786 543 968 l 90 1067 b 369 664 293 914 361 794 b 240 779 360 735 331 779 b 33 528 121 779 64 704 b -11 283 32 524 -11 283 b 244 -15 -49 71 64 -15 z m 258 215 b 250 254 247 215 243 218 l 296 518 b 318 558 303 556 307 558 b 326 518 329 558 333 556 l 281 254 b 258 215 274 218 269 215 z "},"π":{"ha":744,"x_min":0,"x_max":0,"o":"m 349 213 b 529 0 319 40 358 0 l 663 0 l 706 249 l 644 249 b 621 281 621 249 617 256 l 701 739 l 792 739 l 838 1000 l 113 1000 l 67 739 l 154 739 l 24 0 l 283 0 l 414 739 l 442 739 z "},"μ":{"ha":599,"x_min":0,"x_max":0,"o":"m 251 -12 b 301 86 274 -12 283 -3 l 304 0 l 514 0 l 657 814 l 385 814 l 288 267 b 268 231 283 243 281 231 b 261 271 253 231 256 243 l 357 814 l 88 814 l -99 -246 l 171 -246 l 228 72 b 251 -12 219 3 228 -12 z "},"∫":{"ha":319,"x_min":0,"x_max":0,"o":"m -154 -278 l -93 -278 b 194 -51 76 -278 165 -215 l 335 753 b 371 776 338 769 350 776 l 378 776 l 418 1004 l 367 1004 b 81 781 188 1004 108 944 l -61 -24 b -100 -57 -65 -47 -78 -57 l -115 -57 z "},"√":{"ha":797,"x_min":0,"x_max":0,"o":"m 414 0 l 922 1000 l 639 1000 l 376 481 l 326 246 l 357 481 l 335 685 l 54 685 l 8 419 l 96 419 l 143 0 z "},"∆":{"ha":764,"x_min":0,"x_max":0,"o":"m -92 0 l 713 0 l 490 1022 z m 403 221 l 297 221 l 376 369 z "},"Ω":{"ha":792,"x_min":0,"x_max":0,"o":"m 360 257 b 325 578 304 400 308 488 b 458 767 354 743 408 767 b 526 576 510 767 554 740 b 372 257 508 486 479 400 l 429 0 l 711 0 l 756 256 l 656 256 b 817 588 732 347 790 446 b 501 1015 872 899 743 1015 b 39 589 263 1015 92 886 b 72 256 14 449 32 347 l -17 256 l -61 0 l 224 0 z "},"∏":{"ha":744,"x_min":0,"x_max":0,"o":"m 315 0 l 575 0 l 706 739 l 792 739 l 838 1000 l 113 1000 l 67 739 l 157 739 l 26 0 l 286 0 l 417 739 l 446 739 z "},"∑":{"ha":508,"x_min":0,"x_max":0,"o":"m 469 250 l 283 250 l 528 521 l 389 761 l 560 761 l 601 1000 l 115 1000 l 75 768 l 235 517 l -18 240 l -60 0 l 426 0 z "},"◊":{"ha":710,"x_min":0,"x_max":0,"o":"m 308 140 l 735 500 l 435 863 l 8 501 z m 365 457 l 329 500 l 379 543 l 417 500 z "},"°":{"ha":396,"x_min":0,"x_max":0,"o":"m 239 640 b 467 814 358 640 444 693 l 468 822 b 306 1010 490 951 421 1010 b 75 822 189 1010 97 950 l 74 814 b 239 640 53 694 110 640 z m 269 804 b 251 824 256 804 249 808 b 276 846 254 842 263 846 b 293 824 290 846 296 842 b 269 804 290 810 283 804 z "}}}
